<?xml version="1.0" encoding="UTF-8"?><svg id="Layer_2" xmlns="http://www.w3.org/2000/svg" xmlns:xlink="http://www.w3.org/1999/xlink" viewBox="0 0 262.62 249.38"><defs><style>.cls-1{fill:url(#linear-gradient-15);}.cls-2{fill:#fcd151;}.cls-3{stroke:url(#linear-gradient-5);}.cls-3,.cls-4,.cls-5,.cls-6,.cls-7,.cls-8,.cls-9,.cls-10,.cls-11,.cls-12,.cls-13,.cls-14,.cls-15{fill:none;}.cls-3,.cls-4,.cls-5,.cls-7,.cls-8,.cls-9,.cls-10,.cls-11,.cls-12,.cls-13,.cls-14,.cls-15{stroke-miterlimit:10;}.cls-3,.cls-4,.cls-5,.cls-7,.cls-8,.cls-9,.cls-10,.cls-12,.cls-13,.cls-14{stroke-width:7.38px;}.cls-16{fill:#3da5de;}.cls-17{fill:#325aff;}.cls-18{fill:url(#linear-gradient-2);}.cls-4{stroke:url(#linear-gradient-6);}.cls-5{stroke:url(#linear-gradient-7);}.cls-6{stroke:#fff;stroke-linecap:round;stroke-linejoin:round;stroke-width:1.14px;}.cls-7{stroke:url(#linear-gradient-8);}.cls-8{stroke:url(#linear-gradient-9);}.cls-9{stroke:url(#linear-gradient-12);}.cls-19{fill:url(#linear-gradient-14);}.cls-20{fill:#dd9442;}.cls-21{fill:#a0e1dc;}.cls-10{stroke:url(#linear-gradient-10);}.cls-11{stroke:#33acff;stroke-width:.16px;}.cls-12{stroke:url(#linear-gradient-11);}.cls-22{fill:url(#linear-gradient-17);}.cls-13{stroke:url(#linear-gradient-4);}.cls-14{stroke:url(#linear-gradient-13);}.cls-23{fill:url(#New_Gradient_Swatch);}.cls-24{fill:url(#linear-gradient-19);}.cls-25{fill:#ff681d;}.cls-26{fill:#10afa3;}.cls-15{stroke:url(#linear-gradient-3);stroke-width:8.29px;}.cls-27{fill:#0d7bc0;}.cls-28{fill:#003edb;}.cls-29{fill:url(#linear-gradient-16);}.cls-30{fill:url(#linear-gradient);}.cls-31{fill:#008f9a;}.cls-32{fill:#5fc3be;}.cls-33{fill:url(#linear-gradient-18);}</style><linearGradient id="linear-gradient" x1="131.31" y1="0" x2="131.31" y2="231.15" gradientUnits="userSpaceOnUse"><stop offset="0" stop-color="#fff" stop-opacity=".4"/><stop offset=".12" stop-color="#f7fdff" stop-opacity=".44"/><stop offset=".33" stop-color="#e4faff" stop-opacity=".53"/><stop offset=".58" stop-color="#c4f4ff" stop-opacity=".69"/><stop offset=".87" stop-color="#99ecff" stop-opacity=".9"/><stop offset="1" stop-color="#85e9ff"/></linearGradient><linearGradient id="New_Gradient_Swatch" x1="85.01" y1="202.5" x2="177.12" y2="202.5" gradientUnits="userSpaceOnUse"><stop offset=".2" stop-color="#325aff"/><stop offset=".4" stop-color="#30bebc"/><stop offset=".8" stop-color="#fcd151"/></linearGradient><linearGradient id="linear-gradient-2" x1="131.23" y1="176.3" x2="131.23" y2="228.7" gradientUnits="userSpaceOnUse"><stop offset="0" stop-color="#fff"/><stop offset=".87" stop-color="#e1f3ff"/></linearGradient><linearGradient id="linear-gradient-3" x1="219.02" y1="171.92" x2="53.32" y2="6.21" gradientUnits="userSpaceOnUse"><stop offset="0" stop-color="#325aff"/><stop offset=".5" stop-color="#30bebc"/><stop offset="1" stop-color="#fcd151"/></linearGradient><linearGradient id="linear-gradient-4" x1="64.94" y1="91.35" x2="64.94" y2="108.62" gradientUnits="userSpaceOnUse"><stop offset="0" stop-color="#325aff"/><stop offset="1" stop-color="#e6ebff"/></linearGradient><linearGradient id="linear-gradient-5" x1="78.95" y1="68.11" x2="78.95" y2="108.62" gradientUnits="userSpaceOnUse"><stop offset="0" stop-color="#30bebc"/><stop offset="1" stop-color="#d5ffec"/></linearGradient><linearGradient id="linear-gradient-6" x1="92.96" y1="95.24" x2="92.96" xlink:href="#linear-gradient-4"/><linearGradient id="linear-gradient-7" x1="106.98" y1="77.33" x2="106.98" xlink:href="#linear-gradient-5"/><linearGradient id="linear-gradient-8" x1="120.99" y1="67.99" x2="120.99" xlink:href="#linear-gradient-4"/><linearGradient id="linear-gradient-9" x1="135" y1="62.15" x2="135" y2="108.62" gradientUnits="userSpaceOnUse"><stop offset="0" stop-color="#fcd151"/><stop offset="1" stop-color="#fbf4e5"/></linearGradient><linearGradient id="linear-gradient-10" x1="149.01" y1="84.08" x2="149.01" xlink:href="#linear-gradient-4"/><linearGradient id="linear-gradient-11" x1="163.03" y1="53.4" x2="163.03" xlink:href="#linear-gradient-5"/><linearGradient id="linear-gradient-12" x1="177.04" y1="49.31" x2="177.04" xlink:href="#linear-gradient-4"/><linearGradient id="linear-gradient-13" x1="191.05" y1="36.46" x2="191.05" xlink:href="#linear-gradient-5"/><linearGradient id="linear-gradient-14" x1="182.95" y1="136.21" x2="213.57" y2="136.21" xlink:href="#linear-gradient-9"/><linearGradient id="linear-gradient-15" x1="140.88" y1="136.21" x2="171.5" y2="136.21" xlink:href="#linear-gradient-4"/><linearGradient id="linear-gradient-16" x1="157.29" y1="128" x2="171.5" y2="128" xlink:href="#linear-gradient-9"/><linearGradient id="linear-gradient-17" x1="98.8" y1="136.21" x2="129.42" y2="136.21" xlink:href="#linear-gradient-5"/><linearGradient id="linear-gradient-18" x1="56.72" y1="136.21" x2="87.34" y2="136.21" xlink:href="#linear-gradient-9"/><linearGradient id="linear-gradient-19" x1="73.13" y1="136.21" x2="89.61" y2="136.21" xlink:href="#linear-gradient-5"/></defs><g id="Blocks"><path class="cls-30" d="M85.01,202.58s16.09,28.57,46.14,28.57,45.98-28.57,45.98-28.57L262.62,0H0l85.01,202.58Z"/><line class="cls-11" x1="88.05" y1="246.43" x2="88.05" y2="249.22"/><line class="cls-11" x1="90.92" y1="246.43" x2="90.92" y2="249.22"/><line class="cls-11" x1="93.79" y1="246.43" x2="93.79" y2="249.22"/><line class="cls-11" x1="96.67" y1="246.43" x2="96.67" y2="249.22"/><line class="cls-11" x1="99.54" y1="246.43" x2="99.54" y2="249.22"/><line class="cls-11" x1="102.41" y1="246.43" x2="102.41" y2="249.22"/><line class="cls-11" x1="105.29" y1="246.43" x2="105.29" y2="249.22"/><line class="cls-11" x1="108.16" y1="246.43" x2="108.16" y2="249.22"/><line class="cls-11" x1="111.03" y1="246.43" x2="111.03" y2="249.22"/><line class="cls-11" x1="113.91" y1="246.43" x2="113.91" y2="249.22"/><line class="cls-11" x1="116.78" y1="246.43" x2="116.78" y2="249.22"/><line class="cls-11" x1="119.65" y1="246.43" x2="119.65" y2="249.22"/><line class="cls-11" x1="122.53" y1="246.43" x2="122.53" y2="249.22"/><line class="cls-11" x1="125.4" y1="246.43" x2="125.4" y2="249.22"/><line class="cls-11" x1="128.27" y1="246.43" x2="128.27" y2="249.22"/><line class="cls-11" x1="131.15" y1="246.43" x2="131.15" y2="249.22"/><line class="cls-11" x1="134.02" y1="246.43" x2="134.02" y2="249.22"/><line class="cls-11" x1="136.9" y1="246.43" x2="136.9" y2="249.22"/><line class="cls-11" x1="139.77" y1="246.43" x2="139.77" y2="249.22"/><line class="cls-11" x1="142.64" y1="246.43" x2="142.64" y2="249.22"/><line class="cls-11" x1="145.52" y1="246.43" x2="145.52" y2="249.22"/><line class="cls-11" x1="148.39" y1="246.43" x2="148.39" y2="249.22"/><line class="cls-11" x1="151.26" y1="246.43" x2="151.26" y2="249.22"/><line class="cls-11" x1="154.14" y1="246.43" x2="154.14" y2="249.22"/><line class="cls-11" x1="157.01" y1="246.43" x2="157.01" y2="249.22"/><line class="cls-11" x1="159.88" y1="246.43" x2="159.88" y2="249.22"/><line class="cls-11" x1="162.76" y1="246.43" x2="162.76" y2="249.22"/><line class="cls-11" x1="165.63" y1="246.43" x2="165.63" y2="249.22"/><line class="cls-11" x1="168.5" y1="246.43" x2="168.5" y2="249.22"/><line class="cls-11" x1="171.38" y1="246.43" x2="171.38" y2="249.22"/><line class="cls-11" x1="174.25" y1="246.43" x2="174.25" y2="249.22"/><line class="cls-11" x1="85.17" y1="246.35" x2="177.12" y2="246.35"/><line class="cls-11" x1="85.25" y1="249.3" x2="177.2" y2="249.3"/><path class="cls-11" d="M85.17,208s16.58,26.11,45.65,26.11,46.22-26.03,46.22-26.03"/><path class="cls-23" d="M85.01,202.58s15.27-28.74,46.47-28.74,45.65,28.74,45.65,28.74c0,0-15.93,28.57-45.98,28.57s-46.14-28.57-46.14-28.57Z"/><path class="cls-18" d="M89.11,202.57s13.96-26.28,42.49-26.28,41.74,26.28,41.74,26.28c0,0-14.56,26.13-42.04,26.13s-42.19-26.13-42.19-26.13Z"/><circle class="cls-21" cx="130.94" cy="202.4" r="9.11"/><circle class="cls-26" cx="130.94" cy="202.4" r="6.56"/><polyline class="cls-6" points="127.8 203.11 129.42 204.73 134.08 200.07"/><g id="_x3C_Radial_Repeat_x3E_"><rect class="cls-32" x="128.55" y="220.62" width="5.35" height="3.49" transform="translate(265.75 442.74) rotate(179.14)"/><rect class="cls-21" x="128.6" y="224.11" width="5.35" height="3.49" transform="translate(265.9 449.72) rotate(179.14)"/><rect class="cls-27" x="128.49" y="217.13" width="5.35" height="3.49" transform="translate(265.59 435.77) rotate(179.14)"/><path class="cls-16" d="M130.91,214.06c-.86,0-1.69-.1-2.49-.28l.05,3.39,5.35-.08-.05-3.39c-.91.24-1.87.36-2.86.36Z"/></g><g id="_x3C_Radial_Repeat_x3E_-2"><rect class="cls-32" x="114.43" y="215.02" width="5.35" height="3.49" transform="translate(50.17 453.87) rotate(-135.86)"/><rect class="cls-21" x="112" y="217.52" width="5.35" height="3.49" transform="translate(44.26 456.48) rotate(-135.86)"/><rect class="cls-27" x="116.86" y="212.52" width="5.35" height="3.49" transform="translate(56.09 451.26) rotate(-135.86)"/><path class="cls-16" d="M122.76,210.67c-.61-.61-1.13-1.26-1.57-1.96l-2.36,2.43,3.84,3.73,2.36-2.43c-.81-.48-1.58-1.07-2.28-1.77Z"/></g><g id="_x3C_Radial_Repeat_x3E_-3"><rect class="cls-32" x="108.41" y="201.08" width="5.35" height="3.49" transform="translate(-90.05 316.93) rotate(-90.86)"/><rect class="cls-21" x="104.92" y="201.13" width="5.35" height="3.49" transform="translate(-93.65 313.49) rotate(-90.86)"/><rect class="cls-27" x="111.9" y="201.03" width="5.35" height="3.49" transform="translate(-86.46 320.36) rotate(-90.86)"/><path class="cls-16" d="M119.39,202.51c0-.86.1-1.69.28-2.49l-3.39.05.08,5.35,3.39-.05c-.24-.91-.36-1.87-.36-2.86Z"/></g><g id="_x3C_Radial_Repeat_x3E_-4"><rect class="cls-32" x="114.01" y="186.97" width="5.35" height="3.49" transform="translate(-100 141.01) rotate(-45.86)"/><rect class="cls-21" x="111.51" y="184.54" width="5.35" height="3.49" transform="translate(-99.01 138.48) rotate(-45.86)"/><rect class="cls-27" x="116.52" y="189.4" width="5.35" height="3.49" transform="translate(-100.98 143.55) rotate(-45.86)"/><path class="cls-16" d="M122.78,194.36c.61-.61,1.26-1.13,1.96-1.57l-2.43-2.36-3.73,3.84,2.43,2.36c.48-.81,1.07-1.58,1.77-2.28Z"/></g><g id="_x3C_Radial_Repeat_x3E_-5"><rect class="cls-32" x="127.95" y="180.95" width="5.35" height="3.49" transform="translate(-2.71 1.97) rotate(-.86)"/><rect class="cls-21" x="127.9" y="177.46" width="5.35" height="3.49" transform="translate(-2.66 1.97) rotate(-.86)"/><rect class="cls-27" x="128.01" y="184.44" width="5.35" height="3.49" transform="translate(-2.76 1.97) rotate(-.86)"/><path class="cls-16" d="M130.94,190.99c.86,0,1.69.1,2.49.28l-.05-3.39-5.35.08.05,3.39c.91-.24,1.87-.36,2.86-.36Z"/></g><g id="_x3C_Radial_Repeat_x3E_-6"><rect class="cls-32" x="142.07" y="186.55" width="5.35" height="3.49" transform="translate(172.02 -47.63) rotate(44.14)"/><rect class="cls-21" x="144.5" y="184.04" width="5.35" height="3.49" transform="translate(170.96 -50.03) rotate(44.14)"/><rect class="cls-27" x="139.64" y="189.05" width="5.35" height="3.49" transform="translate(173.07 -45.23) rotate(44.14)"/><path class="cls-16" d="M139.09,194.38c.61.61,1.13,1.26,1.57,1.96l2.36-2.43-3.84-3.73-2.36,2.43c.81.48,1.58,1.07,2.28,1.77Z"/></g><g id="_x3C_Radial_Repeat_x3E_-7"><rect class="cls-32" x="148.09" y="200.49" width="5.35" height="3.49" transform="translate(350.72 48.47) rotate(89.14)"/><rect class="cls-21" x="151.58" y="200.44" width="5.35" height="3.49" transform="translate(354.11 44.93) rotate(89.14)"/><rect class="cls-27" x="144.6" y="200.54" width="5.35" height="3.49" transform="translate(347.34 52.01) rotate(89.14)"/><path class="cls-16" d="M142.46,202.54c0,.86-.1,1.69-.28,2.49l3.39-.05-.08-5.35-3.39.05c.24.91.36,1.87.36,2.86Z"/></g><g id="_x3C_Radial_Repeat_x3E_-8"><rect class="cls-32" x="142.49" y="214.6" width="5.35" height="3.49" transform="translate(401.51 262.86) rotate(134.14)"/><rect class="cls-21" x="144.99" y="217.03" width="5.35" height="3.49" transform="translate(407.5 265.18) rotate(134.14)"/><rect class="cls-27" x="139.98" y="212.17" width="5.35" height="3.49" transform="translate(395.52 260.53) rotate(134.14)"/><path class="cls-16" d="M139.07,210.69c-.61.61-1.26,1.13-1.96,1.57l2.43,2.36,3.73-3.84-2.43-2.36c-.48.81-1.07,1.58-1.77,2.28Z"/></g><line class="cls-11" x1="159.82" y1="244.84" x2="162.34" y2="243.63"/><line class="cls-11" x1="158.71" y1="242.57" x2="161.23" y2="241.37"/><line class="cls-11" x1="157.59" y1="240.3" x2="160.11" y2="239.1"/><line class="cls-11" x1="156.48" y1="238.04" x2="159" y2="236.83"/><line class="cls-11" x1="155.37" y1="235.77" x2="157.89" y2="234.57"/><line class="cls-11" x1="154.25" y1="233.5" x2="156.77" y2="232.3"/><line class="cls-11" x1="153.14" y1="231.24" x2="155.66" y2="230.03"/><line class="cls-11" x1="153.51" y1="225.57" x2="163.49" y2="246.33"/><line class="cls-11" x1="150.97" y1="226.7" x2="160.46" y2="246.32"/><line class="cls-11" x1="102.48" y1="244.84" x2="99.96" y2="243.63"/><line class="cls-11" x1="103.59" y1="242.57" x2="101.08" y2="241.37"/><line class="cls-11" x1="104.71" y1="240.3" x2="102.19" y2="239.1"/><line class="cls-11" x1="105.82" y1="238.04" x2="103.3" y2="236.83"/><line class="cls-11" x1="106.94" y1="235.77" x2="104.42" y2="234.57"/><line class="cls-11" x1="108.05" y1="233.5" x2="105.53" y2="232.3"/><line class="cls-11" x1="109.16" y1="231.24" x2="106.64" y2="230.03"/><line class="cls-11" x1="108.8" y1="225.57" x2="98.81" y2="246.33"/><line class="cls-11" x1="111.33" y1="226.7" x2="101.84" y2="246.32"/><rect class="cls-15" x="41.62" y="13.11" width="189.1" height="151.91" rx="18.2" ry="18.2"/><line class="cls-13" x1="64.94" y1="108.62" x2="64.94" y2="91.35"/><line class="cls-3" x1="78.95" y1="108.62" x2="78.95" y2="68.11"/><line class="cls-4" x1="92.96" y1="108.62" x2="92.96" y2="95.24"/><line class="cls-5" x1="106.98" y1="108.62" x2="106.98" y2="77.33"/><line class="cls-7" x1="120.99" y1="108.62" x2="120.99" y2="67.99"/><line class="cls-8" x1="135" y1="108.62" x2="135" y2="62.15"/><line class="cls-10" x1="149.01" y1="108.62" x2="149.01" y2="84.08"/><line class="cls-12" x1="163.03" y1="108.62" x2="163.03" y2="53.4"/><line class="cls-9" x1="177.04" y1="108.62" x2="177.04" y2="49.31"/><line class="cls-14" x1="191.05" y1="108.62" x2="191.05" y2="36.46"/><circle class="cls-20" cx="135" cy="62.53" r="3.69"/><circle class="cls-31" cx="78.95" cy="67.98" r="3.69"/><circle class="cls-31" cx="191.05" cy="36.46" r="3.69"/><circle class="cls-31" cx="106.98" cy="77.33" r="3.69"/><circle class="cls-31" cx="163.03" cy="53.62" r="3.69"/><circle class="cls-28" cx="92.96" cy="95.6" r="3.69"/><circle class="cls-28" cx="64.94" cy="91.55" r="3.69"/><circle class="cls-28" cx="120.99" cy="68.11" r="3.69"/><circle class="cls-28" cx="149.01" cy="84.08" r="3.69"/><circle class="cls-28" cx="177.04" cy="49.31" r="3.69"/><path class="cls-19" d="M199.36,136.21l14.21,8.2c-4.53,7.85-14.57,10.54-22.41,6.01-7.85-4.53-10.54-14.57-6.01-22.41,3.02-5.23,8.17-8.2,14.21-8.2v16.41Z"/><path class="cls-2" d="M199.36,136.21l14.21-8.2c3.02,5.23,3.02,11.18,0,16.41l-14.21-8.2Z"/><path class="cls-17" d="M199.36,136.21v-16.41c6.04,0,11.19,2.98,14.21,8.2l-14.21,8.2Z"/><path class="cls-1" d="M157.29,136.21l14.21,8.2c-4.53,7.85-14.57,10.54-22.41,6.01-7.85-4.53-10.54-14.57-6.01-22.41,3.02-5.23,8.17-8.2,14.21-8.2v16.41Z"/><path class="cls-17" d="M157.29,136.21l14.21-8.2c3.02,5.23,3.02,11.18,0,16.41l-14.21-8.2Z"/><path class="cls-29" d="M157.29,136.21v-16.41c6.04,0,11.19,2.98,14.21,8.2l-14.21,8.2Z"/><path class="cls-22" d="M115.21,136.21l14.21,8.2c-4.53,7.85-14.57,10.54-22.41,6.01-7.85-4.53-10.54-14.57-6.01-22.41,3.02-5.23,8.17-8.2,14.21-8.2v16.41Z"/><path class="cls-17" d="M115.21,136.21l14.21-8.2c3.02,5.23,3.02,11.18,0,16.41l-14.21-8.2Z"/><path class="cls-25" d="M115.21,136.21v-16.41c6.04,0,11.19,2.98,14.21,8.2l-14.21,8.2Z"/><path class="cls-33" d="M73.13,136.21l14.21,8.2c-4.53,7.85-14.57,10.54-22.41,6.01-7.85-4.53-10.54-14.57-6.01-22.41,3.02-5.23,8.17-8.2,14.21-8.2v16.41Z"/><path class="cls-24" d="M73.13,136.21l14.21-8.2c3.02,5.23,3.02,11.18,0,16.41l-14.21-8.2Z"/><path class="cls-17" d="M73.13,136.21v-16.41c6.04,0,11.19,2.98,14.21,8.2l-14.21,8.2Z"/></g></svg>