<?xml version="1.0" encoding="UTF-8"?><svg id="Layer_2" xmlns="http://www.w3.org/2000/svg" xmlns:xlink="http://www.w3.org/1999/xlink" viewBox="0 0 302.92 344.25"><defs><style>.cls-1{stroke:url(#linear-gradient-14);}.cls-1,.cls-2,.cls-3,.cls-4,.cls-5,.cls-6,.cls-7,.cls-8,.cls-9,.cls-10,.cls-11,.cls-12,.cls-13,.cls-14,.cls-15{fill:none;}.cls-1,.cls-16,.cls-5,.cls-17,.cls-7,.cls-8,.cls-9,.cls-10,.cls-11,.cls-12,.cls-13,.cls-18{stroke-miterlimit:10;stroke-width:10px;}.cls-2,.cls-3,.cls-4,.cls-6,.cls-14,.cls-15{stroke:#9b9c9e;stroke-linecap:round;stroke-linejoin:round;}.cls-2,.cls-6{stroke-width:1.16px;}.cls-16{fill:url(#linear-gradient-8);stroke:url(#linear-gradient-9);}.cls-19{fill:#30bebc;}.cls-20,.cls-21{fill:#fff;}.cls-22{fill:#33acff;}.cls-3{stroke-dasharray:0 4.31;}.cls-21{fill-rule:evenodd;}.cls-4{stroke-dasharray:0 3.79;}.cls-5{stroke:url(#linear-gradient-10);}.cls-6{stroke-dasharray:0 5;}.cls-23{fill:#2b3edb;}.cls-17{fill:url(#linear-gradient);stroke:url(#linear-gradient-2);}.cls-7{stroke:url(#linear-gradient-12);}.cls-8{stroke:url(#linear-gradient-6);}.cls-9{stroke:url(#linear-gradient-11);}.cls-10{stroke:url(#linear-gradient-13);}.cls-11{stroke:url(#linear-gradient-7);}.cls-24{fill:#0018a8;}.cls-12{stroke:url(#linear-gradient-15);}.cls-13{stroke:url(#linear-gradient-5);}.cls-18{fill:url(#linear-gradient-3);stroke:url(#linear-gradient-4);}.cls-25{clip-path:url(#clippath);}.cls-15{stroke-dasharray:0 4.34;}</style><linearGradient id="linear-gradient" x1="202.25" y1="85.3" x2="201.59" y2="86.42" gradientUnits="userSpaceOnUse"><stop offset="0" stop-color="#0018a8"/><stop offset=".4" stop-color="#30bebc"/><stop offset=".8" stop-color="#fcd151"/></linearGradient><linearGradient id="linear-gradient-2" x1="-436.12" y1="-641.07" x2="-333.29" y2="-641.07" gradientTransform="translate(-169.89 734.5) rotate(60.79)" gradientUnits="userSpaceOnUse"><stop offset=".2" stop-color="#325aff"/><stop offset=".4" stop-color="#30bebc"/><stop offset=".8" stop-color="#fcd151"/></linearGradient><linearGradient id="linear-gradient-3" x1="276.27" y1="129.04" x2="226.15" y2="213.84" xlink:href="#linear-gradient"/><linearGradient id="linear-gradient-4" x1="-1392.78" y1="-633" x2="-1289.19" y2="-633" gradientTransform="translate(-976.05 1003.79) rotate(120.59)" xlink:href="#linear-gradient-2"/><linearGradient id="linear-gradient-5" x1="-1867.98" y1="191.31" x2="-1764.94" y2="191.31" gradientTransform="translate(-1614.21 449.07) rotate(179.98)" xlink:href="#linear-gradient-2"/><linearGradient id="linear-gradient-6" x1="-1375.81" y1="1032.62" x2="-1272.6" y2="1032.62" gradientTransform="translate(-1440.48 -402.75) rotate(-118.94)" xlink:href="#linear-gradient-2"/><linearGradient id="linear-gradient-7" x1="-430.06" y1="1028.21" x2="-326.93" y2="1028.21" gradientTransform="translate(-645.86 -671.48) rotate(-59.96)" xlink:href="#linear-gradient-2"/><linearGradient id="linear-gradient-8" x1="128.76" y1="43.37" x2="78.54" y2="128.34" xlink:href="#linear-gradient"/><linearGradient id="linear-gradient-9" x1="52.2" y1="204.58" x2="155.38" y2="204.58" gradientTransform="translate(-1.23 -118.17) rotate(-.31)" xlink:href="#linear-gradient-2"/><linearGradient id="linear-gradient-10" x1="-1431.1" y1="1047.22" x2="-1327.87" y2="1047.22" gradientTransform="translate(-1354.74 -447.84) rotate(-119.98)" gradientUnits="userSpaceOnUse"><stop offset="0" stop-color="#325aff"/><stop offset=".4" stop-color="#30bebc"/><stop offset=".8" stop-color="#fcd151"/></linearGradient><linearGradient id="linear-gradient-11" x1="10.43" y1="223.91" x2="113.66" y2="223.91" gradientTransform="matrix(1,0,0,1,0,0)" xlink:href="#linear-gradient-10"/><linearGradient id="linear-gradient-12" x1="-1909.53" y1="219.97" x2="-1806.3" y2="219.97" gradientTransform="translate(-1614.37 330.92) rotate(-179.76)" xlink:href="#linear-gradient-10"/><linearGradient id="linear-gradient-13" x1="-1422.77" y1="-615.12" x2="-1319.54" y2="-615.12" gradientTransform="translate(-1062.67 950.51) rotate(119.82)" xlink:href="#linear-gradient-10"/><linearGradient id="linear-gradient-14" x1="-465.52" y1="-609.06" x2="-362.29" y2="-609.06" gradientTransform="translate(-258.03 782.01) rotate(59.96)" xlink:href="#linear-gradient-10"/><linearGradient id="linear-gradient-15" x1="-474.94" y1="1053.19" x2="-371.71" y2="1053.19" gradientTransform="translate(-548.75 -614.9) rotate(-60.1)" xlink:href="#linear-gradient-10"/><clipPath id="clippath"><path class="cls-20" d="M153.14,168.66c-1.19.01-2.15.98-2.15,2.17s.98,2.17,2.17,2.17,2.17-.97,2.17-2.17-.97-2.16-2.15-2.17h-.04Z"/></clipPath></defs><g id="Blocks"><line class="cls-17" x1="251.24" y1="114.25" x2="152.6" y2="57.47"/><line class="cls-18" x1="251.17" y1="228.63" x2="251.24" y2="114.25"/><line class="cls-13" x1="153.16" y1="285.3" x2="251.17" y2="228.63"/><line class="cls-8" x1="54.74" y1="227.61" x2="153.16" y2="285.3"/><line class="cls-11" x1="54.7" y1="114.24" x2="54.74" y2="227.61"/><line class="cls-16" x1="152.6" y1="57.47" x2="54.7" y2="114.24"/><line class="cls-14" x1="29.79" y1="100.76" x2="29.79" y2="100.76"/><line class="cls-3" x1="29.79" y1="105.07" x2="29.79" y2="240.84"/><line class="cls-14" x1="29.79" y1="242.99" x2="29.79" y2="242.99"/><line class="cls-3" x1="33.52" y1="245.15" x2="151.1" y2="313.03"/><line class="cls-14" x1="152.97" y1="314.11" x2="152.97" y2="314.11"/><line class="cls-3" x1="156.7" y1="311.96" x2="274.28" y2="244.07"/><line class="cls-14" x1="276.15" y1="242.99" x2="276.15" y2="242.99"/><line class="cls-3" x1="276.15" y1="238.68" x2="276.15" y2="102.91"/><line class="cls-14" x1="276.15" y1="100.76" x2="276.15" y2="100.76"/><line class="cls-3" x1="272.41" y1="98.6" x2="154.84" y2="30.72"/><line class="cls-14" x1="152.97" y1="29.64" x2="152.97" y2="29.64"/><line class="cls-3" x1="149.24" y1="31.8" x2="31.66" y2="99.68"/><line class="cls-14" x1="96.62" y1="139.34" x2="96.62" y2="139.34"/><line class="cls-15" x1="96.62" y1="143.68" x2="96.62" y2="202.24"/><line class="cls-14" x1="96.62" y1="204.41" x2="96.62" y2="204.41"/><line class="cls-15" x1="100.38" y1="206.58" x2="151.09" y2="235.86"/><line class="cls-14" x1="152.97" y1="236.94" x2="152.97" y2="236.94"/><line class="cls-15" x1="156.73" y1="234.77" x2="207.44" y2="205.49"/><line class="cls-14" x1="209.32" y1="204.41" x2="209.32" y2="204.41"/><line class="cls-15" x1="209.32" y1="200.07" x2="209.32" y2="141.51"/><line class="cls-14" x1="209.32" y1="139.34" x2="209.32" y2="139.34"/><line class="cls-15" x1="205.56" y1="137.17" x2="154.85" y2="107.89"/><line class="cls-14" x1="152.97" y1="106.81" x2="152.97" y2="106.81"/><line class="cls-15" x1="149.21" y1="108.98" x2="98.5" y2="138.26"/><line class="cls-14" x1="116.87" y1="151.03" x2="116.87" y2="151.03"/><line class="cls-4" x1="116.87" y1="154.82" x2="116.87" y2="190.82"/><line class="cls-14" x1="116.87" y1="192.72" x2="116.87" y2="192.72"/><line class="cls-4" x1="120.15" y1="194.61" x2="151.33" y2="212.61"/><line class="cls-14" x1="152.97" y1="213.56" x2="152.97" y2="213.56"/><line class="cls-4" x1="156.25" y1="211.67" x2="187.43" y2="193.67"/><line class="cls-14" x1="189.07" y1="192.72" x2="189.07" y2="192.72"/><line class="cls-4" x1="189.07" y1="188.93" x2="189.07" y2="152.93"/><line class="cls-14" x1="189.07" y1="151.03" x2="189.07" y2="151.03"/><line class="cls-4" x1="185.79" y1="149.14" x2="154.61" y2="131.14"/><line class="cls-14" x1="152.97" y1="130.19" x2="152.97" y2="130.19"/><line class="cls-4" x1="149.69" y1="132.09" x2="118.51" y2="150.09"/><line class="cls-5" x1="192.52" y1="195.53" x2="290.72" y2="252.29"/><line class="cls-9" x1="111.16" y1="195.56" x2="12.93" y2="252.27"/><line class="cls-7" x1="195.23" y1="146.97" x2="293.7" y2="90.67"/><line class="cls-10" x1="152.97" y1="123.43" x2="152.6" y2="10"/><line class="cls-1" x1="111.18" y1="147.14" x2="12.91" y2="90.49"/><line class="cls-12" x1="153.07" y1="220.43" x2="153.26" y2="333.86"/><circle class="cls-23" cx="249.51" cy="114.78" r="12"/><circle class="cls-23" cx="56.64" cy="116.11" r="12"/><circle class="cls-23" cx="109.41" cy="146.97" r="12"/><circle class="cls-22" cx="110.2" cy="197.6" r="12"/><circle class="cls-19" cx="152.79" cy="217" r="12"/><circle class="cls-23" cx="192.52" cy="195.56" r="12"/><circle class="cls-22" cx="195.23" cy="147.14" r="12"/><circle class="cls-19" cx="153.26" cy="122.97" r="12"/><circle class="cls-23" cx="248.94" cy="227.74" r="12"/><circle class="cls-23" cx="57.67" cy="227.74" r="12"/><circle class="cls-24" cx="152.6" cy="60.15" r="12"/><circle class="cls-24" cx="152.97" cy="282.39" r="12"/><line class="cls-2" x1="10" y1="89.33" x2="10" y2="89.33"/><line class="cls-6" x1="10" y1="94.34" x2="10" y2="251.92"/><line class="cls-2" x1="10" y1="254.42" x2="10" y2="254.42"/><line class="cls-6" x1="14.33" y1="256.92" x2="150.8" y2="335.71"/><line class="cls-2" x1="152.97" y1="336.96" x2="152.97" y2="336.96"/><line class="cls-6" x1="157.3" y1="334.46" x2="293.77" y2="255.67"/><line class="cls-2" x1="295.94" y1="254.42" x2="295.94" y2="254.42"/><line class="cls-6" x1="295.94" y1="249.42" x2="295.94" y2="91.83"/><line class="cls-2" x1="295.94" y1="89.33" x2="295.94" y2="89.33"/><line class="cls-6" x1="291.61" y1="86.83" x2="155.13" y2="8.04"/><line class="cls-2" x1="152.97" y1="6.79" x2="152.97" y2="6.79"/><line class="cls-6" x1="148.64" y1="9.29" x2="12.17" y2="88.08"/><circle class="cls-22" cx="290.72" cy="91.81" r="10"/><circle class="cls-22" cx="292.92" cy="253.12" r="10"/><circle class="cls-22" cx="152.97" cy="334.25" r="10"/><circle class="cls-22" cx="10" cy="253.37" r="10"/><circle class="cls-22" cx="10.11" cy="89.9" r="10"/><circle class="cls-22" cx="152.79" cy="10" r="10"/><circle class="cls-23" cx="153.26" cy="170.92" r="18.04"/><path class="cls-20" d="M201.24,151.26h-1.72v-6.01h1.72c.37,0,.7-.24.82-.6.11-.36-.02-.74-.32-.96l-6.01-4.29c-.3-.21-.7-.21-1,0l-6.01,4.29c-.3.22-.43.61-.32.96.11.35.44.6.82.6h1.72v6.01h-1.72c-.47,0-.86.38-.86.86v.86h13.74v-.86c0-.47-.38-.86-.86-.86ZM194.37,151.26h-1.72v-6.01h1.72v6.01ZM197.81,151.26h-1.72v-6.01h1.72v6.01Z"/><path class="cls-20" d="M158.99,128.27h-1.72v-6.01h1.72c.37,0,.7-.24.82-.6.11-.36-.02-.74-.32-.96l-6.01-4.29c-.3-.21-.7-.21-1,0l-6.01,4.29c-.3.22-.43.61-.32.96.11.35.44.6.82.6h1.72v6.01h-1.72c-.47,0-.86.38-.86.86v.86h13.74v-.86c0-.47-.38-.86-.86-.86ZM152.12,128.27h-1.72v-6.01h1.72v6.01ZM155.56,128.27h-1.72v-6.01h1.72v6.01Z"/><path class="cls-20" d="M115.42,151.26h-1.72v-6.01h1.72c.37,0,.7-.24.82-.6.11-.36-.02-.74-.32-.96l-6.01-4.29c-.3-.21-.7-.21-1,0l-6.01,4.29c-.3.22-.43.61-.32.96.11.35.44.6.82.6h1.72v6.01h-1.72c-.47,0-.86.38-.86.86v.86h13.74v-.86c0-.47-.38-.86-.86-.86ZM108.55,151.26h-1.72v-6.01h1.72v6.01ZM111.99,151.26h-1.72v-6.01h1.72v6.01Z"/><path class="cls-20" d="M116.28,200.71h-1.72v-6.01h1.72c.37,0,.7-.24.82-.6.11-.36-.02-.74-.32-.96l-6.01-4.29c-.3-.21-.7-.21-1,0l-6.01,4.29c-.3.22-.43.61-.32.96.11.35.44.6.82.6h1.72v6.01h-1.72c-.47,0-.86.38-.86.86v.86h13.74v-.86c0-.47-.38-.86-.86-.86ZM109.41,200.71h-1.72v-6.01h1.72v6.01ZM112.85,200.71h-1.72v-6.01h1.72v6.01Z"/><path class="cls-20" d="M158.8,221.1h-1.72v-6.01h1.72c.37,0,.7-.24.82-.6.11-.36-.02-.74-.32-.96l-6.01-4.29c-.3-.21-.7-.21-1,0l-6.01,4.29c-.3.22-.43.61-.32.96.11.35.44.6.82.6h1.72v6.01h-1.72c-.47,0-.86.38-.86.86v.86h13.74v-.86c0-.47-.38-.86-.86-.86ZM151.93,221.1h-1.72v-6.01h1.72v6.01ZM155.36,221.1h-1.72v-6.01h1.72v6.01Z"/><path class="cls-20" d="M198.53,199.85h-1.72v-6.01h1.72c.37,0,.7-.24.82-.6.11-.36-.02-.74-.32-.96l-6.01-4.29c-.3-.21-.7-.21-1,0l-6.01,4.29c-.3.22-.43.61-.32.96.11.35.44.6.82.6h1.72v6.01h-1.72c-.47,0-.86.38-.86.86v.86h13.74v-.86c0-.47-.38-.86-.86-.86ZM191.66,199.85h-1.72v-6.01h1.72v6.01ZM195.09,199.85h-1.72v-6.01h1.72v6.01Z"/><path class="cls-20" d="M153.14,168.66c-1.19.01-2.15.98-2.15,2.17s.98,2.17,2.17,2.17,2.17-.97,2.17-2.17-.97-2.16-2.15-2.17h-.04Z"/><g class="cls-25"><rect class="cls-20" x="150.99" y="168.66" width="4.34" height="4.34"/></g><path class="cls-21" d="M158.37,167.41c0,.26.18.58.41.71l3.65,2.11c.23.13.47.27.53.31s.12.13.12.21v5.73c0,.08-.06.17-.12.21s-.31.18-.53.31l-3.9,2.25c-.23.13-.47.27-.53.31s-.18.04-.24,0-.31-.18-.53-.31l-3.66-2.11c-.23-.13-.6-.13-.82,0l-3.66,2.11c-.23.13-.47.27-.53.31s-.18.04-.25,0-.31-.18-.53-.31l-3.9-2.25c-.23-.13-.47-.27-.53-.31s-.12-.13-.12-.21v-5.73c0-.08.06-.17.12-.21s.31-.18.53-.31l3.65-2.11c.23-.13.41-.45.41-.71v-4.83c0-.08.06-.17.12-.21s.31-.18.53-.31l3.9-2.25c.23-.13.47-.27.53-.31s.18-.04.25,0,.31.18.53.31l3.9,2.25c.23.13.47.27.53.31s.12.13.12.21v4.83ZM153.16,167.09c1.05,0,2,.43,2.69,1.11l.12.12c.12.14.4.15.62.02l.39-.22c.23-.13.41-.45.41-.71v-3.94c0-.26-.18-.58-.41-.71l-3.41-1.97c-.23-.13-.6-.13-.82,0l-3.41,1.97c-.23.13-.41.45-.41.71v3.94c0,.26.18.58.41.72l.39.22c.23.13.51.12.62-.02l.12-.12c.69-.69,1.64-1.11,2.69-1.11M157.08,169.19c-.23.13-.35.44-.27.69,0,0,.15.49.15,1.01,0,1.05-.43,2-1.11,2.69-.58.58-1.75.94-1.75.94-.25.08-.45.35-.45.61v.45c0,.26.18.58.41.71l3.41,1.97c.23.13.6.13.82,0l3.41-1.97c.23-.13.41-.45.41-.71v-3.94c0-.26-.18-.58-.41-.71l-3.41-1.97c-.23-.13-.6-.13-.82,0l-.39.22ZM152.67,175.13c0-.26-.2-.54-.45-.61,0,0-1.17-.36-1.75-.94-.69-.69-1.11-1.64-1.11-2.69,0-.52.15-1.01.15-1.01.08-.25-.04-.56-.27-.69l-.39-.22c-.23-.13-.6-.13-.82,0l-3.41,1.97c-.23.13-.41.45-.41.71v3.94c0,.26.18.58.41.71l3.41,1.97c.23.13.6.13.82,0l3.41-1.97c.23-.13.41-.45.41-.71v-.45ZM155.15,168.9c-.51-.51-1.22-.83-2-.83s-1.49.32-2,.83c-.51.51-.83,1.22-.83,1.99s.32,1.48.83,1.99c.51.51,1.22.83,2,.83s1.49-.32,2-.83c.51-.51.83-1.22.83-1.99s-.32-1.48-.83-1.99"/></g></svg>