<?xml version="1.0" encoding="UTF-8"?>
<svg id="Layer_1" data-name="Layer 1" xmlns="http://www.w3.org/2000/svg" viewBox="0 0 90 90">
  <defs>
    <style>
      .cls-1 {
        fill: none;
        stroke: #71ffc5;
        stroke-linecap: round;
        stroke-linejoin: round;
        stroke-width: 6px;
      }
    </style>
  </defs>
  <path class="cls-1" d="M69.48,20.21l-7.71,7.72h0l-6.86,6.87h0c-2.53-2.53-6.01-4.09-9.87-4.09s-7.34,1.56-9.87,4.08l-6.86-6.86h0l-7.72-7.73c6.26-6.25,14.91-10.13,24.46-10.13s18.2,3.87,24.46,10.14Z"/>
  <path class="cls-1" d="M12.47,66.97c-5.69-5.67-9.21-13.54-9.21-22.22s3.52-16.55,9.21-22.23"/>
  <path class="cls-1" d="M77.54,22.53h0c5.68,5.68,9.2,13.54,9.2,22.22s-3.52,16.54-9.2,22.22"/>
  <path class="cls-1" d="M69.49,69.21c-6.26,6.26-14.91,10.14-24.47,10.14s-18.2-3.87-24.46-10.14l14.59-14.59c2.53,2.53,6.01,4.09,9.87,4.09s7.35-1.56,9.88-4.09l14.59,14.59Z"/>
  <path class="cls-1" d="M58.99,44.75c0,3.86-1.56,7.35-4.09,9.87-2.53,2.53-6.02,4.09-9.88,4.09s-7.34-1.56-9.87-4.09c-2.53-2.51-4.09-6.01-4.09-9.87s1.56-7.36,4.09-9.88c2.53-2.52,6.01-4.08,9.87-4.08s7.34,1.56,9.87,4.09h0c2.53,2.52,4.09,6.01,4.09,9.87Z"/>
</svg>