<?xml version="1.0" encoding="UTF-8"?><svg id="Layer_2" xmlns="http://www.w3.org/2000/svg" xmlns:xlink="http://www.w3.org/1999/xlink" viewBox="0 0 331.3 289.46"><defs><style>.cls-1,.cls-2,.cls-3,.cls-4,.cls-5,.cls-6,.cls-7,.cls-8,.cls-9,.cls-10,.cls-11,.cls-12,.cls-13,.cls-14,.cls-15,.cls-16,.cls-17,.cls-18,.cls-19,.cls-20,.cls-21,.cls-22{fill:none;}.cls-1,.cls-3,.cls-4,.cls-5,.cls-6,.cls-8,.cls-9,.cls-11,.cls-12,.cls-17,.cls-18,.cls-20,.cls-21,.cls-22{stroke-linecap:round;stroke-linejoin:round;}.cls-1,.cls-6,.cls-9,.cls-11,.cls-20,.cls-22{stroke:#9b9c9e;}.cls-1,.cls-11{stroke-width:1.16px;}.cls-2,.cls-3,.cls-23,.cls-24,.cls-25,.cls-16,.cls-26,.cls-27{stroke:#2b3edb;}.cls-2,.cls-23,.cls-7,.cls-10,.cls-24,.cls-25,.cls-13,.cls-14,.cls-15,.cls-16,.cls-19,.cls-26,.cls-27{stroke-miterlimit:10;}.cls-2,.cls-7,.cls-10,.cls-13,.cls-14,.cls-15,.cls-19,.cls-26,.cls-27{stroke-width:10px;}.cls-3{stroke-width:4.96px;}.cls-28{fill:#30bebc;}.cls-4{stroke-dasharray:0 5.46;}.cls-4,.cls-5,.cls-8,.cls-12,.cls-17,.cls-18,.cls-21{stroke:#33acff;stroke-width:3px;}.cls-29{fill:#fff;}.cls-23{fill:#0b115d;}.cls-5{stroke-dasharray:0 4.92;}.cls-30,.cls-24{fill:#33acff;}.cls-6{stroke-dasharray:0 4.31;}.cls-7{stroke:url(#linear-gradient-8);}.cls-8{stroke-dasharray:0 5.44;}.cls-9{stroke-dasharray:0 3.79;}.cls-10{stroke:url(#linear-gradient-4);}.cls-11{stroke-dasharray:0 5;}.cls-12{stroke-dasharray:0 4.56;}.cls-24,.cls-25,.cls-16{stroke-width:5px;}.cls-25{fill:url(#linear-gradient);}.cls-13{stroke:url(#linear-gradient-6);}.cls-14{stroke:url(#linear-gradient-9);}.cls-15{stroke:url(#linear-gradient-7);}.cls-17{stroke-dasharray:0 5;}.cls-18{stroke-dasharray:0 4.42;}.cls-19{stroke:url(#linear-gradient-5);}.cls-26{fill:url(#linear-gradient-2);}.cls-27{fill:url(#linear-gradient-3);}.cls-22{stroke-dasharray:0 4.34;}</style><linearGradient id="linear-gradient" x1="138.58" y1="12.57" x2="88.36" y2="97.54" gradientTransform="translate(-2.08 2.41) rotate(-.83)" gradientUnits="userSpaceOnUse"><stop offset="0" stop-color="#0018a8"/><stop offset=".4" stop-color="#30bebc"/><stop offset=".8" stop-color="#fcd151"/></linearGradient><linearGradient id="linear-gradient-2" x1="138.55" y1="140.75" x2="138.55" y2="140.75" xlink:href="#linear-gradient"/><linearGradient id="linear-gradient-3" x1="136.18" y1="117.03" x2="167.68" y2="117.03" xlink:href="#linear-gradient"/><linearGradient id="linear-gradient-4" x1="213.31" y1="152.47" x2="239.07" y2="198.53" gradientTransform="translate(-2.08 2.41) rotate(-.83)" gradientUnits="userSpaceOnUse"><stop offset=".2" stop-color="#fcd151"/><stop offset=".6" stop-color="#30bebc"/><stop offset=".8" stop-color="#325aff"/></linearGradient><linearGradient id="linear-gradient-5" x1="153.26" y1="188.17" x2="178.1" y2="232.61" xlink:href="#linear-gradient-4"/><linearGradient id="linear-gradient-6" x1="83.89" y1="137.51" x2="126.22" y2="213.2" gradientTransform="translate(-2.08 2.41) rotate(-.83)" gradientUnits="userSpaceOnUse"><stop offset=".2" stop-color="#325aff"/><stop offset=".4" stop-color="#30bebc"/><stop offset=".8" stop-color="#fcd151"/></linearGradient><linearGradient id="linear-gradient-7" x1="92.57" y1="82.73" x2="118.07" y2="128.35" xlink:href="#linear-gradient-4"/><linearGradient id="linear-gradient-8" x1="153.64" y1="48.43" x2="178.39" y2="92.7" xlink:href="#linear-gradient-4"/><linearGradient id="linear-gradient-9" x1="205.19" y1="67.94" x2="247.4" y2="143.44" xlink:href="#linear-gradient-6"/></defs><g id="Blocks"><line class="cls-16" x1="260.16" y1="82.08" x2="160.71" y2="26.73"/><line class="cls-16" x1="261.75" y1="196.45" x2="260.16" y2="82.08"/><line class="cls-24" x1="164.56" y1="254.53" x2="261.75" y2="196.45"/><line class="cls-24" x1="65.32" y1="198.26" x2="164.56" y2="254.53"/><line class="cls-24" x1="63.64" y1="84.91" x2="65.32" y2="198.26"/><line class="cls-25" x1="160.71" y1="26.73" x2="63.64" y2="84.91"/><circle class="cls-30" cx="258.75" cy="82.3" r="12"/><circle class="cls-28" cx="65.6" cy="86.75" r="12"/><circle class="cls-28" cx="259.5" cy="195.59" r="12"/><circle class="cls-30" cx="68.25" cy="198.35" r="12"/><circle class="cls-23" cx="162.33" cy="29.41" r="12"/><circle class="cls-23" cx="163.75" cy="251.62" r="12"/><line class="cls-26" x1="138.23" y1="122.69" x2="138.77" y2="159.6"/><line class="cls-27" x1="167.14" y1="107.91" x2="135.91" y2="126.55"/><line class="cls-2" x1="194.88" y1="126.02" x2="162.29" y2="107.76"/><line class="cls-2" x1="192.95" y1="158.82" x2="192.42" y2="121.91"/><line class="cls-2" x1="163.58" y1="173.23" x2="194.74" y2="154.63"/><line class="cls-2" x1="136.4" y1="155.21" x2="168.54" y2="173.16"/><line class="cls-10" x1="205.55" y1="212.33" x2="247.71" y2="136.91"/><line class="cls-19" x1="123.42" y1="211.01" x2="209.85" y2="209.76"/><line class="cls-13" x1="83.32" y1="139.05" x2="127.69" y2="213.41"/><line class="cls-15" x1="126.13" y1="68.86" x2="83.39" y2="143.98"/><line class="cls-7" x1="207.96" y1="69.94" x2="121.92" y2="71.19"/><line class="cls-14" x1="247.86" y1="141.9" x2="203.59" y2="67.74"/><line class="cls-20" x1="64.53" y1="44.7" x2="64.53" y2="44.7"/><line class="cls-6" x1="63.44" y1="48.87" x2="29.01" y2="180.2"/><line class="cls-20" x1="28.46" y1="182.29" x2="28.46" y2="182.29"/><line class="cls-6" x1="31.53" y1="185.32" x2="128.05" y2="280.8"/><line class="cls-20" x1="129.58" y1="282.31" x2="129.58" y2="282.31"/><line class="cls-6" x1="133.74" y1="281.17" x2="264.69" y2="245.33"/><line class="cls-20" x1="266.77" y1="244.76" x2="266.77" y2="244.76"/><line class="cls-6" x1="267.86" y1="240.59" x2="302.29" y2="109.26"/><line class="cls-20" x1="302.83" y1="107.17" x2="302.83" y2="107.17"/><line class="cls-6" x1="299.77" y1="104.14" x2="203.25" y2="8.66"/><line class="cls-20" x1="201.72" y1="7.14" x2="201.72" y2="7.14"/><line class="cls-6" x1="197.56" y1="8.28" x2="66.61" y2="44.13"/><line class="cls-20" x1="147.84" y1="77.87" x2="147.84" y2="77.87"/><line class="cls-22" x1="144.82" y1="80.98" x2="104.01" y2="122.99"/><line class="cls-20" x1="102.5" y1="124.54" x2="102.5" y2="124.54"/><line class="cls-22" x1="103.68" y1="128.71" x2="119.66" y2="185.05"/><line class="cls-20" x1="120.25" y1="187.14" x2="120.25" y2="187.14"/><line class="cls-22" x1="124.45" y1="188.2" x2="181.23" y2="202.54"/><line class="cls-20" x1="183.34" y1="203.07" x2="183.34" y2="203.07"/><line class="cls-22" x1="186.36" y1="199.96" x2="227.16" y2="157.96"/><line class="cls-20" x1="228.67" y1="156.4" x2="228.67" y2="156.4"/><line class="cls-22" x1="227.49" y1="152.23" x2="211.52" y2="95.89"/><line class="cls-20" x1="210.93" y1="93.8" x2="210.93" y2="93.8"/><line class="cls-22" x1="206.72" y1="92.74" x2="149.94" y2="78.4"/><line class="cls-20" x1="125.48" y1="151.84" x2="125.48" y2="151.84"/><line class="cls-9" x1="128.2" y1="154.48" x2="154.02" y2="179.57"/><line class="cls-20" x1="155.38" y1="180.89" x2="155.38" y2="180.89"/><line class="cls-9" x1="159.03" y1="179.85" x2="193.66" y2="170.03"/><line class="cls-20" x1="195.49" y1="169.52" x2="195.49" y2="169.52"/><line class="cls-9" x1="196.41" y1="165.84" x2="205.23" y2="130.94"/><line class="cls-20" x1="205.69" y1="129.1" x2="205.69" y2="129.1"/><line class="cls-9" x1="202.97" y1="126.46" x2="177.15" y2="101.38"/><line class="cls-20" x1="175.79" y1="100.06" x2="175.79" y2="100.06"/><line class="cls-9" x1="172.15" y1="101.09" x2="137.51" y2="110.91"/><line class="cls-20" x1="135.69" y1="111.43" x2="135.69" y2="111.43"/><line class="cls-9" x1="134.76" y1="115.1" x2="125.95" y2="150"/><line class="cls-1" x1="85.18" y1="288.88" x2="85.18" y2="288.88"/><line class="cls-11" x1="90.19" y1="288.8" x2="247.75" y2="286.52"/><line class="cls-1" x1="250.25" y1="286.49" x2="250.25" y2="286.49"/><line class="cls-11" x1="252.69" y1="282.12" x2="329.5" y2="144.52"/><line class="cls-1" x1="330.72" y1="142.34" x2="330.72" y2="142.34"/><line class="cls-11" x1="328.15" y1="138.04" x2="247.4" y2="2.73"/><line class="cls-1" x1="246.12" y1=".58" x2="246.12" y2=".58"/><line class="cls-11" x1="241.11" y1=".65" x2="83.55" y2="2.93"/><line class="cls-1" x1="81.05" y1="2.97" x2="81.05" y2="2.97"/><line class="cls-11" x1="78.61" y1="7.34" x2="1.8" y2="144.93"/><line class="cls-1" x1=".58" y1="147.12" x2=".58" y2="147.12"/><line class="cls-11" x1="3.14" y1="151.41" x2="83.9" y2="286.73"/><polyline class="cls-3" points="156.95 141.76 162.39 147.05 174.46 134.62"/><path class="cls-29" d="M161.77,35.68v-1.28c-2.09-.22-3.34-1.54-3.45-3.43h1.61c.08,1.31.88,2.14,2.43,2.14,1.28,0,2.28-.63,2.28-1.72,0-.9-.6-1.34-1.73-1.59l-1.42-.32c-1.43-.3-2.8-.96-2.8-2.87,0-1.64,1.26-2.9,3.09-3.12v-1.31h1.1v1.31c1.84.2,3.21,1.46,3.34,3.37h-1.61c-.08-1.21-.96-2.08-2.24-2.08s-2.06.74-2.06,1.72.83,1.37,1.76,1.58l1.42.3c1.72.36,2.85,1.13,2.85,2.8s-1.26,3.09-3.47,3.23v1.26h-1.1Z"/><path class="cls-29" d="M265.07,85.26v-.02l-4.96-9.15c-.4-.74-1.33-1.02-2.07-.61-.26.14-.47.35-.61.61l-4.97,9.15c-.41.74-.15,1.67.59,2.08.23.13.49.19.75.19h9.93c.84,0,1.53-.68,1.53-1.53,0-.26-.06-.51-.19-.73ZM258.08,78.64h1.35c.12,0,.22.1.21.22l-.35,4.89h-1.07l-.34-4.89c0-.12.09-.22.21-.22ZM258.75,86.01c-.56,0-.98-.39-.98-.93s.41-.94.98-.94.98.4.98.94-.42.93-.98.93Z"/><path class="cls-29" d="M73.99,200.59v-.02l-4.96-9.15c-.4-.74-1.33-1.02-2.07-.61-.26.14-.47.35-.61.61l-4.97,9.15c-.41.74-.15,1.67.59,2.08.23.13.49.19.75.19h9.93c.84,0,1.53-.68,1.53-1.53,0-.26-.06-.51-.19-.73ZM67,193.97h1.35c.12,0,.22.1.21.22l-.35,4.89h-1.07l-.34-4.89c0-.12.09-.22.21-.22ZM67.68,201.33c-.56,0-.98-.39-.98-.93s.41-.94.98-.94.98.4.98.94-.42.93-.98.93Z"/><g id="search-c"><path class="cls-29" d="M262.46,197.37l3.04,3.05c.21.21.21.56,0,.77-.21.21-.56.21-.77,0l-3.04-3.05c-.74.57-1.67.92-2.67.92-2.41,0-4.36-1.95-4.36-4.36s1.95-4.36,4.36-4.36,4.36,1.95,4.36,4.36c0,1.01-.34,1.93-.91,2.67ZM259.01,197.97c1.8,0,3.27-1.46,3.27-3.27s-1.46-3.27-3.27-3.27-3.27,1.46-3.27,3.27,1.46,3.27,3.27,3.27Z"/></g><path class="cls-29" d="M159.49,252.31c-.29,0-.53.24-.53.53v3.55c0,.29.24.53.53.53s.53-.24.53-.53v-3.55c0-.29-.24-.53-.53-.53Z"/><path class="cls-29" d="M162.33,250.18c-.29,0-.53.24-.53.53v5.68c0,.29.24.53.53.53s.53-.24.53-.53v-5.68c0-.29-.24-.53-.53-.53Z"/><path class="cls-29" d="M162.65,246.74c-.17-.13-.41-.14-.59-.03l-3.55,2.13c-.25.15-.33.48-.18.73.15.25.48.33.73.18l3.24-1.94,2.55,1.91c.19.15.46.14.65-.01l3.55-2.84c.23-.18.27-.52.08-.75-.18-.23-.52-.27-.75-.08l-3.23,2.58-2.51-1.88"/><path class="cls-29" d="M168.01,250.18c-.29,0-.53.24-.53.53v5.68c0,.29.24.53.53.53s.53-.24.53-.53v-5.68c0-.29-.24-.53-.53-.53Z"/><path class="cls-29" d="M165.17,252.31c-.29,0-.53.24-.53.53v3.55c0,.29.24.53.53.53s.53-.24.53-.53v-3.55c0-.29-.24-.53-.53-.53Z"/><path class="cls-29" d="M61.34,86.93c-.29,0-.53.24-.53.53v3.55c0,.29.24.53.53.53s.53-.24.53-.53v-3.55c0-.29-.24-.53-.53-.53Z"/><path class="cls-29" d="M64.18,84.8c-.29,0-.53.24-.53.53v5.68c0,.29.24.53.53.53s.53-.24.53-.53v-5.68c0-.29-.24-.53-.53-.53Z"/><path class="cls-29" d="M64.5,81.36c-.17-.13-.41-.14-.59-.03l-3.55,2.13c-.25.15-.33.48-.18.73.15.25.48.33.73.18l3.24-1.94,2.55,1.91c.19.15.46.14.65-.01l3.55-2.84c.23-.18.27-.52.08-.75-.18-.23-.52-.27-.75-.08l-3.23,2.58-2.51-1.88"/><path class="cls-29" d="M69.86,84.8c-.29,0-.53.24-.53.53v5.68c0,.29.24.53.53.53s.53-.24.53-.53v-5.68c0-.29-.24-.53-.53-.53Z"/><path class="cls-29" d="M67.02,86.93c-.29,0-.53.24-.53.53v3.55c0,.29.24.53.53.53s.53-.24.53-.53v-3.55c0-.29-.24-.53-.53-.53Z"/><line class="cls-21" x1="162.33" y1="43" x2="162.33" y2="43"/><line class="cls-12" x1="162.33" y1="47.56" x2="162.33" y2="58.95"/><line class="cls-21" x1="162.33" y1="61.23" x2="162.33" y2="61.23"/><polygon class="cls-30" points="159.34 60.35 162.33 65.53 165.32 60.35 159.34 60.35"/><line class="cls-21" x1="77.37" y1="92.77" x2="77.37" y2="92.77"/><line class="cls-4" x1="82.02" y1="95.64" x2="93.63" y2="102.79"/><line class="cls-21" x1="95.96" y1="104.23" x2="95.96" y2="104.23"/><polygon class="cls-30" points="93.64 106.31 99.62 106.49 96.78 101.22 93.64 106.31"/><line class="cls-21" x1="79.05" y1="192.44" x2="79.05" y2="192.44"/><line class="cls-8" x1="83.91" y1="189.99" x2="96.07" y2="183.88"/><line class="cls-21" x1="98.5" y1="182.65" x2="98.5" y2="182.65"/><polygon class="cls-30" points="99.06 185.72 102.34 180.72 96.37 180.37 99.06 185.72"/><line class="cls-21" x1="164.13" y1="239.41" x2="164.13" y2="239.41"/><line class="cls-5" x1="164.13" y1="234.48" x2="164.12" y2="222.18"/><line class="cls-21" x1="164.11" y1="219.71" x2="164.11" y2="219.71"/><polygon class="cls-30" points="167.1 220.59 164.11 215.41 161.12 220.59 167.1 220.59"/><line class="cls-21" x1="249.41" y1="189.15" x2="249.41" y2="189.15"/><line class="cls-18" x1="245.61" y1="186.89" x2="236.12" y2="181.24"/><line class="cls-21" x1="234.22" y1="180.11" x2="234.22" y2="180.11"/><polygon class="cls-30" points="236.5 177.99 230.52 177.91 233.44 183.13 236.5 177.99"/><line class="cls-17" x1="248.26" y1="88.31" x2="231.13" y2="98.06"/><polygon class="cls-30" points="230.41 95.02 227.38 100.19 233.37 100.22 230.41 95.02"/></g></svg>