<?xml version="1.0" encoding="UTF-8"?><svg id="Layer_2" xmlns="http://www.w3.org/2000/svg" xmlns:xlink="http://www.w3.org/1999/xlink" viewBox="0 0 236.71 194.65"><defs><style>.cls-1{fill:url(#linear-gradient-15);}.cls-2{fill:url(#linear-gradient-13);}.cls-3{fill:url(#linear-gradient-2);}.cls-4{fill:url(#linear-gradient-10);}.cls-5{fill:url(#linear-gradient-12);}.cls-6{fill:#fff;}.cls-7{fill:#33acff;}.cls-8{fill:url(#linear-gradient-4);}.cls-9{fill:url(#linear-gradient-3);}.cls-10{fill:url(#linear-gradient-5);}.cls-11{opacity:.75;}.cls-11,.cls-12,.cls-13,.cls-14{fill:none;}.cls-11,.cls-13,.cls-14{stroke:#9b9c9e;stroke-dasharray:0 3.8;stroke-linecap:round;stroke-linejoin:round;}.cls-15{fill:#0072be;}.cls-16{fill:url(#linear-gradient-8);}.cls-12{stroke:url(#linear-gradient-17);stroke-miterlimit:10;stroke-width:10px;}.cls-17{fill:url(#linear-gradient-14);}.cls-13{opacity:.5;}.cls-18{fill:url(#linear-gradient-7);}.cls-19{fill:url(#linear-gradient-9);}.cls-14{opacity:.25;}.cls-20{fill:url(#linear-gradient-11);}.cls-21{fill:url(#linear-gradient-6);}.cls-22{fill:url(#linear-gradient-16);}.cls-23{fill:url(#linear-gradient);}.cls-24{fill:url(#linear-gradient-18);}</style><linearGradient id="linear-gradient" x1="41.94" y1="18.09" x2="41.94" y2="-2.89" gradientUnits="userSpaceOnUse"><stop offset=".09" stop-color="#fcd151"/><stop offset=".44" stop-color="#30bebc"/><stop offset=".9" stop-color="#325aff"/></linearGradient><linearGradient id="linear-gradient-2" x1="163.78" x2="163.78" xlink:href="#linear-gradient"/><linearGradient id="linear-gradient-3" x1="224.71" x2="224.71" xlink:href="#linear-gradient"/><linearGradient id="linear-gradient-4" x1="102.76" x2="102.76" xlink:href="#linear-gradient"/><linearGradient id="linear-gradient-5" y1="72.69" y2="51.7" xlink:href="#linear-gradient"/><linearGradient id="linear-gradient-6" x1="91.06" y1="62.98" x2="114.66" y2="62.98" gradientUnits="userSpaceOnUse"><stop offset=".2" stop-color="#325aff"/><stop offset=".4" stop-color="#30bebc"/><stop offset=".8" stop-color="#fcd151"/></linearGradient><linearGradient id="linear-gradient-7" x1="224.71" y1="72.69" x2="224.71" y2="51.7" xlink:href="#linear-gradient"/><linearGradient id="linear-gradient-8" y1="127.28" y2="106.29" xlink:href="#linear-gradient"/><linearGradient id="linear-gradient-9" x1="102.86" y1="127.28" x2="102.86" y2="106.29" xlink:href="#linear-gradient"/><linearGradient id="linear-gradient-10" x1="163.78" y1="127.28" x2="163.78" y2="106.29" xlink:href="#linear-gradient"/><linearGradient id="linear-gradient-11" x1="224.71" y1="127.28" x2="224.71" y2="106.29" xlink:href="#linear-gradient"/><linearGradient id="linear-gradient-12" y1="181.87" y2="160.89" xlink:href="#linear-gradient"/><linearGradient id="linear-gradient-13" x1="102.86" y1="181.87" x2="102.86" y2="160.89" xlink:href="#linear-gradient"/><linearGradient id="linear-gradient-14" x1="163.78" y1="181.87" x2="163.78" y2="160.89" xlink:href="#linear-gradient"/><linearGradient id="linear-gradient-15" x1="224.71" y1="181.87" x2="224.71" y2="160.89" xlink:href="#linear-gradient"/><linearGradient id="linear-gradient-16" x1="142.39" y1="69.08" x2="291.51" y2="69.08" gradientUnits="userSpaceOnUse"><stop offset="0" stop-color="#325aff"/><stop offset=".4" stop-color="#30bebc"/><stop offset=".8" stop-color="#fcd151"/></linearGradient><linearGradient id="linear-gradient-17" x1=".08" y1="91.77" x2="144.47" y2="90.45" xlink:href="#linear-gradient-6"/><linearGradient id="linear-gradient-18" x1=".04" y1="88.24" x2="144.44" y2="86.92" xlink:href="#linear-gradient-6"/></defs><g id="Blocks"><circle class="cls-11" cx="164.39" cy="70.4" r="33.27"/><circle class="cls-13" cx="164.39" cy="70.4" r="41.21"/><circle class="cls-14" cx="164.39" cy="70.4" r="51.04"/><polygon class="cls-23" points="42.15 16.77 30.13 8.71 41.97 0 53.74 8.17 42.15 16.77"/><polygon class="cls-7" points="42.16 16.78 42.36 30.87 30.47 22.76 30.22 8.65 42.16 16.78"/><polygon class="cls-15" points="42.16 16.78 42.36 30.87 53.94 22.28 53.84 8.18 42.16 16.78"/><polygon class="cls-3" points="164 16.77 151.98 8.71 163.82 0 175.59 8.17 164 16.77"/><polygon class="cls-7" points="164.01 16.78 164.21 30.87 152.32 22.76 152.07 8.65 164.01 16.78"/><polygon class="cls-15" points="164.01 16.78 164.21 30.87 175.79 22.28 175.69 8.18 164.01 16.78"/><polygon class="cls-9" points="224.92 16.77 212.9 8.71 224.74 0 236.51 8.17 224.92 16.77"/><polygon class="cls-7" points="224.93 16.78 225.13 30.87 213.24 22.76 212.99 8.65 224.93 16.78"/><polygon class="cls-15" points="224.93 16.78 225.13 30.87 236.71 22.28 236.61 8.18 224.93 16.78"/><polygon class="cls-8" points="102.98 16.77 90.96 8.71 102.8 0 114.56 8.17 102.98 16.77"/><polygon class="cls-7" points="102.98 16.78 103.18 30.87 91.3 22.76 91.05 8.65 102.98 16.78"/><polygon class="cls-15" points="102.98 16.78 103.18 30.87 114.76 22.28 114.67 8.18 102.98 16.78"/><polygon class="cls-10" points="42.15 71.37 30.13 63.31 41.97 54.59 53.74 62.76 42.15 71.37"/><polygon class="cls-7" points="42.16 71.37 42.36 85.47 30.47 77.35 30.22 63.25 42.16 71.37"/><polygon class="cls-15" points="42.16 71.37 42.36 85.47 53.94 76.88 53.84 62.77 42.16 71.37"/><polygon class="cls-21" points="103.08 71.37 91.06 63.31 102.9 54.59 114.66 62.76 103.08 71.37"/><polygon class="cls-7" points="103.08 71.37 103.28 85.47 91.4 77.35 91.15 63.25 103.08 71.37"/><polygon class="cls-15" points="103.08 71.37 103.28 85.47 114.86 76.88 114.77 62.77 103.08 71.37"/><polygon class="cls-18" points="224.92 71.37 212.9 63.31 224.74 54.59 236.51 62.76 224.92 71.37"/><polygon class="cls-7" points="224.93 71.37 225.13 85.47 213.24 77.35 212.99 63.25 224.93 71.37"/><polygon class="cls-15" points="224.93 71.37 225.13 85.47 236.71 76.88 236.61 62.77 224.93 71.37"/><polygon class="cls-16" points="42.15 125.96 30.13 117.9 41.97 109.19 53.74 117.36 42.15 125.96"/><polygon class="cls-7" points="42.16 125.96 42.36 140.06 30.47 131.95 30.22 117.84 42.16 125.96"/><polygon class="cls-15" points="42.16 125.96 42.36 140.06 53.94 131.47 53.84 117.37 42.16 125.96"/><polygon class="cls-19" points="103.08 125.96 91.06 117.9 102.9 109.19 114.66 117.36 103.08 125.96"/><polygon class="cls-7" points="103.08 125.96 103.28 140.06 91.4 131.95 91.15 117.84 103.08 125.96"/><polygon class="cls-15" points="103.08 125.96 103.28 140.06 114.86 131.47 114.77 117.37 103.08 125.96"/><polygon class="cls-4" points="164 125.96 151.98 117.9 163.82 109.19 175.59 117.36 164 125.96"/><polygon class="cls-7" points="164.01 125.96 164.21 140.06 152.32 131.95 152.07 117.84 164.01 125.96"/><polygon class="cls-15" points="164.01 125.96 164.21 140.06 175.79 131.47 175.69 117.37 164.01 125.96"/><polygon class="cls-20" points="224.92 125.96 212.9 117.9 224.74 109.19 236.51 117.36 224.92 125.96"/><polygon class="cls-7" points="224.93 125.96 225.13 140.06 213.24 131.95 212.99 117.84 224.93 125.96"/><polygon class="cls-15" points="224.93 125.96 225.13 140.06 236.71 131.47 236.61 117.37 224.93 125.96"/><polygon class="cls-5" points="42.15 180.55 30.13 172.49 41.97 163.78 53.74 171.95 42.15 180.55"/><polygon class="cls-7" points="42.16 180.56 42.36 194.65 30.47 186.54 30.22 172.43 42.16 180.56"/><polygon class="cls-15" points="42.16 180.56 42.36 194.65 53.94 186.06 53.84 171.96 42.16 180.56"/><polygon class="cls-2" points="103.08 180.55 91.06 172.49 102.9 163.78 114.66 171.95 103.08 180.55"/><polygon class="cls-7" points="103.08 180.56 103.28 194.65 91.4 186.54 91.15 172.43 103.08 180.56"/><polygon class="cls-15" points="103.08 180.56 103.28 194.65 114.86 186.06 114.77 171.96 103.08 180.56"/><polygon class="cls-17" points="164 180.55 151.98 172.49 163.82 163.78 175.59 171.95 164 180.55"/><polygon class="cls-7" points="164.01 180.56 164.21 194.65 152.32 186.54 152.07 172.43 164.01 180.56"/><polygon class="cls-15" points="164.01 180.56 164.21 194.65 175.79 186.06 175.69 171.96 164.01 180.56"/><polygon class="cls-1" points="224.92 180.55 212.9 172.49 224.74 163.78 236.51 171.95 224.92 180.55"/><polygon class="cls-7" points="224.93 180.56 225.13 194.65 213.24 186.54 212.99 172.43 224.93 180.56"/><polygon class="cls-15" points="224.93 180.56 225.13 194.65 236.71 186.06 236.61 171.96 224.93 180.56"/><circle class="cls-22" cx="164.39" cy="69.08" r="22"/><polygon class="cls-6" points="155.82 71.94 155.82 73.37 159.09 73.37 154.39 78.07 155.4 79.08 160.1 74.38 160.1 77.65 161.53 77.65 161.53 71.94 155.82 71.94"/><rect class="cls-6" x="170.1" y="72.65" width="1.43" height="3.57"/><rect class="cls-6" x="167.25" y="69.08" width="1.43" height="7.14"/><rect class="cls-6" x="164.39" y="70.51" width="1.43" height="5.71"/><path class="cls-6" d="M172.96,59.08h-17.14c-.79,0-1.43.64-1.43,1.43v8.57h1.43v-2.14h17.14v10.71s-8.57,0-8.57,0v1.43h8.57c.79,0,1.43-.64,1.43-1.43v-17.14c0-.79-.64-1.43-1.43-1.43ZM161.53,65.51h-5.71v-5h5.71v5ZM162.96,65.51v-5h10v5s-10,0-10,0Z"/><path class="cls-12" d="M2.42,79.03c22.29,12.3,44.83,22.25,62.72,23.76,29.98,2.52,52.07-7.93,64.4-16.1"/><polygon class="cls-24" points="133.19 96.21 140.77 77.76 121.01 80.41 133.19 96.21"/></g></svg>