<?xml version="1.0" encoding="UTF-8"?>
<svg id="Layer_1" data-name="Layer 1" xmlns="http://www.w3.org/2000/svg" viewBox="0 0 90 90">
  <defs>
    <style>
      .cls-1 {
        fill: none;
        stroke: #71ffc5;
        stroke-linecap: round;
        stroke-linejoin: round;
        stroke-width: 6px;
      }
    </style>
  </defs>
  <g>
    <path class="cls-1" d="M83.18,17.15l-9.55,61.9c-.74,4.75-5.18,8.01-9.93,7.27l-17.61-2.72h11.09c4.8,0,8.7-3.89,8.7-8.69V12.27c0-2.98-1.5-5.62-3.8-7.18l13.83,2.13c4.75.73,8,5.17,7.27,9.92Z"/>
    <path class="cls-1" d="M65.87,12.27v62.64c0,4.8-3.89,8.69-8.7,8.69H15.42c-4.8,0-8.7-3.9-8.7-8.7V18.83c5.96-5.96,9.29-9.29,15.25-15.25h35.21c1.82,0,3.51.56,4.9,1.52,2.3,1.56,3.8,4.19,3.8,7.18Z"/>
  </g>
  <polyline class="cls-1" points="26.81 41.78 33.89 48.85 49.85 36.12"/>
</svg>