<?xml version="1.0" encoding="UTF-8"?>
<svg id="Layer_1" data-name="Layer 1" xmlns="http://www.w3.org/2000/svg" xmlns:xlink="http://www.w3.org/1999/xlink" viewBox="0 0 90 90">
  <defs>
    <style>
      .cls-1 {
        stroke: url(#linear-gradient-3);
      }

      .cls-1, .cls-2, .cls-3, .cls-4 {
        fill: none;
        stroke-linecap: round;
        stroke-linejoin: round;
        stroke-width: 6px;
      }

      .cls-2 {
        stroke: url(#linear-gradient-4);
      }

      .cls-3 {
        stroke: url(#linear-gradient);
      }

      .cls-4 {
        stroke: url(#linear-gradient-2);
      }
    </style>
    <linearGradient id="linear-gradient" x1="1.32" y1="25.27" x2="87.89" y2="25.27" gradientUnits="userSpaceOnUse">
      <stop offset="0" stop-color="#2b3edb"/>
      <stop offset=".97" stop-color="#8efecc"/>
    </linearGradient>
    <linearGradient id="linear-gradient-2" x1="11.55" y1="77.4" x2="29.65" y2="77.4" xlink:href="#linear-gradient"/>
    <linearGradient id="linear-gradient-3" x1="32.87" y1="71.89" x2="50.97" y2="71.89" xlink:href="#linear-gradient"/>
    <linearGradient id="linear-gradient-4" x1="55.35" y1="61.89" x2="73.46" y2="61.89" xlink:href="#linear-gradient"/>
  </defs>
  <path class="cls-3" d="M84.89,33.14c0,4.9-2.06,9.32-5.36,12.44-.71.68-1.68,1.03-2.66,1.03h-6.41v-8.89h-12.11v8.89H5.38c-1.78-4.82-1.44-10.65,2.09-16.45.96-1.57,2.3-2.87,3.9-3.79,4.16-2.4,8.76-3.24,12.84-2.57,2.75-4.21,7.31-7.13,12.56-7.68,2.12-7.04,8.66-12.17,16.4-12.17s14.27,5.13,16.4,12.17c8.62.9,15.33,8.18,15.33,17.03Z"/>
  <rect class="cls-4" x="14.55" y="68.74" width="12.1" height="17.33"/>
  <rect class="cls-1" x="35.87" y="57.71" width="12.1" height="28.35"/>
  <rect class="cls-2" x="58.35" y="37.72" width="12.11" height="48.34"/>
</svg>