<?xml version="1.0" encoding="UTF-8"?>
<svg id="Layer_1" data-name="Layer 1" xmlns="http://www.w3.org/2000/svg" viewBox="0 0 90 90">
  <defs>
    <style>
      .cls-1 {
        fill: none;
        stroke: #71ffc5;
        stroke-linecap: round;
        stroke-linejoin: round;
        stroke-width: 6px;
      }
    </style>
  </defs>
  <path class="cls-1" d="M85.19,33.17c0,4.89-2.06,9.29-5.34,12.41-.71.68-1.67,1.03-2.66,1.03h-6.4v-8.87h-12.08v8.87H5.87c-1.78-4.81-1.43-10.63,2.09-16.41.95-1.56,2.3-2.87,3.89-3.78,4.15-2.39,8.74-3.24,12.81-2.57,2.75-4.2,7.29-7.12,12.53-7.66,2.12-7.03,8.64-12.15,16.36-12.15s14.24,5.12,16.36,12.15c8.59.89,15.29,8.16,15.29,16.99Z"/>
  <rect class="cls-1" x="15.01" y="68.68" width="12.07" height="17.28"/>
  <rect class="cls-1" x="36.29" y="57.68" width="12.07" height="28.28"/>
  <rect class="cls-1" x="58.71" y="37.74" width="12.08" height="48.23"/>
</svg>