<?xml version="1.0" encoding="UTF-8"?>
<svg id="Layer_1" data-name="Layer 1" xmlns="http://www.w3.org/2000/svg" viewBox="0 0 90 90">
  <defs>
    <style>
      .cls-1 {
        fill: none;
        stroke: #71ffc5;
        stroke-linecap: round;
        stroke-linejoin: round;
        stroke-width: 6px;
      }
    </style>
  </defs>
  <path class="cls-1" d="M55.45,45.26V13.06c0-3.48-2.82-6.3-6.3-6.3H16.69c-3.48,0-6.3,2.82-6.3,6.3v39.63c0,3.48,2.82,6.3,6.3,6.3h21.73"/>
  <path class="cls-1" d="M55.45,44.61v-13.52c13.5,1,24.15,12.28,24.15,26.04s-11.69,26.11-26.11,26.11-25.1-10.7-26.05-24.26h11.61"/>
  <polygon class="cls-1" points="68.67 58.35 61.11 71.44 46.01 71.44 38.45 58.35 46.01 45.27 61.11 45.27 68.67 58.35"/>
  <polygon class="cls-1" points="45.25 40.28 20.6 40.28 32.92 18.93 42.03 34.71 45.25 40.28"/>
</svg>