<?xml version="1.0" encoding="UTF-8"?><svg id="Layer_2" xmlns="http://www.w3.org/2000/svg" xmlns:xlink="http://www.w3.org/1999/xlink" viewBox="0 0 247.36 285.47"><defs><style>.cls-1{stroke:url(#linear-gradient-14);}.cls-1,.cls-2,.cls-3,.cls-4,.cls-5,.cls-6,.cls-7,.cls-8,.cls-9,.cls-10,.cls-11,.cls-12{stroke-miterlimit:10;stroke-width:10px;}.cls-1,.cls-13,.cls-14,.cls-3,.cls-5,.cls-6,.cls-7,.cls-8,.cls-9,.cls-10,.cls-11,.cls-15,.cls-16{fill:none;}.cls-17{fill:#fcd151;}.cls-2{fill:url(#linear-gradient-8);stroke:url(#linear-gradient-9);}.cls-18{fill:#30bebc;}.cls-13{stroke-dasharray:0 4.31;}.cls-13,.cls-14,.cls-15,.cls-16{stroke:#9b9c9e;stroke-linecap:round;stroke-linejoin:round;}.cls-14{stroke-dasharray:0 3.79;}.cls-3{stroke:url(#linear-gradient-10);}.cls-4{fill:url(#linear-gradient);stroke:url(#linear-gradient-2);}.cls-5{stroke:url(#linear-gradient-12);}.cls-6{stroke:url(#linear-gradient-6);}.cls-7{stroke:url(#linear-gradient-11);}.cls-8{stroke:url(#linear-gradient-13);}.cls-9{stroke:url(#linear-gradient-7);}.cls-19{fill:#0018a8;}.cls-10{stroke:url(#linear-gradient-15);}.cls-11{stroke:url(#linear-gradient-5);}.cls-12{fill:url(#linear-gradient-3);stroke:url(#linear-gradient-4);}.cls-16{stroke-dasharray:0 4.34;}</style><linearGradient id="linear-gradient" x1="172.96" y1="56.15" x2="172.3" y2="57.28" gradientUnits="userSpaceOnUse"><stop offset="0" stop-color="#0018a8"/><stop offset=".4" stop-color="#30bebc"/><stop offset=".8" stop-color="#fcd151"/></linearGradient><linearGradient id="linear-gradient-2" x1="32.46" y1="163.6" x2="135.29" y2="163.6" gradientTransform="translate(274.49 -96.34) rotate(60.79)" gradientUnits="userSpaceOnUse"><stop offset=".2" stop-color="#325aff"/><stop offset=".4" stop-color="#30bebc"/><stop offset=".8" stop-color="#fcd151"/></linearGradient><linearGradient id="linear-gradient-3" x1="246.98" y1="99.9" x2="196.86" y2="184.7" xlink:href="#linear-gradient"/><linearGradient id="linear-gradient-4" x1="32.36" y1="152.74" x2="135.94" y2="152.74" gradientTransform="translate(396.22 147.57) rotate(120.59)" xlink:href="#linear-gradient-2"/><linearGradient id="linear-gradient-5" x1="22.1" y1="147.62" x2="125.14" y2="147.62" gradientTransform="translate(246.56 375.42) rotate(179.98)" xlink:href="#linear-gradient-2"/><linearGradient id="linear-gradient-6" x1="12.4" y1="152.52" x2="115.62" y2="152.52" gradientTransform="translate(-27.84 357.13) rotate(-118.94)" xlink:href="#linear-gradient-2"/><linearGradient id="linear-gradient-7" x1="13.41" y1="164.57" x2="116.53" y2="164.57" gradientTransform="translate(-149.56 115.63) rotate(-59.96)" xlink:href="#linear-gradient-2"/><linearGradient id="linear-gradient-8" x1="99.47" y1="14.23" x2="49.25" y2="99.19" xlink:href="#linear-gradient"/><linearGradient id="linear-gradient-9" x1="22.89" y1="170.32" x2="126.06" y2="170.32" gradientTransform="translate(-1.02 -113.21) rotate(-.31)" xlink:href="#linear-gradient-2"/><linearGradient id="linear-gradient-10" x1="12.55" y1="153.1" x2="115.78" y2="153.1" gradientTransform="translate(72.22 303.19) rotate(-119.98)" gradientUnits="userSpaceOnUse"><stop offset="0" stop-color="#325aff"/><stop offset=".4" stop-color="#30bebc"/><stop offset=".8" stop-color="#fcd151"/></linearGradient><linearGradient id="linear-gradient-11" x1="22.95" y1="170.11" x2="126.18" y2="170.11" gradientTransform="matrix(1,0,0,1,0,0)" xlink:href="#linear-gradient-10"/><linearGradient id="linear-gradient-12" x1="22.87" y1="148.04" x2="126.1" y2="148.04" gradientTransform="translate(246.57 261.61) rotate(-179.76)" xlink:href="#linear-gradient-10"/><linearGradient id="linear-gradient-13" x1="32.47" y1="153.58" x2="135.7" y2="153.58" gradientTransform="translate(298.56 88.44) rotate(119.82)" xlink:href="#linear-gradient-10"/><linearGradient id="linear-gradient-14" x1="32.45" y1="164.57" x2="135.68" y2="164.57" gradientTransform="translate(174.93 -41.73) rotate(59.96)" xlink:href="#linear-gradient-10"/><linearGradient id="linear-gradient-15" x1="12.55" y1="164.09" x2="115.78" y2="164.09" gradientTransform="translate(-50.46 173.26) rotate(-60.1)" xlink:href="#linear-gradient-10"/></defs><g id="Blocks"><line class="cls-4" x1="221.95" y1="85.11" x2="123.31" y2="28.32"/><line class="cls-12" x1="221.88" y1="199.49" x2="221.95" y2="85.11"/><line class="cls-11" x1="123.87" y1="256.16" x2="221.88" y2="199.49"/><line class="cls-6" x1="25.45" y1="198.46" x2="123.87" y2="256.16"/><line class="cls-9" x1="25.41" y1="85.1" x2="25.45" y2="198.46"/><line class="cls-2" x1="123.31" y1="28.32" x2="25.41" y2="85.1"/><line class="cls-15" x1=".5" y1="71.62" x2=".5" y2="71.62"/><line class="cls-13" x1=".5" y1="75.93" x2=".5" y2="211.7"/><line class="cls-15" x1=".5" y1="213.85" x2=".5" y2="213.85"/><line class="cls-13" x1="4.23" y1="216.01" x2="121.81" y2="283.89"/><line class="cls-15" x1="123.68" y1="284.97" x2="123.68" y2="284.97"/><line class="cls-13" x1="127.41" y1="282.81" x2="244.99" y2="214.93"/><line class="cls-15" x1="246.86" y1="213.85" x2="246.86" y2="213.85"/><line class="cls-13" x1="246.86" y1="209.54" x2="246.86" y2="73.77"/><line class="cls-15" x1="246.86" y1="71.62" x2="246.86" y2="71.62"/><line class="cls-13" x1="243.12" y1="69.46" x2="125.54" y2="1.58"/><line class="cls-15" x1="123.68" y1=".5" x2="123.68" y2=".5"/><line class="cls-13" x1="119.95" y1="2.66" x2="2.37" y2="70.54"/><line class="cls-15" x1="67.33" y1="110.2" x2="67.33" y2="110.2"/><line class="cls-16" x1="67.33" y1="114.54" x2="67.33" y2="173.1"/><line class="cls-15" x1="67.33" y1="175.27" x2="67.33" y2="175.27"/><line class="cls-16" x1="71.09" y1="177.44" x2="121.8" y2="206.72"/><line class="cls-15" x1="123.68" y1="207.8" x2="123.68" y2="207.8"/><line class="cls-16" x1="127.43" y1="205.63" x2="178.15" y2="176.35"/><line class="cls-15" x1="180.03" y1="175.27" x2="180.03" y2="175.27"/><line class="cls-16" x1="180.03" y1="170.93" x2="180.03" y2="112.37"/><line class="cls-15" x1="180.03" y1="110.2" x2="180.03" y2="110.2"/><line class="cls-16" x1="176.27" y1="108.03" x2="125.56" y2="78.75"/><line class="cls-15" x1="123.68" y1="77.67" x2="123.68" y2="77.67"/><line class="cls-16" x1="119.92" y1="79.84" x2="69.21" y2="109.12"/><line class="cls-15" x1="87.58" y1="121.89" x2="87.58" y2="121.89"/><line class="cls-14" x1="87.58" y1="125.68" x2="87.58" y2="161.68"/><line class="cls-15" x1="87.58" y1="163.58" x2="87.58" y2="163.58"/><line class="cls-14" x1="90.86" y1="165.47" x2="122.04" y2="183.47"/><line class="cls-15" x1="123.68" y1="184.42" x2="123.68" y2="184.42"/><line class="cls-14" x1="126.96" y1="182.52" x2="158.14" y2="164.52"/><line class="cls-15" x1="159.78" y1="163.58" x2="159.78" y2="163.58"/><line class="cls-14" x1="159.78" y1="159.79" x2="159.78" y2="123.79"/><line class="cls-15" x1="159.78" y1="121.89" x2="159.78" y2="121.89"/><line class="cls-14" x1="156.5" y1="120" x2="125.32" y2="102"/><line class="cls-15" x1="123.68" y1="101.05" x2="123.68" y2="101.05"/><line class="cls-14" x1="120.4" y1="102.94" x2="89.22" y2="120.94"/><line class="cls-3" x1="123.68" y1="142.73" x2="221.88" y2="199.49"/><line class="cls-7" x1="123.68" y1="141.75" x2="25.45" y2="198.46"/><line class="cls-5" x1="123.48" y1="141.4" x2="221.95" y2="85.11"/><line class="cls-8" x1="123.68" y1="141.75" x2="123.31" y2="28.32"/><line class="cls-1" x1="123.68" y1="141.75" x2="25.41" y2="85.1"/><line class="cls-10" x1="123.68" y1="142.73" x2="123.87" y2="256.16"/><circle class="cls-19" cx="123.87" cy="141.75" r="12"/><circle class="cls-17" cx="219.65" cy="85.11" r="12"/><circle class="cls-18" cx="27.35" cy="86.97" r="12"/><circle class="cls-18" cx="219.65" cy="198.6" r="12"/><circle class="cls-17" cx="28.38" cy="198.6" r="12"/><circle class="cls-19" cx="123.31" cy="31.01" r="12"/><circle class="cls-19" cx="123.68" cy="253.24" r="12"/></g></svg>