<svg width="610" height="189" viewBox="0 0 610 189" fill="none" xmlns="http://www.w3.org/2000/svg">
<path fill-rule="evenodd" clip-rule="evenodd" d="M141.061 74.91C141.061 77.25 142.721 80.12 144.741 81.28L177.491 100.17C179.511 101.34 181.671 102.58 182.281 102.93C182.891 103.28 183.391 104.14 183.391 104.83V156.17C183.391 156.86 182.891 157.72 182.281 158.07C181.671 158.42 179.511 159.67 177.491 160.83L142.531 181C140.511 182.17 138.361 183.41 137.751 183.76C137.151 184.11 136.161 184.11 135.561 183.76C134.961 183.41 132.811 182.17 130.781 181L98.0208 162.1C96.0008 160.93 92.6808 160.93 90.6608 162.1L57.9008 181C55.8808 182.17 53.7208 183.41 53.1208 183.76C52.5208 184.11 51.5208 184.11 50.9208 183.76C50.3208 183.41 48.1608 182.17 46.1408 181L11.1808 160.83C9.16077 159.66 7.00077 158.42 6.40077 158.07C5.80077 157.72 5.30078 156.87 5.30078 156.17V104.82C5.30078 104.13 5.80078 103.27 6.41078 102.92C7.02078 102.57 9.18078 101.33 11.2008 100.16L43.9508 81.27C45.9708 80.1 47.6308 77.23 47.6308 74.9V31.58C47.6308 30.89 48.1208 30.03 48.7308 29.68C49.3408 29.33 51.4908 28.09 53.5108 26.92L88.4708 6.75003C90.4908 5.58003 92.6508 4.34004 93.2508 3.99004C93.8508 3.64004 94.8408 3.64004 95.4508 3.99004C96.0608 4.34004 98.2108 5.58003 100.231 6.75003L135.191 26.92C137.211 28.09 139.371 29.33 139.971 29.68C140.571 30.03 141.071 30.88 141.071 31.58V74.9L141.061 74.91ZM94.3408 72.02C103.761 72.02 112.281 75.83 118.451 82L119.521 83.07C120.571 84.35 123.091 84.45 125.121 83.28L128.591 81.28C130.611 80.11 132.271 77.24 132.271 74.91V39.64C132.271 37.3 130.611 34.43 128.591 33.27L98.0308 15.64C96.0108 14.47 92.6908 14.47 90.6708 15.64L60.1108 33.27C58.0908 34.44 56.4308 37.31 56.4308 39.64V74.91C56.4308 77.25 58.0808 80.13 60.0908 81.32L63.5808 83.28C65.6008 84.45 68.1208 84.35 69.1808 83.07L70.2508 82C76.4208 75.83 84.9508 72.02 94.3608 72.02M129.511 90.87C127.491 92.04 126.391 94.82 127.081 97.05C127.081 97.05 128.441 101.45 128.441 106.09C128.441 115.5 124.621 124.01 118.451 130.18C113.261 135.37 102.801 138.62 102.801 138.62C100.571 139.31 98.7408 141.79 98.7408 144.13V148.14C98.7408 150.48 100.401 153.35 102.421 154.51L132.991 172.14C135.011 173.31 138.331 173.31 140.351 172.14L170.901 154.52C172.921 153.35 174.581 150.48 174.581 148.15V112.86C174.581 110.52 172.921 107.65 170.901 106.49L140.351 88.87C138.331 87.7 135.011 87.7 132.991 88.87L129.511 90.88V90.87ZM89.9308 144.13C89.9308 141.79 88.1008 139.31 85.8708 138.62C85.8708 138.62 75.4108 135.37 70.2208 130.18C64.0508 124.01 60.2308 115.5 60.2308 106.09C60.2308 101.45 61.5908 97.05 61.5908 97.05C62.2808 94.82 61.1908 92.03 59.1608 90.87L55.6808 88.86C53.6608 87.69 50.3408 87.69 48.3208 88.86L17.7608 106.48C15.7408 107.65 14.0808 110.52 14.0808 112.85V148.13C14.0808 150.47 15.7408 153.34 17.7608 154.5L48.3208 172.13C50.3408 173.3 53.6608 173.3 55.6808 172.13L86.2408 154.5C88.2608 153.33 89.9208 150.46 89.9208 148.13V144.12L89.9308 144.13ZM112.231 88.22C107.651 83.65 101.331 80.82 94.3408 80.82C87.3508 80.82 81.0308 83.65 76.4508 88.22C71.8708 92.79 69.0408 99.11 69.0408 106.09C69.0408 113.07 71.8708 119.39 76.4508 123.96C81.0308 128.53 87.3508 131.36 94.3408 131.36C101.331 131.36 107.651 128.53 112.231 123.96C116.811 119.39 119.641 113.07 119.641 106.09C119.641 99.11 116.811 92.79 112.231 88.22Z" fill="#505050"/>
<path d="M355.511 108.74L328.691 82.65L302.141 108.74H287.631L321.921 75.54L290.091 44.89H305.481L329.831 68.52L353.831 44.89H368.341L336.511 75.54L371.151 108.74H355.501H355.511Z" fill="#505050"/>
<path d="M605.281 147.66H565.221V148.83H605.281V147.66Z" fill="#505050"/>
<path d="M250.801 147.66H211.051V148.83H250.801V147.66Z" fill="#505050"/>
<path d="M260.531 135.4C260.531 135.01 260.841 134.66 261.271 134.66H270.121C274.901 134.66 278.821 138.54 278.821 143.23C278.821 147.92 274.901 151.96 270.161 151.96H264.531V161.07C264.531 161.46 264.181 161.81 263.791 161.81H261.271C260.841 161.81 260.531 161.46 260.531 161.07V135.39V135.4ZM269.891 148.16C272.571 148.16 274.821 145.99 274.821 143.2C274.821 140.56 272.571 138.55 269.891 138.55H264.531V148.17H269.891V148.16Z" fill="#505050"/>
<path d="M294.161 160.81L306.081 134.71C306.201 134.48 306.551 134.28 306.741 134.28H307.131C307.321 134.28 307.671 134.47 307.791 134.71L319.631 160.81C319.861 161.31 319.551 161.82 318.971 161.82H316.521C316.051 161.82 315.781 161.59 315.631 161.24L313.221 155.93H300.521C299.741 157.71 298.931 159.46 298.151 161.24C298.031 161.51 297.721 161.82 297.261 161.82H294.811C294.231 161.82 293.921 161.32 294.151 160.81H294.161ZM311.741 152.59L306.961 141.96H306.771L302.031 152.59H311.741Z" fill="#505050"/>
<path d="M339.041 135.4C339.041 135.01 339.351 134.66 339.781 134.66H350.341C355.001 134.66 358.801 138.34 358.801 142.96C358.801 146.53 356.431 149.48 353.051 150.83L358.371 160.68C358.641 161.18 358.371 161.81 357.711 161.81H354.681C354.371 161.81 354.141 161.62 354.061 161.46L348.901 151.18H343.041V161.07C343.041 161.46 342.691 161.81 342.301 161.81H339.781C339.351 161.81 339.041 161.46 339.041 161.07V135.39V135.4ZM350.031 147.85C352.551 147.85 354.771 145.72 354.771 143.04C354.771 140.52 352.561 138.42 350.031 138.42H343.121V147.84H350.031V147.85Z" fill="#505050"/>
<path d="M384.121 138.31H377.791C377.361 138.31 377.051 137.96 377.051 137.57V135.4C377.051 135.01 377.361 134.66 377.791 134.66H394.481C394.911 134.66 395.221 135.01 395.221 135.4V137.57C395.221 137.96 394.911 138.31 394.481 138.31H388.151V161.08C388.151 161.47 387.801 161.82 387.411 161.82H384.851C384.461 161.82 384.111 161.47 384.111 161.08V138.31H384.121Z" fill="#505050"/>
<path d="M414.942 134.98C414.942 134.59 415.292 134.28 415.682 134.28H416.652L433.502 153.75H433.542V135.4C433.542 135.01 433.852 134.66 434.282 134.66H436.762C437.152 134.66 437.502 135.01 437.502 135.4V161.5C437.502 161.89 437.152 162.2 436.762 162.2H435.752L418.902 142.19H418.862V161.08C418.862 161.47 418.552 161.82 418.122 161.82H415.672C415.282 161.82 414.932 161.47 414.932 161.08V134.98H414.942Z" fill="#505050"/>
<path d="M460.57 135.4C460.57 135.01 460.88 134.66 461.31 134.66H476.84C477.27 134.66 477.58 135.01 477.58 135.4V137.57C477.58 137.96 477.27 138.31 476.84 138.31H464.57V146.22H474.94C475.33 146.22 475.68 146.57 475.68 146.96V149.13C475.68 149.56 475.33 149.87 474.94 149.87H464.57V158.21H476.84C477.27 158.21 477.58 158.56 477.58 158.95V161.08C477.58 161.47 477.27 161.82 476.84 161.82H461.31C460.88 161.82 460.57 161.47 460.57 161.08V135.4Z" fill="#505050"/>
<path d="M498.961 135.4C498.961 135.01 499.271 134.66 499.701 134.66H510.261C514.921 134.66 518.721 138.34 518.721 142.96C518.721 146.53 516.351 149.48 512.971 150.83L518.291 160.68C518.561 161.18 518.291 161.81 517.631 161.81H514.601C514.291 161.81 514.061 161.62 513.981 161.46L508.821 151.18H502.961V161.07C502.961 161.46 502.611 161.81 502.221 161.81H499.701C499.271 161.81 498.961 161.46 498.961 161.07V135.39V135.4ZM509.951 147.85C512.471 147.85 514.691 145.72 514.691 143.04C514.691 140.52 512.481 138.42 509.951 138.42H503.041V147.84H509.951V147.85Z" fill="#505050"/>
<path d="M538.571 157.9C538.921 157.4 539.231 156.81 539.581 156.31C539.931 155.81 540.471 155.65 540.901 156C541.131 156.19 544.121 158.68 547.111 158.68C549.791 158.68 551.501 157.05 551.501 155.07C551.501 152.74 549.481 151.27 545.641 149.68C541.681 148.01 538.571 145.96 538.571 141.46C538.571 138.44 540.901 134.29 547.071 134.29C550.951 134.29 553.861 136.31 554.251 136.58C554.561 136.77 554.871 137.32 554.481 137.9C554.171 138.37 553.821 138.91 553.511 139.37C553.201 139.87 552.701 140.11 552.151 139.76C551.881 139.6 549.161 137.82 546.911 137.82C543.651 137.82 542.521 139.88 542.521 141.31C542.521 143.52 544.231 144.88 547.451 146.2C551.951 148.02 555.801 150.16 555.801 154.89C555.801 158.92 552.191 162.22 547.141 162.22C542.401 162.22 539.411 159.74 538.791 159.16C538.441 158.85 538.171 158.58 538.561 157.92L538.571 157.9Z" fill="#505050"/>
<path d="M242.091 108.74C237.641 108.74 233.521 107.91 229.741 106.24C225.961 104.57 222.681 102.29 219.891 99.39C217.101 96.49 214.941 93.05 213.381 89.07C211.831 85.09 211.051 80.79 211.051 76.16C211.051 71.53 211.831 67.2 213.381 63.34C214.931 59.48 217.101 56.18 219.891 53.46C222.671 50.74 225.961 48.63 229.741 47.14C233.521 45.65 237.641 44.9 242.091 44.9H257.651C262.281 44.9 266.511 45.66 270.351 47.18C274.191 48.7 277.491 50.84 280.241 53.59C282.991 56.34 285.131 59.64 286.661 63.47C288.181 67.31 288.951 71.54 288.951 76.16C288.951 80.78 288.171 85.09 286.621 89.07C285.071 93.05 282.901 96.49 280.111 99.39C277.321 102.29 274.031 104.57 270.221 106.24C266.411 107.91 262.221 108.74 257.651 108.74H242.091ZM257.651 97.59C260.581 97.59 263.281 97.06 265.741 96.01C268.201 94.96 270.331 93.51 272.111 91.66C273.901 89.82 275.291 87.61 276.291 85.03C277.291 82.45 277.781 79.67 277.781 76.69C277.781 73.71 277.281 70.94 276.291 68.39C275.291 65.84 273.901 63.66 272.111 61.85C270.321 60.04 268.201 58.62 265.741 57.59C263.281 56.57 260.581 56.05 257.651 56.05H242.091C239.221 56.05 236.571 56.56 234.131 57.59C231.701 58.61 229.601 60.04 227.841 61.85C226.081 63.67 224.701 65.83 223.711 68.35C222.711 70.87 222.221 73.65 222.221 76.69C222.221 79.73 222.721 82.46 223.711 85.03C224.711 87.61 226.081 89.82 227.841 91.66C229.601 93.5 231.691 94.95 234.131 96.01C236.561 97.06 239.211 97.59 242.091 97.59H257.651Z" fill="#505050"/>
<path d="M447.561 108.74L437.981 92.67H407.741L413.021 83.62H432.631L418.391 59.73L389.381 108.74H376.631L413.381 47.61C414.021 46.5 414.791 45.62 415.671 44.98C416.551 44.34 417.601 44.01 418.841 44.01C420.081 44.01 421.111 44.33 421.961 44.98C422.811 45.63 423.561 46.5 424.201 47.61L461.041 108.74H447.591H447.561Z" fill="#505050"/>
<path d="M480.001 62.02V108.75H469.361V50.78C469.361 48.73 469.871 47.11 470.901 45.9C471.921 44.7 473.321 44.1 475.081 44.1C475.901 44.1 476.691 44.28 477.451 44.63C478.211 44.98 479.001 45.57 479.821 46.39L524.921 91.1V44.37H535.561V102.87C535.561 104.98 535.051 106.62 534.021 107.79C532.991 108.96 531.661 109.55 530.021 109.55C528.201 109.55 526.501 108.76 524.921 107.18L479.991 62.03L480.001 62.02Z" fill="#505050"/>
<path d="M548.141 108.74V44.89H605.201V56.04H559.221V97.58H605.291V108.73H548.141V108.74ZM555.641 80.99V71.59H602.831V80.99H555.641Z" fill="#505050"/>
<path d="M413.02 83.62L407.75 92.67H437.97L432.61 83.62H413.02Z" fill="#2B3EDB"/>
<mask id="mask0_4226_4" style="mask-type:luminance" maskUnits="userSpaceOnUse" x="74" y="86" width="40" height="40">
<path d="M94.1396 86.66C83.4996 86.75 74.8496 95.45 74.8496 106.11C74.8496 116.77 83.5896 125.56 94.3096 125.56C105.03 125.56 113.77 116.82 113.77 106.11C113.77 95.4 105.12 86.76 94.4796 86.66H94.1296H94.1396Z" fill="white"/>
</mask>
<g mask="url(#mask0_4226_4)">
<path d="M114.099 125.54L74.9493 125.97L74.7793 86.6201L113.929 86.1901L114.099 125.54Z" fill="url(#paint0_radial_4226_4)"/>
</g>
<defs>
<radialGradient id="paint0_radial_4226_4" cx="0" cy="0" r="1" gradientUnits="userSpaceOnUse" gradientTransform="translate(91.7085 98.2593) scale(27.17 27.17)">
<stop stop-color="#33ACFF"/>
<stop offset="0.23" stop-color="#308AF3"/>
<stop offset="0.63" stop-color="#2C53E1"/>
<stop offset="0.82" stop-color="#2B3EDB"/>
</radialGradient>
</defs>
</svg>
