<?xml version="1.0" encoding="UTF-8"?>
<svg id="Layer_1" data-name="Layer 1" xmlns="http://www.w3.org/2000/svg" xmlns:xlink="http://www.w3.org/1999/xlink" viewBox="0 0 90 90">
  <defs>
    <style>
      .cls-1 {
        stroke: url(#linear-gradient-3);
      }

      .cls-1, .cls-2, .cls-3, .cls-4, .cls-5 {
        fill: none;
        stroke-linecap: round;
        stroke-linejoin: round;
        stroke-width: 6px;
      }

      .cls-2 {
        stroke: url(#linear-gradient-4);
      }

      .cls-3 {
        stroke: url(#linear-gradient);
      }

      .cls-4 {
        stroke: url(#linear-gradient-5);
      }

      .cls-5 {
        stroke: url(#linear-gradient-2);
      }
    </style>
    <linearGradient id="linear-gradient" x1="58.3" y1=".79" x2="58.3" y2="36.74" gradientUnits="userSpaceOnUse">
      <stop offset="0" stop-color="#2b3edb"/>
      <stop offset=".97" stop-color="#8efecc"/>
    </linearGradient>
    <linearGradient id="linear-gradient-2" x1="66.32" y1="37.62" x2="66.32" y2="61.46" xlink:href="#linear-gradient"/>
    <linearGradient id="linear-gradient-3" x1="20.11" y1="88.32" x2="20.11" y2="64.18" xlink:href="#linear-gradient"/>
    <linearGradient id="linear-gradient-4" x1="69.06" y1="88.32" x2="69.06" y2="64.18" xlink:href="#linear-gradient"/>
    <linearGradient id="linear-gradient-5" x1="22.07" y1="38.67" x2="22.07" y2="62.5" xlink:href="#linear-gradient"/>
  </defs>
  <path class="cls-3" d="M70.67,26.02h-19.8c-2.98,0-10.33,10.15-10.33,7.17V9.18c0-2.98,2.41-5.39,5.39-5.39h24.73c2.98,0,5.39,2.41,5.39,5.39v11.44c0,2.98-2.41,5.39-5.39,5.39Z"/>
  <circle class="cls-5" cx="66.32" cy="49.54" r="8.92"/>
  <g>
    <polyline class="cls-1" points="3.49 85.32 13.6 67.18 30.54 67.18 36.73 79.79"/>
    <polyline class="cls-2" points="85.68 85.32 75.57 67.18 58.63 67.18 52.44 79.79"/>
    <circle class="cls-4" cx="22.07" cy="50.58" r="8.92"/>
  </g>
</svg>