<?xml version="1.0" encoding="UTF-8"?>
<svg id="Layer_1" xmlns="http://www.w3.org/2000/svg" xmlns:xlink="http://www.w3.org/1999/xlink" viewBox="0 0 90 90">
  <defs>
    <style>
      .cls-1 {
        stroke: url(#linear-gradient-3);
      }

      .cls-1, .cls-2, .cls-3, .cls-4 {
        fill: none;
        stroke-width: 6px;
      }

      .cls-1, .cls-3 {
        stroke-linecap: round;
        stroke-linejoin: round;
      }

      .cls-2 {
        stroke: url(#linear-gradient-5);
      }

      .cls-2, .cls-4 {
        stroke-miterlimit: 10;
      }

      .cls-5 {
        fill: url(#linear-gradient);
      }

      .cls-3 {
        stroke: url(#linear-gradient-2);
      }

      .cls-4 {
        stroke: url(#linear-gradient-4);
      }
    </style>
    <linearGradient id="linear-gradient" x1="38.07" y1="52.29" x2="47.46" y2="52.29" gradientUnits="userSpaceOnUse">
      <stop offset="0" stop-color="#2b3edb"/>
      <stop offset="1" stop-color="#8efecc"/>
    </linearGradient>
    <linearGradient id="linear-gradient-2" x1="59.92" y1="78.56" x2="75.88" y2="78.56" gradientTransform="translate(-6.47 -13.43) rotate(.2)" xlink:href="#linear-gradient"/>
    <linearGradient id="linear-gradient-3" x1="213.38" y1="478.93" x2="245.4" y2="478.93" gradientTransform="translate(-134.7 -448.21) rotate(6.07)" xlink:href="#linear-gradient"/>
    <linearGradient id="linear-gradient-4" x1="50.43" y1="28.79" x2="50.43" y2=".95" gradientUnits="userSpaceOnUse">
      <stop offset="0" stop-color="#2b3edb"/>
      <stop offset=".97" stop-color="#8efecc"/>
    </linearGradient>
    <linearGradient id="linear-gradient-5" x1="45" y1="89.02" x2="45" y2="6.32" xlink:href="#linear-gradient-4"/>
  </defs>
  <path class="cls-5" d="M42.16,60.1c-.08-.08-.11-.17-.11-.29v-1.23c-.82-.07-1.52-.26-2.12-.57-.6-.31-1.05-.7-1.36-1.16-.31-.46-.48-.96-.5-1.49,0-.09.04-.18.11-.26.08-.08.17-.11.27-.11h.91c.21,0,.36.12.44.35.12.49.42.92.91,1.27.49.35,1.19.53,2.09.53.97,0,1.7-.17,2.19-.52.49-.35.74-.83.74-1.45,0-.4-.12-.72-.36-.97-.24-.25-.59-.46-1.06-.65-.47-.19-1.17-.42-2.1-.7-.91-.26-1.64-.53-2.17-.83-.54-.29-.94-.66-1.21-1.09-.27-.43-.4-.98-.4-1.64,0-.87.32-1.61.96-2.21s1.53-.97,2.66-1.08v-1.22c0-.12.04-.21.11-.29s.17-.11.29-.11h.67c.12,0,.21.04.29.11s.11.17.11.29v1.23c.75.09,1.39.31,1.92.63.53.33.93.72,1.21,1.16.27.45.42.89.45,1.34,0,.09-.03.18-.1.25-.06.07-.16.11-.27.11h-.93c-.25,0-.4-.11-.46-.33-.07-.49-.34-.9-.82-1.22-.48-.32-1.08-.48-1.81-.48-.79,0-1.42.15-1.88.46s-.68.76-.68,1.36c0,.4.11.73.32.99.22.26.55.48.99.68.44.19,1.09.41,1.95.66.99.27,1.78.55,2.35.84s1,.65,1.28,1.08.42.97.42,1.63c0,1-.35,1.8-1.05,2.41-.7.61-1.67.96-2.89,1.07v1.22c0,.12-.04.21-.11.29-.08.08-.17.11-.29.11h-.67c-.12,0-.21-.04-.29-.11Z"/>
  <line class="cls-3" x1="56.19" y1="61.73" x2="66.12" y2="69.01"/>
  <ellipse class="cls-1" cx="42.77" cy="52.29" rx="13.01" ry="13.08"/>
  <path class="cls-4" d="M26.45,9.32v.15c0-3.05,2.47-5.51,5.51-5.51h36.93c3.05,0,5.51,2.47,5.51,5.51v19.32"/>
  <path class="cls-2" d="M69.94,86.02H20.06c-3.24,0-5.89-2.65-5.89-5.89V15.21c0-3.24,2.65-5.89,5.89-5.89h7.71c3.96,0,7.58,2.22,9.39,5.74l3.27,6.38c1.78,3.47,5.33,5.68,9.23,5.74l20.27.3c3.24,0,5.89,2.65,5.89,5.89v46.76c0,3.24-2.65,5.89-5.89,5.89Z"/>
</svg>