<?xml version="1.0" encoding="UTF-8"?>
<svg id="Layer_1" xmlns="http://www.w3.org/2000/svg" xmlns:xlink="http://www.w3.org/1999/xlink" viewBox="0 0 90 90">
  <defs>
    <style>
      .cls-1 {
        stroke: url(#linear-gradient-2);
      }

      .cls-1, .cls-2, .cls-3, .cls-4, .cls-5 {
        fill: none;
        stroke-miterlimit: 10;
        stroke-width: 7px;
      }

      .cls-2 {
        stroke: url(#linear-gradient-4);
      }

      .cls-3 {
        stroke: url(#linear-gradient-6);
      }

      .cls-4 {
        stroke: url(#linear-gradient-5);
      }

      .cls-5 {
        stroke: url(#linear-gradient-3);
      }

      .cls-6 {
        fill: url(#linear-gradient);
      }
    </style>
    <linearGradient id="linear-gradient" x1="-50.41" y1="73.81" x2="-38.96" y2="73.81" gradientTransform="translate(66 -44.93)" gradientUnits="userSpaceOnUse">
      <stop offset="0" stop-color="#2b3edb"/>
      <stop offset="1" stop-color="#8efecc"/>
    </linearGradient>
    <linearGradient id="linear-gradient-2" x1="65.06" y1="67.22" x2="77.34" y2="67.22" gradientTransform="matrix(1,0,0,1,0,0)" xlink:href="#linear-gradient"/>
    <linearGradient id="linear-gradient-3" x1="36.06" y1="40.8" x2="50.38" y2="40.8" gradientTransform="matrix(1,0,0,1,0,0)" xlink:href="#linear-gradient"/>
    <linearGradient id="linear-gradient-4" x1="67.34" y1="78.03" x2="89.88" y2="78.03" gradientTransform="matrix(1,0,0,1,0,0)" xlink:href="#linear-gradient"/>
    <linearGradient id="linear-gradient-5" x1="43.17" y1="50.58" x2="74.79" y2="50.58" gradientTransform="matrix(1,0,0,1,0,0)" xlink:href="#linear-gradient"/>
    <linearGradient id="linear-gradient-6" x1=".39" y1="29.37" x2="41.68" y2="29.37" gradientTransform="matrix(1,0,0,1,0,0)" xlink:href="#linear-gradient"/>
  </defs>
  <path class="cls-6" d="M20.57,38.35c-.09-.09-.14-.21-.14-.35v-1.49c-1-.09-1.86-.32-2.58-.69-.73-.38-1.28-.85-1.65-1.41-.38-.56-.58-1.16-.61-1.8,0-.11.05-.22.14-.31.09-.09.2-.14.33-.14h1.11c.26,0,.43.14.53.43.14.6.51,1.11,1.11,1.54.6.43,1.44.64,2.54.64,1.18,0,2.07-.21,2.67-.63s.9-1.01.9-1.76c0-.48-.15-.88-.44-1.17-.29-.3-.72-.56-1.29-.79-.57-.23-1.42-.51-2.56-.85-1.11-.31-1.99-.65-2.65-1-.66-.36-1.15-.8-1.47-1.32-.33-.53-.49-1.19-.49-1.99,0-1.05.39-1.95,1.17-2.68s1.87-1.17,3.25-1.31v-1.47c0-.14.05-.26.14-.35s.21-.14.35-.14h.81c.14,0,.26.05.35.14s.14.21.14.35v1.49c.91.11,1.69.37,2.34.77.65.4,1.14.87,1.47,1.41.33.54.52,1.08.54,1.62,0,.11-.04.21-.12.3-.08.09-.19.13-.33.13h-1.13c-.3,0-.48-.14-.56-.41-.09-.6-.42-1.09-1-1.48-.58-.39-1.32-.59-2.2-.59-.97,0-1.73.19-2.28.56s-.83.92-.83,1.64c0,.48.13.88.39,1.2.26.31.67.59,1.21.82.54.23,1.33.5,2.37.8,1.21.33,2.16.67,2.86,1.01s1.22.78,1.56,1.3c.34.52.51,1.18.51,1.97,0,1.21-.43,2.18-1.28,2.91-.85.73-2.03,1.16-3.52,1.29v1.47c0,.14-.05.26-.14.35-.09.09-.21.14-.35.14h-.81c-.14,0-.26-.05-.35-.14Z"/>
  <line class="cls-1" x1="67.89" y1="62.67" x2="74.51" y2="71.77"/>
  <line class="cls-5" x1="37.76" y1="37.75" x2="48.67" y2="43.84"/>
  <circle class="cls-2" cx="78.61" cy="78.03" r="7.77"/>
  <circle class="cls-4" cx="58.98" cy="50.58" r="12.31"/>
  <circle class="cls-3" cx="21.04" cy="29.37" r="17.14"/>
</svg>