<?xml version="1.0" encoding="UTF-8"?>
<svg id="Layer_1" data-name="Layer 1" xmlns="http://www.w3.org/2000/svg" xmlns:xlink="http://www.w3.org/1999/xlink" viewBox="0 0 90 90">
  <defs>
    <style>
      .cls-1 {
        stroke: url(#linear-gradient-3);
      }

      .cls-1, .cls-2, .cls-3, .cls-4 {
        fill: none;
        stroke-width: 6px;
      }

      .cls-1, .cls-3 {
        stroke-miterlimit: 10;
      }

      .cls-2 {
        stroke: url(#linear-gradient-4);
      }

      .cls-2, .cls-4 {
        stroke-linecap: round;
        stroke-linejoin: round;
      }

      .cls-3 {
        stroke: url(#linear-gradient);
      }

      .cls-4 {
        stroke: url(#linear-gradient-2);
      }
    </style>
    <linearGradient id="linear-gradient" x1="24.23" y1="57.05" x2="82.61" y2="57.05" gradientUnits="userSpaceOnUse">
      <stop offset="0" stop-color="#2b3edb"/>
      <stop offset="1" stop-color="#8efecc"/>
    </linearGradient>
    <linearGradient id="linear-gradient-2" x1="7.39" y1="32.87" x2="58.45" y2="32.87" xlink:href="#linear-gradient"/>
    <linearGradient id="linear-gradient-3" x1="53.56" y1="42.27" x2="53.56" y2="74.44" xlink:href="#linear-gradient"/>
    <linearGradient id="linear-gradient-4" x1="32.88" y1="43.44" x2="33.24" y2="15.93" xlink:href="#linear-gradient"/>
  </defs>
  <path class="cls-3" d="M55.45,44.61v-13.52c13.5,1,24.15,12.28,24.15,26.04s-11.69,26.11-26.11,26.11-25.1-10.7-26.05-24.26h11.61"/>
  <path class="cls-4" d="M55.45,45.26V13.06c0-3.48-2.82-6.3-6.3-6.3H16.69c-3.48,0-6.3,2.82-6.3,6.3v39.63c0,3.48,2.82,6.3,6.3,6.3h21.73"/>
  <polygon class="cls-1" points="68.67 58.35 61.11 71.44 46.01 71.44 38.45 58.35 46.01 45.27 61.11 45.27 68.67 58.35"/>
  <polygon class="cls-2" points="45.25 40.28 20.6 40.28 32.92 18.93 42.03 34.71 45.25 40.28"/>
</svg>