<?xml version="1.0" encoding="UTF-8"?>
<svg id="Layer_1" data-name="Layer 1" xmlns="http://www.w3.org/2000/svg" xmlns:xlink="http://www.w3.org/1999/xlink" viewBox="0 0 90 90">
  <defs>
    <style>
      .cls-1 {
        stroke: url(#linear-gradient-3);
      }

      .cls-1, .cls-2, .cls-3, .cls-4 {
        fill: none;
        stroke-linecap: round;
        stroke-linejoin: round;
        stroke-width: 6px;
      }

      .cls-2 {
        stroke: url(#radial-gradient);
      }

      .cls-3 {
        stroke: url(#linear-gradient);
      }

      .cls-4 {
        stroke: url(#linear-gradient-2);
      }
    </style>
    <linearGradient id="linear-gradient" x1="44.13" y1="39.7" x2="44.13" y2="20.14" gradientUnits="userSpaceOnUse">
      <stop offset="0" stop-color="#0b115d"/>
      <stop offset=".09" stop-color="#101a61"/>
      <stop offset=".24" stop-color="#1e346d"/>
      <stop offset=".43" stop-color="#365f81"/>
      <stop offset=".66" stop-color="#569a9d"/>
      <stop offset=".92" stop-color="#7fe4bf"/>
      <stop offset="1" stop-color="#8efecc"/>
    </linearGradient>
    <linearGradient id="linear-gradient-2" x1="52.82" y1="64.77" x2="72.69" y2="64.77" xlink:href="#linear-gradient"/>
    <linearGradient id="linear-gradient-3" x1="35.43" y1="64.55" x2="16.97" y2="64.55" xlink:href="#linear-gradient"/>
    <radialGradient id="radial-gradient" cx="45.02" cy="45.06" fx="45.02" fy="45.06" r="44.42" gradientUnits="userSpaceOnUse">
      <stop offset="0" stop-color="#8efecc"/>
      <stop offset=".15" stop-color="#8bfacc"/>
      <stop offset=".29" stop-color="#85eecd"/>
      <stop offset=".43" stop-color="#7bdace"/>
      <stop offset=".58" stop-color="#6dbed0"/>
      <stop offset=".72" stop-color="#5a9ad3"/>
      <stop offset=".86" stop-color="#446ed7"/>
      <stop offset="1" stop-color="#2b3edb"/>
    </radialGradient>
  </defs>
  <line class="cls-3" x1="44.13" y1="36.7" x2="44.13" y2="23.14"/>
  <line class="cls-4" x1="69.69" y1="70.7" x2="55.82" y2="58.85"/>
  <line class="cls-1" x1="32.43" y1="58.85" x2="19.97" y2="70.26"/>
  <path class="cls-2" d="M48.58,21.58c-4.63,2.55-10.45.87-13-3.76-2.55-4.63-.87-10.45,3.76-13,4.63-2.55,10.45-.87,13,3.76,1.65,2.99,2.51,9.55-3.76,13ZM55.22,57.88c2.63-4.14,2.91-9.56.28-14.1-2.68-4.62-7.68-7.07-12.69-6.72-2.01.13-4.01.73-5.87,1.81-6.48,3.76-8.69,12.07-4.93,18.55.04.07.08.14.13.21,0,.01,0,.03.02.03,3.82,6.3,12.01,8.4,18.41,4.68,1.95-1.13,3.52-2.68,4.64-4.46ZM85.12,72.04c-2.65-4.57-8.51-6.12-13.08-3.47-4.57,2.65-6.12,8.51-3.47,13.08,2.65,4.57,8.51,6.12,13.08,3.47s6.12-8.51,3.47-13.08ZM21.47,72.11c-2.65-4.57-8.51-6.12-13.08-3.47-4.57,2.65-6.12,8.51-3.47,13.08s8.51,6.12,13.08,3.47,6.12-8.51,3.47-13.08Z"/>
</svg>