<?xml version="1.0" encoding="UTF-8"?>
<svg id="Layer_1" data-name="Layer 1" xmlns="http://www.w3.org/2000/svg" xmlns:xlink="http://www.w3.org/1999/xlink" viewBox="0 0 90 90">
  <defs>
    <style>
      .cls-1 {
        stroke: url(#linear-gradient-8);
      }

      .cls-1, .cls-2, .cls-3, .cls-4, .cls-5, .cls-6, .cls-7, .cls-8, .cls-9, .cls-10, .cls-11, .cls-12, .cls-13 {
        fill: none;
        stroke-linecap: round;
        stroke-linejoin: round;
        stroke-width: 6px;
      }

      .cls-2 {
        stroke: url(#linear-gradient-11);
      }

      .cls-3 {
        stroke: url(#linear-gradient-3);
      }

      .cls-4 {
        stroke: url(#linear-gradient-10);
      }

      .cls-5 {
        stroke: url(#linear-gradient-7);
      }

      .cls-6 {
        stroke: url(#linear-gradient-4);
      }

      .cls-7 {
        stroke: url(#linear-gradient-6);
      }

      .cls-8 {
        stroke: url(#linear-gradient-12);
      }

      .cls-9 {
        stroke: url(#linear-gradient-13);
      }

      .cls-10 {
        stroke: url(#linear-gradient);
      }

      .cls-11 {
        stroke: url(#linear-gradient-9);
      }

      .cls-12 {
        stroke: url(#linear-gradient-5);
      }

      .cls-13 {
        stroke: url(#linear-gradient-2);
      }
    </style>
    <linearGradient id="linear-gradient" x1="-216.54" y1="-799.79" x2="-216.54" y2="-778.89" gradientTransform="translate(252.72 811.6)" gradientUnits="userSpaceOnUse">
      <stop offset="0" stop-color="#2b3edb"/>
      <stop offset=".97" stop-color="#8efecc"/>
    </linearGradient>
    <linearGradient id="linear-gradient-2" x1="-216.32" y1="-790.57" x2="-216.32" y2="-777.87" xlink:href="#linear-gradient"/>
    <linearGradient id="linear-gradient-3" x1="-199.03" x2="-199.03" gradientTransform="translate(252.72 -766.07) scale(1 -1)" xlink:href="#linear-gradient"/>
    <linearGradient id="linear-gradient-4" x1="-198.8" y1="-790.57" x2="-198.8" y2="-777.87" gradientTransform="translate(252.72 -766.07) scale(1 -1)" xlink:href="#linear-gradient"/>
    <linearGradient id="linear-gradient-5" x1="45.58" y1="80.19" x2="45.58" y2="25.95" gradientTransform="matrix(1,0,0,1,0,0)" xlink:href="#linear-gradient"/>
    <linearGradient id="linear-gradient-6" x1="43.6" y1="88.76" x2="43.6" y2="74.19" gradientUnits="userSpaceOnUse">
      <stop offset="0" stop-color="#2b3edb"/>
      <stop offset=".77" stop-color="#2b3fdb"/>
      <stop offset=".97" stop-color="#2e44db"/>
    </linearGradient>
    <linearGradient id="linear-gradient-7" x1="45.58" y1="65.59" x2="45.58" y2="1.24" gradientTransform="matrix(1,0,0,1,0,0)" xlink:href="#linear-gradient"/>
    <linearGradient id="linear-gradient-8" x1="49.94" y1="50" x2="49.94" y2="44" gradientTransform="matrix(1,0,0,1,0,0)" xlink:href="#linear-gradient"/>
    <linearGradient id="linear-gradient-9" x1="34.73" y1="49.64" x2="34.73" y2="43.64" gradientTransform="matrix(1,0,0,1,0,0)" xlink:href="#linear-gradient"/>
    <linearGradient id="linear-gradient-10" x1="49.94" y1="43.28" x2="49.94" y2="37.28" gradientTransform="matrix(1,0,0,1,0,0)" xlink:href="#linear-gradient"/>
    <linearGradient id="linear-gradient-11" x1="34.73" y1="42.92" x2="34.73" y2="36.92" gradientTransform="matrix(1,0,0,1,0,0)" xlink:href="#linear-gradient"/>
    <linearGradient id="linear-gradient-12" x1="49.94" y1="57.27" x2="49.94" y2="51.27" gradientTransform="matrix(1,0,0,1,0,0)" xlink:href="#linear-gradient"/>
    <linearGradient id="linear-gradient-13" x1="34.73" y1="56.92" x2="34.73" y2="50.92" gradientTransform="matrix(1,0,0,1,0,0)" xlink:href="#linear-gradient"/>
  </defs>
  <g>
    <line class="cls-10" x1="36.18" y1="14.8" x2="36.18" y2="29.7"/>
    <polyline class="cls-13" points="30.73 24.03 36.44 30.73 42.09 24.28"/>
  </g>
  <g>
    <line class="cls-3" x1="53.7" y1="30.73" x2="53.7" y2="15.83"/>
    <polyline class="cls-6" points="48.24 21.51 53.95 14.8 59.6 21.25"/>
  </g>
  <g>
    <polyline class="cls-12" points="71.98 28.95 84.07 28.95 84.07 77.19 7.08 77.19 7.08 28.95 18.92 28.95"/>
    <rect class="cls-7" x="30.66" y="77.19" width="25.89" height="8.57"/>
    <g>
      <path class="cls-5" d="M59.92,62.59h-28.69c-4.43,0-8.02-3.59-8.02-8.02V12.26c0-4.43,3.59-8.02,8.02-8.02h22.63c5.5,5.5,8.58,8.58,14.08,14.08v36.26c0,4.43-3.59,8.02-8.02,8.02Z"/>
      <line class="cls-1" x1="56.13" y1="47" x2="43.76" y2="47"/>
      <line class="cls-11" x1="35.86" y1="46.64" x2="33.61" y2="46.64"/>
      <line class="cls-4" x1="56.13" y1="40.28" x2="43.76" y2="40.28"/>
      <line class="cls-2" x1="35.86" y1="39.92" x2="33.61" y2="39.92"/>
      <line class="cls-8" x1="56.13" y1="54.27" x2="43.76" y2="54.27"/>
      <line class="cls-9" x1="35.86" y1="53.92" x2="33.61" y2="53.92"/>
    </g>
  </g>
</svg>