<?xml version="1.0" encoding="UTF-8"?>
<svg id="Layer_1" data-name="Layer 1" xmlns="http://www.w3.org/2000/svg" xmlns:xlink="http://www.w3.org/1999/xlink" viewBox="0 0 90 90">
  <defs>
    <style>
      .cls-1 {
        stroke: url(#linear-gradient-3);
      }

      .cls-1, .cls-2, .cls-3, .cls-4, .cls-5, .cls-6 {
        fill: none;
        stroke-linecap: round;
        stroke-linejoin: round;
        stroke-width: 6px;
      }

      .cls-2 {
        stroke: url(#linear-gradient-4);
      }

      .cls-3 {
        stroke: url(#linear-gradient-6);
      }

      .cls-4 {
        stroke: url(#linear-gradient);
      }

      .cls-5 {
        stroke: url(#linear-gradient-5);
      }

      .cls-6 {
        stroke: url(#linear-gradient-2);
      }
    </style>
    <linearGradient id="linear-gradient" x1="-174.54" y1="-774.15" x2="-174.54" y2="-742.55" gradientTransform="translate(252.72 811.6)" gradientUnits="userSpaceOnUse">
      <stop offset="0" stop-color="#2b3edb"/>
      <stop offset=".97" stop-color="#8efecc"/>
    </linearGradient>
    <linearGradient id="linear-gradient-2" x1="-174.24" y1="-755.34" x2="-174.24" y2="-741.33" xlink:href="#linear-gradient"/>
    <linearGradient id="linear-gradient-3" x1="21.23" y1="23.37" x2="60.28" y2="23.37" gradientTransform="matrix(1,0,0,1,0,0)" xlink:href="#linear-gradient"/>
    <linearGradient id="linear-gradient-4" x1="39.1" y1="33.27" x2="60.57" y2="33.27" gradientTransform="matrix(1,0,0,1,0,0)" xlink:href="#linear-gradient"/>
    <linearGradient id="linear-gradient-5" x1="20.95" y1="33.27" x2="37.63" y2="33.27" gradientTransform="matrix(1,0,0,1,0,0)" xlink:href="#linear-gradient"/>
    <linearGradient id="linear-gradient-6" x1="45.22" y1="89.45" x2="45.22" y2=".55" gradientUnits="userSpaceOnUse">
      <stop offset="0" stop-color="#2b3edb"/>
      <stop offset=".11" stop-color="#2d43da"/>
      <stop offset=".26" stop-color="#3552d9"/>
      <stop offset=".41" stop-color="#426bd7"/>
      <stop offset=".58" stop-color="#548fd4"/>
      <stop offset=".76" stop-color="#6cbcd1"/>
      <stop offset=".94" stop-color="#88f3cc"/>
      <stop offset=".97" stop-color="#8efecc"/>
    </linearGradient>
  </defs>
  <g>
    <line class="cls-4" x1="78.18" y1="40.45" x2="78.18" y2="66.05"/>
    <polyline class="cls-6" points="70.74 59.26 78.52 67.27 86.23 59.57"/>
  </g>
  <line class="cls-1" x1="24.23" y1="23.37" x2="57.28" y2="23.37"/>
  <line class="cls-2" x1="42.1" y1="33.27" x2="57.57" y2="33.27"/>
  <line class="cls-5" x1="23.95" y1="33.27" x2="34.63" y2="33.27"/>
  <path class="cls-3" d="M78.18,78.26v3.11c0,2.81-2.28,5.09-5.09,5.09H17.35c-2.81,0-5.09-2.28-5.09-5.09V8.64c0-2.81,2.28-5.09,5.09-5.09h55.73c2.81,0,5.09,2.28,5.09,5.09v22.47"/>
</svg>