<?xml version="1.0" encoding="UTF-8"?>
<svg id="Layer_1" data-name="Layer 1" xmlns="http://www.w3.org/2000/svg" xmlns:xlink="http://www.w3.org/1999/xlink" viewBox="0 0 90 90">
  <defs>
    <style>
      .cls-1 {
        stroke: url(#linear-gradient-3);
      }

      .cls-1, .cls-2, .cls-3, .cls-4 {
        fill: none;
        stroke-linecap: round;
        stroke-linejoin: round;
        stroke-width: 6px;
      }

      .cls-2 {
        stroke: url(#linear-gradient-4);
      }

      .cls-3 {
        stroke: url(#linear-gradient);
      }

      .cls-4 {
        stroke: url(#linear-gradient-2);
      }
    </style>
    <linearGradient id="linear-gradient" x1="21.59" y1="44.05" x2="21.59" y2="1.22" gradientUnits="userSpaceOnUse">
      <stop offset="0" stop-color="#2b3edb"/>
      <stop offset="1" stop-color="#8efecc"/>
    </linearGradient>
    <linearGradient id="linear-gradient-2" x1="68.68" y1="44.64" x2="68.68" y2=".63" xlink:href="#linear-gradient"/>
    <linearGradient id="linear-gradient-3" x1="68.43" y1="89.58" x2="68.43" y2="51.33" xlink:href="#linear-gradient"/>
    <linearGradient id="linear-gradient-4" x1="19.91" y1="89.58" x2="19.91" y2="50.44" xlink:href="#linear-gradient"/>
  </defs>
  <path class="cls-3" d="M34.61,9.61c2.22,2.22,3.76,4.86,4.61,7.67,1.9,6.29.37,13.41-4.6,18.38-4.97,4.97-12.09,6.5-18.38,4.6-2.81-.85-5.45-2.38-7.67-4.61-7.19-7.19-7.19-18.85,0-26.04,7.19-7.19,18.85-7.19,26.04,0Z"/>
  <polygon class="cls-4" points="85.14 32.14 68.68 41.64 52.22 32.14 52.22 13.13 68.68 3.63 85.14 13.13 85.14 32.14"/>
  <polygon class="cls-1" points="87 86.58 49.86 86.42 68.57 54.33 87 86.58"/>
  <rect class="cls-2" x="3.34" y="53.44" width="33.14" height="33.14"/>
</svg>