<?xml version="1.0" encoding="UTF-8"?>
<svg id="Layer_1" xmlns="http://www.w3.org/2000/svg" xmlns:xlink="http://www.w3.org/1999/xlink" viewBox="0 0 90 90">
  <defs>
    <style>
      .cls-1 {
        stroke: url(#linear-gradient-3);
      }

      .cls-1, .cls-2, .cls-3 {
        fill: none;
        stroke-linecap: round;
        stroke-linejoin: round;
        stroke-width: 6px;
      }

      .cls-4 {
        fill: url(#linear-gradient-4);
      }

      .cls-2 {
        stroke: url(#linear-gradient);
      }

      .cls-3 {
        stroke: url(#linear-gradient-2);
      }
    </style>
    <linearGradient id="linear-gradient" x1="47.79" y1="49.15" x2="47.79" y2="89.2" gradientUnits="userSpaceOnUse">
      <stop offset="0" stop-color="#0b115d"/>
      <stop offset=".11" stop-color="#0c1261"/>
      <stop offset=".22" stop-color="#10186e"/>
      <stop offset=".34" stop-color="#162283"/>
      <stop offset=".45" stop-color="#1f2fa0"/>
      <stop offset=".57" stop-color="#2b41c6"/>
      <stop offset=".63" stop-color="#314ada"/>
      <stop offset=".67" stop-color="#3e63d8"/>
      <stop offset=".83" stop-color="#68b6d1"/>
      <stop offset=".94" stop-color="#83e9cd"/>
      <stop offset="1" stop-color="#8efecc"/>
    </linearGradient>
    <linearGradient id="linear-gradient-2" y1="32.84" y2="72.88" xlink:href="#linear-gradient"/>
    <linearGradient id="linear-gradient-3" y1="18.66" y2="58.7" xlink:href="#linear-gradient"/>
    <linearGradient id="linear-gradient-4" x1="37.4" y1="19.85" x2="59.83" y2="19.85" gradientUnits="userSpaceOnUse">
      <stop offset="0" stop-color="#2b3edb"/>
      <stop offset="1" stop-color="#8efecc"/>
    </linearGradient>
  </defs>
  <polygon class="cls-2" points="80.36 60.67 80.36 77.69 48.75 85.95 47.79 86.2 46.83 85.95 15.22 77.69 15.22 60.67 47.79 52.15 80.36 60.67"/>
  <polygon class="cls-3" points="80.36 44.35 80.36 61.38 48.75 69.64 47.79 69.88 46.83 69.64 15.22 61.38 15.22 44.35 47.79 35.84 80.36 44.35"/>
  <polygon class="cls-1" points="80.36 30.17 80.36 47.2 48.75 55.45 47.79 55.7 46.83 55.45 15.22 47.2 15.22 30.17 47.79 21.66 80.36 30.17"/>
  <path class="cls-4" d="M47.17,38.41c-.18-.18-.27-.41-.27-.69v-2.93c-1.95-.17-3.64-.62-5.06-1.36-1.42-.74-2.5-1.66-3.24-2.76-.74-1.1-1.14-2.28-1.19-3.54,0-.22.09-.42.27-.61.18-.18.4-.27.65-.27h2.18c.5,0,.85.28,1.05.84.28,1.17,1,2.18,2.18,3.01,1.17.84,2.83,1.26,4.98,1.26,2.31,0,4.06-.41,5.23-1.23,1.17-.82,1.76-1.97,1.76-3.45,0-.95-.29-1.72-.86-2.3-.57-.59-1.42-1.1-2.53-1.55-1.12-.45-2.79-1-5.02-1.67-2.18-.61-3.91-1.27-5.19-1.97-1.28-.7-2.25-1.56-2.89-2.59-.64-1.03-.96-2.33-.96-3.89,0-2.06.77-3.81,2.3-5.25,1.53-1.44,3.65-2.29,6.36-2.57V1.99c0-.28.09-.51.27-.69s.41-.27.69-.27h1.59c.28,0,.51.09.69.27s.27.41.27.69v2.93c1.78.22,3.31.73,4.58,1.51,1.27.78,2.23,1.7,2.89,2.76.66,1.06,1.01,2.12,1.07,3.18,0,.22-.08.42-.23.59-.15.17-.37.25-.65.25h-2.22c-.59,0-.95-.27-1.09-.79-.17-1.17-.82-2.14-1.97-2.91-1.14-.77-2.58-1.15-4.31-1.15-1.9,0-3.39.36-4.48,1.09-1.09.73-1.63,1.8-1.63,3.22,0,.95.26,1.73.77,2.34.52.61,1.3,1.15,2.36,1.61,1.06.46,2.61.98,4.64,1.57,2.37.64,4.24,1.3,5.61,1.99s2.39,1.53,3.05,2.55c.67,1.02,1,2.31,1,3.87,0,2.37-.84,4.28-2.51,5.71-1.67,1.44-3.98,2.28-6.9,2.53v2.89c0,.28-.09.51-.27.69-.18.18-.41.27-.69.27h-1.59c-.28,0-.51-.09-.69-.27Z"/>
</svg>