<?xml version="1.0" encoding="UTF-8"?>
<svg id="Layer_1" xmlns="http://www.w3.org/2000/svg" xmlns:xlink="http://www.w3.org/1999/xlink" viewBox="0 0 90 90">
  <defs>
    <style>
      .cls-1 {
        stroke: url(#linear-gradient-2);
      }

      .cls-1, .cls-2, .cls-3 {
        stroke-width: 5px;
      }

      .cls-1, .cls-2, .cls-3, .cls-4, .cls-5 {
        fill: none;
        stroke-linecap: round;
        stroke-linejoin: round;
      }

      .cls-2 {
        stroke: url(#linear-gradient);
      }

      .cls-3 {
        stroke: url(#linear-gradient-3);
      }

      .cls-4 {
        stroke: url(#linear-gradient-4);
      }

      .cls-4, .cls-5 {
        stroke-width: 6px;
      }

      .cls-5 {
        stroke: url(#linear-gradient-5);
      }
    </style>
    <linearGradient id="linear-gradient" x1="58.36" y1="74.93" x2="73.71" y2="74.93" gradientTransform="translate(-6.06 -13.43) rotate(.2)" gradientUnits="userSpaceOnUse">
      <stop offset="0" stop-color="#2b3edb"/>
      <stop offset="1" stop-color="#8efecc"/>
    </linearGradient>
    <linearGradient id="linear-gradient-2" x1="198.83" y1="476.57" x2="232.71" y2="476.57" gradientTransform="translate(-122.66 -447.57) rotate(6.07)" xlink:href="#linear-gradient"/>
    <linearGradient id="linear-gradient-3" x1="32.54" y1="44.77" x2="64.19" y2="44.77" gradientTransform="matrix(1,0,0,1,0,0)" xlink:href="#linear-gradient"/>
    <linearGradient id="linear-gradient-4" x1="47.34" y1="36.43" x2="47.34" y2=".45" gradientUnits="userSpaceOnUse">
      <stop offset="0" stop-color="#2b3edb"/>
      <stop offset=".97" stop-color="#8efecc"/>
    </linearGradient>
    <linearGradient id="linear-gradient-5" x1="44.63" y1="89.55" x2="44.63" y2="12.84" xlink:href="#linear-gradient-4"/>
  </defs>
  <g>
    <line class="cls-2" x1="54.54" y1="57.97" x2="64.87" y2="65.49"/>
    <path class="cls-1" d="M55.87,50.66c-.84,7.93-7.96,13.68-15.89,12.83-7.93-.84-13.68-7.96-12.83-15.89s7.96-13.68,15.89-12.83c2.7.29,5.15,1.3,7.17,2.83"/>
    <polyline class="cls-3" points="35.04 52.77 42.88 44.93 47.46 49.51 61.69 36.77"/>
  </g>
  <polygon class="cls-4" points="75.1 19.48 75.1 33.43 44.62 15.84 33.36 22.34 19.57 30.3 19.57 19.48 47.34 3.45 75.1 19.48"/>
  <polygon class="cls-5" points="75.25 33.52 75.25 68.88 44.62 86.55 14 68.88 14 33.52 19.57 30.3 33.36 22.34 44.62 15.84 75.1 33.43 75.14 33.45 75.25 33.52"/>
</svg>