<?xml version="1.0" encoding="UTF-8"?>
<svg id="Layer_1" data-name="Layer 1" xmlns="http://www.w3.org/2000/svg" xmlns:xlink="http://www.w3.org/1999/xlink" viewBox="0 0 90 90">
  <defs>
    <style>
      .cls-1 {
        fill: url(#linear-gradient-21);
        stroke: url(#linear-gradient-22);
      }

      .cls-1, .cls-2, .cls-3, .cls-4, .cls-5, .cls-6, .cls-7, .cls-8, .cls-9, .cls-10, .cls-11, .cls-12, .cls-13, .cls-14, .cls-15, .cls-16, .cls-17, .cls-18, .cls-19, .cls-20 {
        stroke-miterlimit: 10;
        stroke-width: 3px;
      }

      .cls-2 {
        fill: url(#linear-gradient-13);
        stroke: url(#linear-gradient-14);
      }

      .cls-21 {
        fill: none;
        stroke: url(#linear-gradient-41);
        stroke-linecap: round;
        stroke-linejoin: round;
        stroke-width: 6px;
      }

      .cls-3 {
        fill: url(#linear-gradient);
        stroke: url(#linear-gradient-2);
      }

      .cls-4 {
        fill: url(#linear-gradient-29);
        stroke: url(#linear-gradient-30);
      }

      .cls-5 {
        fill: url(#linear-gradient-25);
        stroke: url(#linear-gradient-26);
      }

      .cls-6 {
        fill: url(#linear-gradient-9);
        stroke: url(#linear-gradient-10);
      }

      .cls-7 {
        fill: url(#linear-gradient-19);
        stroke: url(#linear-gradient-20);
      }

      .cls-8 {
        fill: url(#linear-gradient-15);
        stroke: url(#linear-gradient-16);
      }

      .cls-9 {
        fill: url(#linear-gradient-35);
        stroke: url(#linear-gradient-36);
      }

      .cls-10 {
        fill: url(#linear-gradient-39);
        stroke: url(#linear-gradient-40);
      }

      .cls-11 {
        fill: url(#linear-gradient-31);
        stroke: url(#linear-gradient-32);
      }

      .cls-12 {
        fill: url(#linear-gradient-3);
        stroke: url(#linear-gradient-4);
      }

      .cls-13 {
        fill: url(#linear-gradient-37);
        stroke: url(#linear-gradient-38);
      }

      .cls-14 {
        fill: url(#linear-gradient-23);
        stroke: url(#linear-gradient-24);
      }

      .cls-15 {
        fill: url(#linear-gradient-17);
        stroke: url(#linear-gradient-18);
      }

      .cls-16 {
        fill: url(#linear-gradient-7);
        stroke: url(#linear-gradient-8);
      }

      .cls-17 {
        fill: url(#linear-gradient-11);
        stroke: url(#linear-gradient-12);
      }

      .cls-18 {
        fill: url(#linear-gradient-27);
        stroke: url(#linear-gradient-28);
      }

      .cls-19 {
        fill: url(#linear-gradient-33);
        stroke: url(#linear-gradient-34);
      }

      .cls-20 {
        fill: url(#linear-gradient-5);
        stroke: url(#linear-gradient-6);
      }
    </style>
    <linearGradient id="linear-gradient" x1="-228.65" y1="-5203.98" x2="-240.63" y2="-5454.66" gradientUnits="userSpaceOnUse">
      <stop offset="0" stop-color="#2b3edb"/>
      <stop offset=".97" stop-color="#8efecc"/>
    </linearGradient>
    <linearGradient id="linear-gradient-2" x1="21.73" y1="37.57" x2="21.73" y2="32.07" gradientUnits="userSpaceOnUse">
      <stop offset="0" stop-color="#2b3edb"/>
      <stop offset="1" stop-color="#8efecc"/>
    </linearGradient>
    <linearGradient id="linear-gradient-3" x1="-229.27" y1="-5203.95" x2="-241.25" y2="-5454.63" xlink:href="#linear-gradient"/>
    <linearGradient id="linear-gradient-4" y1="50.62" y2="45.12" xlink:href="#linear-gradient-2"/>
    <linearGradient id="linear-gradient-5" x1="-229.9" y1="-5203.93" x2="-241.88" y2="-5454.6" xlink:href="#linear-gradient"/>
    <linearGradient id="linear-gradient-6" y1="63.68" y2="58.18" xlink:href="#linear-gradient-2"/>
    <linearGradient id="linear-gradient-7" x1="-230.52" y1="-5203.9" x2="-242.5" y2="-5454.57" xlink:href="#linear-gradient"/>
    <linearGradient id="linear-gradient-8" y1="76.73" y2="71.23" xlink:href="#linear-gradient-2"/>
    <linearGradient id="linear-gradient-9" x1="-217.72" y1="-5204.51" x2="-229.7" y2="-5455.18" xlink:href="#linear-gradient"/>
    <linearGradient id="linear-gradient-10" x1="32.69" x2="32.69" xlink:href="#linear-gradient-2"/>
    <linearGradient id="linear-gradient-11" x1="-218.34" y1="-5204.48" x2="-230.32" y2="-5455.15" xlink:href="#linear-gradient"/>
    <linearGradient id="linear-gradient-12" x1="32.69" y1="50.62" x2="32.69" y2="45.12" xlink:href="#linear-gradient-2"/>
    <linearGradient id="linear-gradient-13" x1="-218.96" y1="-5204.45" x2="-230.94" y2="-5455.12" xlink:href="#linear-gradient"/>
    <linearGradient id="linear-gradient-14" x1="32.69" y1="63.68" x2="32.69" y2="58.18" xlink:href="#linear-gradient-2"/>
    <linearGradient id="linear-gradient-15" x1="-219.58" y1="-5204.42" x2="-231.56" y2="-5455.09" xlink:href="#linear-gradient"/>
    <linearGradient id="linear-gradient-16" x1="32.69" y1="76.73" x2="32.69" y2="71.23" xlink:href="#linear-gradient-2"/>
    <linearGradient id="linear-gradient-17" x1="-206.78" y1="-5205.03" x2="-218.76" y2="-5455.7" xlink:href="#linear-gradient"/>
    <linearGradient id="linear-gradient-18" x1="43.65" x2="43.65" xlink:href="#linear-gradient-2"/>
    <linearGradient id="linear-gradient-19" x1="-207.4" y1="-5205" x2="-219.38" y2="-5455.67" xlink:href="#linear-gradient"/>
    <linearGradient id="linear-gradient-20" x1="43.65" y1="50.62" x2="43.65" y2="45.12" xlink:href="#linear-gradient-2"/>
    <linearGradient id="linear-gradient-21" x1="-208.03" y1="-5204.97" x2="-220.01" y2="-5455.64" xlink:href="#linear-gradient"/>
    <linearGradient id="linear-gradient-22" x1="43.65" y1="63.68" x2="43.65" y2="58.18" xlink:href="#linear-gradient-2"/>
    <linearGradient id="linear-gradient-23" x1="-208.65" y1="-5204.94" x2="-220.63" y2="-5455.61" xlink:href="#linear-gradient"/>
    <linearGradient id="linear-gradient-24" x1="43.65" y1="76.73" x2="43.65" y2="71.23" xlink:href="#linear-gradient-2"/>
    <linearGradient id="linear-gradient-25" x1="-195.85" y1="-5205.55" x2="-207.83" y2="-5456.23" xlink:href="#linear-gradient"/>
    <linearGradient id="linear-gradient-26" x1="54.61" x2="54.61" xlink:href="#linear-gradient-2"/>
    <linearGradient id="linear-gradient-27" x1="-196.47" y1="-5205.52" x2="-208.45" y2="-5456.2" xlink:href="#linear-gradient"/>
    <linearGradient id="linear-gradient-28" x1="54.61" y1="50.62" x2="54.61" y2="45.12" xlink:href="#linear-gradient-2"/>
    <linearGradient id="linear-gradient-29" x1="-197.09" y1="-5205.49" x2="-209.07" y2="-5456.17" xlink:href="#linear-gradient"/>
    <linearGradient id="linear-gradient-30" x1="54.61" y1="63.68" x2="54.61" y2="58.18" xlink:href="#linear-gradient-2"/>
    <linearGradient id="linear-gradient-31" x1="-197.71" y1="-5205.46" x2="-209.69" y2="-5456.14" xlink:href="#linear-gradient"/>
    <linearGradient id="linear-gradient-32" x1="54.61" y1="76.73" x2="54.61" y2="71.23" xlink:href="#linear-gradient-2"/>
    <linearGradient id="linear-gradient-33" x1="-184.91" y1="-5206.08" x2="-196.89" y2="-5456.75" xlink:href="#linear-gradient"/>
    <linearGradient id="linear-gradient-34" x1="65.57" x2="65.57" xlink:href="#linear-gradient-2"/>
    <linearGradient id="linear-gradient-35" x1="-185.53" y1="-5206.05" x2="-197.51" y2="-5456.72" xlink:href="#linear-gradient"/>
    <linearGradient id="linear-gradient-36" x1="65.57" y1="50.62" x2="65.57" y2="45.12" xlink:href="#linear-gradient-2"/>
    <linearGradient id="linear-gradient-37" x1="-186.16" y1="-5206.02" x2="-198.14" y2="-5456.69" xlink:href="#linear-gradient"/>
    <linearGradient id="linear-gradient-38" x1="65.57" y1="63.68" x2="65.57" y2="58.18" xlink:href="#linear-gradient-2"/>
    <linearGradient id="linear-gradient-39" x1="-186.78" y1="-5205.99" x2="-198.76" y2="-5456.66" xlink:href="#linear-gradient"/>
    <linearGradient id="linear-gradient-40" x1="65.57" y1="76.73" x2="65.57" y2="71.23" xlink:href="#linear-gradient-2"/>
    <linearGradient id="linear-gradient-41" x1="44.85" y1="89.38" x2="44.85" y2=".52" xlink:href="#linear-gradient"/>
  </defs>
  <g>
    <circle class="cls-3" cx="21.73" cy="34.82" r="1.25"/>
    <circle class="cls-12" cx="21.73" cy="47.87" r="1.25"/>
    <circle class="cls-20" cx="21.73" cy="60.93" r="1.25"/>
    <circle class="cls-16" cx="21.73" cy="73.98" r="1.25"/>
    <circle class="cls-6" cx="32.69" cy="34.82" r="1.25"/>
    <circle class="cls-17" cx="32.69" cy="47.87" r="1.25"/>
    <circle class="cls-2" cx="32.69" cy="60.93" r="1.25"/>
    <circle class="cls-8" cx="32.69" cy="73.98" r="1.25"/>
    <circle class="cls-15" cx="43.65" cy="34.82" r="1.25"/>
    <circle class="cls-7" cx="43.65" cy="47.87" r="1.25"/>
    <circle class="cls-1" cx="43.65" cy="60.93" r="1.25"/>
    <circle class="cls-14" cx="43.65" cy="73.98" r="1.25"/>
    <circle class="cls-5" cx="54.61" cy="34.82" r="1.25"/>
    <circle class="cls-18" cx="54.61" cy="47.87" r="1.25"/>
    <circle class="cls-4" cx="54.61" cy="60.93" r="1.25"/>
    <circle class="cls-11" cx="54.61" cy="73.98" r="1.25"/>
    <circle class="cls-19" cx="65.57" cy="34.82" r="1.25"/>
    <circle class="cls-9" cx="65.57" cy="47.87" r="1.25"/>
    <circle class="cls-13" cx="65.57" cy="60.93" r="1.25"/>
    <circle class="cls-10" cx="65.57" cy="73.98" r="1.25"/>
  </g>
  <path class="cls-21" d="M11.81,22.93h65.27M78.87,81.16V8.74c0-2.88-2.34-5.22-5.22-5.22H16.05c-2.88,0-5.22,2.34-5.22,5.22v72.42c0,2.88,2.34,5.22,5.22,5.22h57.6c2.88,0,5.22-2.34,5.22-5.22Z"/>
</svg>