<?xml version="1.0" encoding="UTF-8"?>
<svg id="Layer_1" data-name="Layer 1" xmlns="http://www.w3.org/2000/svg" xmlns:xlink="http://www.w3.org/1999/xlink" viewBox="0 0 90 90">
  <defs>
    <style>
      .cls-1 {
        fill: url(#linear-gradient-2);
      }

      .cls-2 {
        fill: url(#linear-gradient-4);
      }

      .cls-3 {
        fill: url(#linear-gradient-3);
      }

      .cls-4 {
        fill: url(#linear-gradient-5);
      }

      .cls-5 {
        fill: url(#linear-gradient);
      }
    </style>
    <linearGradient id="linear-gradient" x1="44.56" y1="90.46" x2="44.56" y2="1.55" gradientUnits="userSpaceOnUse">
      <stop offset="0" stop-color="#2b3edb"/>
      <stop offset=".11" stop-color="#2d43da"/>
      <stop offset=".26" stop-color="#3552d9"/>
      <stop offset=".41" stop-color="#426bd7"/>
      <stop offset=".58" stop-color="#548fd4"/>
      <stop offset=".76" stop-color="#6cbcd1"/>
      <stop offset=".94" stop-color="#88f3cc"/>
      <stop offset=".97" stop-color="#8efecc"/>
    </linearGradient>
    <linearGradient id="linear-gradient-2" x1="77.21" y1="67.46" x2="77.21" y2="34.72" gradientUnits="userSpaceOnUse">
      <stop offset="0" stop-color="#2b3edb"/>
      <stop offset="0" stop-color="#2c40da"/>
      <stop offset=".03" stop-color="#3f65d8"/>
      <stop offset=".06" stop-color="#4f84d5"/>
      <stop offset=".09" stop-color="#5d9fd3"/>
      <stop offset=".13" stop-color="#68b5d1"/>
      <stop offset=".17" stop-color="#71c6d0"/>
      <stop offset=".22" stop-color="#77d2cf"/>
      <stop offset=".29" stop-color="#7bd9cf"/>
      <stop offset=".5" stop-color="#7cdbcf"/>
      <stop offset=".97" stop-color="#8efecc"/>
    </linearGradient>
    <linearGradient id="linear-gradient-3" x1="48.89" y1="71.41" x2="48.89" y2="54.89" gradientUnits="userSpaceOnUse">
      <stop offset="0" stop-color="#2b3edb"/>
      <stop offset=".15" stop-color="#2d43da"/>
      <stop offset=".33" stop-color="#3552d9"/>
      <stop offset=".53" stop-color="#426bd7"/>
      <stop offset=".74" stop-color="#548fd4"/>
      <stop offset=".96" stop-color="#6bbbd1"/>
      <stop offset="1" stop-color="#70c4d1"/>
    </linearGradient>
    <linearGradient id="linear-gradient-4" x1="54.28" y1="51.09" x2="54.28" y2="32.35" gradientUnits="userSpaceOnUse">
      <stop offset="0" stop-color="#2b3edb"/>
      <stop offset=".17" stop-color="#2d43da"/>
      <stop offset=".38" stop-color="#3552d9"/>
      <stop offset=".62" stop-color="#426bd7"/>
      <stop offset=".87" stop-color="#548ed4"/>
      <stop offset="1" stop-color="#60a5d3"/>
    </linearGradient>
    <linearGradient id="linear-gradient-5" x1="30.75" y1="60.89" x2="30.75" y2="41.44" gradientUnits="userSpaceOnUse">
      <stop offset="0" stop-color="#2b3edb"/>
      <stop offset=".15" stop-color="#2d43da"/>
      <stop offset=".34" stop-color="#3552d9"/>
      <stop offset=".55" stop-color="#426bd7"/>
      <stop offset=".78" stop-color="#548fd4"/>
      <stop offset="1" stop-color="#6bbad1"/>
    </linearGradient>
  </defs>
  <path class="cls-5" d="M73.14,90.46H17.24c-4.59,0-8.33-3.74-8.33-8.33V9.88c0-4.59,3.74-8.33,8.33-8.33h54.64c4.59,0,8.33,3.74,8.33,8.33v19.5c0,1.66-1.34,3-3,3s-3-1.34-3-3V9.88c0-1.28-1.04-2.33-2.33-2.33H17.24c-1.28,0-2.33,1.05-2.33,2.33v72.25c0,1.29,1.05,2.33,2.33,2.33h55.9c.59,0,1.07-.48,1.07-1.07v-8.69c0-1.66,1.34-3,3-3s3,1.34,3,3v8.69c0,3.9-3.17,7.07-7.07,7.07ZM32.17,74.8h-7.82c-1.66,0-3-1.34-3-3s1.34-3,3-3h7.82c1.66,0,3,1.34,3,3s-1.34,3-3,3Z"/>
  <path class="cls-1" d="M77.51,67.46c-1.66,0-3-1.34-3-3v-19.84l-2.9,2.9c-1.17,1.17-3.07,1.17-4.24,0s-1.17-3.07,0-4.24l7.68-7.68c.57-.57,1.38-.87,2.14-.88.8,0,1.57.33,2.13.91l7.76,7.99c1.16,1.19,1.13,3.09-.06,4.24s-3.09,1.13-4.24-.06l-2.27-2.34v19c0,1.66-1.34,3-3,3Z"/>
  <path class="cls-3" d="M48.89,71.41c-4.55,0-8.26-3.71-8.26-8.26s3.71-8.26,8.26-8.26,8.26,3.71,8.26,8.26-3.71,8.26-8.26,8.26ZM48.89,60.89c-1.25,0-2.26,1.01-2.26,2.26s1.01,2.26,2.26,2.26,2.26-1.01,2.26-2.26-1.01-2.26-2.26-2.26Z"/>
  <path class="cls-2" d="M59.62,51.09h-10.68c-1.66,0-3-1.34-3-3v-12.73c0-1.66,1.34-3,3-3h10.68c1.66,0,3,1.34,3,3v12.73c0,1.66-1.34,3-3,3ZM51.94,45.09h4.68v-6.73h-4.68v6.73Z"/>
  <path class="cls-4" d="M34.63,60.89h-7.77c-1.07,0-2.06-.57-2.6-1.5l-3.88-6.73c-.54-.93-.54-2.07,0-3l3.88-6.73c.54-.93,1.53-1.5,2.6-1.5h7.77c1.07,0,2.06.57,2.6,1.5l3.88,6.73c.54.93.54,2.07,0,3l-3.88,6.73c-.54.93-1.53,1.5-2.6,1.5ZM28.6,54.89h4.3l2.15-3.73-2.15-3.73h-4.3l-2.15,3.73,2.15,3.73Z"/>
</svg>