<?xml version="1.0" encoding="UTF-8"?><svg id="Layer_2" xmlns="http://www.w3.org/2000/svg" xmlns:xlink="http://www.w3.org/1999/xlink" viewBox="0 0 307.4 278.63"><defs><style>.cls-1{stroke:url(#linear-gradient-4);}.cls-1,.cls-2,.cls-3,.cls-4,.cls-5,.cls-6,.cls-7,.cls-8,.cls-9,.cls-10,.cls-11,.cls-12,.cls-13{fill:none;}.cls-1,.cls-2,.cls-14,.cls-4,.cls-5,.cls-6,.cls-7,.cls-9,.cls-10,.cls-11,.cls-13{stroke-miterlimit:10;}.cls-1,.cls-2,.cls-4,.cls-5,.cls-6,.cls-7,.cls-9,.cls-10,.cls-11,.cls-13{stroke-width:16.77px;}.cls-2{stroke:url(#linear-gradient);}.cls-3{stroke-dasharray:0 4.38;}.cls-3,.cls-14,.cls-8,.cls-12{stroke:#9b9c9e;}.cls-3,.cls-8,.cls-12{stroke-linecap:round;stroke-linejoin:round;}.cls-14{fill:#fff;stroke-width:1.68px;}.cls-4{stroke:url(#linear-gradient-8);}.cls-5{stroke:url(#linear-gradient-7);}.cls-6{stroke:url(#linear-gradient-6);}.cls-7{stroke:url(#linear-gradient-5);}.cls-8{stroke-dasharray:0 4.33;}.cls-15{fill:#dd9442;}.cls-9{stroke:url(#linear-gradient-2);}.cls-16{fill:#ff681d;}.cls-10{stroke:url(#linear-gradient-9);}.cls-11{stroke:url(#linear-gradient-3);}.cls-17{fill:#003edb;}.cls-13{stroke:url(#linear-gradient-10);}.cls-18{fill:#008f9a;}</style><linearGradient id="linear-gradient" x1="11.52" y1="239.37" x2="11.52" y2="278.63" gradientUnits="userSpaceOnUse"><stop offset="0" stop-color="#325aff"/><stop offset="1" stop-color="#e6ebff"/></linearGradient><linearGradient id="linear-gradient-2" x1="43.37" y1="186.56" x2="43.37" y2="278.63" gradientUnits="userSpaceOnUse"><stop offset="0" stop-color="#30bebc"/><stop offset="1" stop-color="#d5ffec"/></linearGradient><linearGradient id="linear-gradient-3" x1="75.22" y1="248.21" x2="75.22" xlink:href="#linear-gradient"/><linearGradient id="linear-gradient-4" x1="107.07" y1="207.52" x2="107.07" xlink:href="#linear-gradient-2"/><linearGradient id="linear-gradient-5" x1="138.92" y1="186.29" x2="138.92" xlink:href="#linear-gradient"/><linearGradient id="linear-gradient-6" x1="170.77" y1="173.02" x2="170.77" y2="278.63" gradientUnits="userSpaceOnUse"><stop offset="0" stop-color="#fcd151"/><stop offset="1" stop-color="#fbf4e5"/></linearGradient><linearGradient id="linear-gradient-7" x1="202.62" y1="222.85" x2="202.62" xlink:href="#linear-gradient"/><linearGradient id="linear-gradient-8" x1="234.47" y1="153.11" x2="234.47" xlink:href="#linear-gradient-2"/><linearGradient id="linear-gradient-9" x1="266.32" y1="143.82" x2="266.32" xlink:href="#linear-gradient"/><linearGradient id="linear-gradient-10" x1="298.17" y1="114.63" x2="298.17" xlink:href="#linear-gradient-2"/></defs><g id="Text__x2F__Blocks"><line class="cls-12" x1="8.39" y1="134.42" x2="8.39" y2="134.42"/><line class="cls-8" x1="11.57" y1="131.48" x2="41.78" y2="103.59"/><line class="cls-12" x1="43.37" y1="102.12" x2="43.37" y2="102.12"/><polyline class="cls-3" points="47.44 103.74 75.22 114.78 107.07 102.12 138.92 81.16 170.77 68.46 202.62 60.08 234.47 48.21 266.32 38.42 296.56 10.7"/><line class="cls-12" x1="298.17" y1="9.22" x2="298.17" y2="9.22"/><line class="cls-2" x1="11.52" y1="278.63" x2="11.52" y2="239.37"/><line class="cls-9" x1="43.37" y1="278.63" x2="43.37" y2="186.56"/><line class="cls-11" x1="75.22" y1="278.63" x2="75.22" y2="248.21"/><line class="cls-1" x1="107.07" y1="278.63" x2="107.07" y2="207.52"/><line class="cls-7" x1="138.92" y1="278.63" x2="138.92" y2="186.29"/><line class="cls-6" x1="170.77" y1="278.63" x2="170.77" y2="173.02"/><line class="cls-5" x1="202.62" y1="278.63" x2="202.62" y2="222.85"/><line class="cls-4" x1="234.47" y1="278.63" x2="234.47" y2="153.11"/><line class="cls-10" x1="266.32" y1="278.63" x2="266.32" y2="143.82"/><line class="cls-13" x1="298.17" y1="278.63" x2="298.17" y2="114.63"/><circle class="cls-15" cx="170.77" cy="173.86" r="8.39"/><circle class="cls-18" cx="43.37" cy="186.25" r="8.39"/><circle class="cls-18" cx="298.17" cy="114.63" r="8.39"/><circle class="cls-18" cx="107.07" cy="207.52" r="8.39"/><circle class="cls-18" cx="234.47" cy="153.61" r="8.39"/><circle class="cls-17" cx="75.22" cy="249.05" r="8.39"/><circle class="cls-17" cx="11.52" cy="239.82" r="8.39"/><circle class="cls-17" cx="138.92" cy="186.56" r="8.39"/><circle class="cls-17" cx="202.62" cy="222.85" r="8.39"/><circle class="cls-17" cx="266.32" cy="143.82" r="8.39"/><circle class="cls-15" cx="170.77" cy="68.46" r="8.39"/><circle class="cls-18" cx="43.37" cy="102.65" r="8.39"/><circle class="cls-14" cx="298.17" cy="9.22" r="8.39"/><circle class="cls-18" cx="107.07" cy="102.12" r="8.39"/><circle class="cls-14" cx="234.47" cy="48.21" r="8.39"/><circle class="cls-17" cx="8.39" cy="134.42" r="8.39"/><circle class="cls-17" cx="138.92" cy="81.16" r="8.39"/><circle class="cls-14" cx="266.32" cy="38.42" r="8.39"/><rect class="cls-16" x="196.69" y="54.15" width="11.86" height="11.86" transform="translate(16.87 160.87) rotate(-45)"/><rect class="cls-16" x="69.29" y="107.4" width="11.86" height="11.86" transform="translate(-58.11 86.39) rotate(-45)"/></g></svg>