<?xml version="1.0" encoding="UTF-8"?><svg id="Layer_2" xmlns="http://www.w3.org/2000/svg" xmlns:xlink="http://www.w3.org/1999/xlink" viewBox="0 0 247.36 285.47"><defs><style>.cls-1{fill:#fcd151;}.cls-2{fill:url(#linear-gradient-8);stroke:url(#linear-gradient-9);}.cls-2,.cls-3,.cls-4,.cls-5,.cls-6,.cls-7{stroke-miterlimit:10;stroke-width:10px;}.cls-8{fill:#30bebc;}.cls-9{fill:#f2f2f2;}.cls-10{fill:#96c887;}.cls-11{fill:#2b3edb;}.cls-12{stroke-dasharray:0 3.79;}.cls-12,.cls-4,.cls-5,.cls-13,.cls-6,.cls-14,.cls-15{fill:none;}.cls-12,.cls-13,.cls-14,.cls-15{stroke:#9b9c9e;stroke-linecap:round;stroke-linejoin:round;}.cls-3{fill:url(#linear-gradient);stroke:url(#linear-gradient-2);}.cls-16{fill:#fcd151;}.cls-4{stroke:url(#linear-gradient-6);}.cls-5{stroke:url(#linear-gradient-7);}.cls-17{fill:#30bebc;}.cls-13{stroke-dasharray:0 4.34;}.cls-6{stroke:url(#linear-gradient-5);}.cls-7{fill:url(#linear-gradient-3);stroke:url(#linear-gradient-4);}.cls-15{stroke-dasharray:0 4.31;}.cls-18{fill:#0018a8;}</style><linearGradient id="linear-gradient" x1="246.98" y1="99.9" x2="196.86" y2="184.7" gradientUnits="userSpaceOnUse"><stop offset="0" stop-color="#0018a8"/><stop offset=".4" stop-color="#30bebc"/><stop offset=".8" stop-color="#fcd151"/></linearGradient><linearGradient id="linear-gradient-2" x1="-3283.67" y1="-2647.66" x2="-3180.09" y2="-2647.66" gradientTransform="translate(-3701.84 1577.38) rotate(120.59)" gradientUnits="userSpaceOnUse"><stop offset=".2" stop-color="#325aff"/><stop offset=".4" stop-color="#30bebc"/><stop offset=".8" stop-color="#fcd151"/></linearGradient><linearGradient id="linear-gradient-3" x1="172.96" y1="56.15" x2="172.3" y2="57.28" xlink:href="#linear-gradient"/><linearGradient id="linear-gradient-4" x1="-829.01" y1="-2213.42" x2="-726.18" y2="-2213.42" gradientTransform="translate(-1379.85 1815.62) rotate(60.79)" xlink:href="#linear-gradient-2"/><linearGradient id="linear-gradient-5" x1="-4891.55" y1="-761.84" x2="-4788.5" y2="-761.84" gradientTransform="translate(-4667.48 -531.91) rotate(179.98)" xlink:href="#linear-gradient-2"/><linearGradient id="linear-gradient-6" x1="-4030.85" y1="1628.69" x2="-3927.63" y2="1628.69" gradientTransform="translate(-3276.12 -2466.98) rotate(-118.94)" xlink:href="#linear-gradient-2"/><linearGradient id="linear-gradient-7" x1="-1606.66" y1="2064.61" x2="-1503.54" y2="2064.61" gradientTransform="translate(-983.27 -2238.03) rotate(-59.96)" xlink:href="#linear-gradient-2"/><linearGradient id="linear-gradient-8" x1="99.47" y1="14.23" x2="49.25" y2="99.19" xlink:href="#linear-gradient"/><linearGradient id="linear-gradient-9" x1="20.43" y1="183.41" x2="123.6" y2="183.41" gradientTransform="translate(1.37 -126.31) rotate(-.31)" xlink:href="#linear-gradient-2"/></defs><g id="Blocks"><line class="cls-14" x1=".5" y1="71.62" x2=".5" y2="71.62"/><line class="cls-15" x1=".5" y1="75.93" x2=".5" y2="211.7"/><line class="cls-14" x1=".5" y1="213.85" x2=".5" y2="213.85"/><line class="cls-15" x1="4.23" y1="216.01" x2="121.81" y2="283.89"/><line class="cls-14" x1="123.68" y1="284.97" x2="123.68" y2="284.97"/><line class="cls-15" x1="127.41" y1="282.81" x2="244.99" y2="214.93"/><line class="cls-14" x1="246.86" y1="213.85" x2="246.86" y2="213.85"/><line class="cls-15" x1="246.86" y1="209.54" x2="246.86" y2="73.77"/><line class="cls-14" x1="246.86" y1="71.62" x2="246.86" y2="71.62"/><line class="cls-15" x1="243.12" y1="69.46" x2="125.54" y2="1.58"/><line class="cls-14" x1="123.68" y1=".5" x2="123.68" y2=".5"/><line class="cls-15" x1="119.95" y1="2.66" x2="2.37" y2="70.54"/><line class="cls-14" x1="67.33" y1="110.2" x2="67.33" y2="110.2"/><line class="cls-13" x1="67.33" y1="114.54" x2="67.33" y2="173.1"/><line class="cls-14" x1="67.33" y1="175.27" x2="67.33" y2="175.27"/><line class="cls-13" x1="71.09" y1="177.44" x2="121.8" y2="206.72"/><line class="cls-14" x1="123.68" y1="207.8" x2="123.68" y2="207.8"/><line class="cls-13" x1="127.43" y1="205.63" x2="178.15" y2="176.35"/><line class="cls-14" x1="180.03" y1="175.27" x2="180.03" y2="175.27"/><line class="cls-13" x1="180.03" y1="170.93" x2="180.03" y2="112.37"/><line class="cls-14" x1="180.03" y1="110.2" x2="180.03" y2="110.2"/><line class="cls-13" x1="176.27" y1="108.03" x2="125.56" y2="78.75"/><line class="cls-14" x1="123.68" y1="77.67" x2="123.68" y2="77.67"/><line class="cls-13" x1="119.92" y1="79.84" x2="69.21" y2="109.12"/><line class="cls-14" x1="87.58" y1="121.89" x2="87.58" y2="121.89"/><line class="cls-12" x1="87.58" y1="125.68" x2="87.58" y2="161.68"/><line class="cls-14" x1="87.58" y1="163.58" x2="87.58" y2="163.58"/><line class="cls-12" x1="90.86" y1="165.47" x2="122.04" y2="183.47"/><line class="cls-14" x1="123.68" y1="184.42" x2="123.68" y2="184.42"/><line class="cls-12" x1="126.96" y1="182.52" x2="158.14" y2="164.52"/><line class="cls-14" x1="159.78" y1="163.58" x2="159.78" y2="163.58"/><line class="cls-12" x1="159.78" y1="159.79" x2="159.78" y2="123.79"/><line class="cls-14" x1="159.78" y1="121.89" x2="159.78" y2="121.89"/><line class="cls-12" x1="156.5" y1="120" x2="125.32" y2="102"/><line class="cls-14" x1="123.68" y1="101.05" x2="123.68" y2="101.05"/><line class="cls-12" x1="120.4" y1="102.94" x2="89.22" y2="120.94"/><line class="cls-3" x1="221.88" y1="199.49" x2="221.95" y2="85.11"/><line class="cls-7" x1="221.95" y1="85.11" x2="123.31" y2="28.32"/><line class="cls-6" x1="123.87" y1="256.16" x2="221.88" y2="199.49"/><line class="cls-4" x1="25.45" y1="198.46" x2="123.87" y2="256.16"/><line class="cls-5" x1="25.41" y1="85.1" x2="25.45" y2="198.46"/><line class="cls-2" x1="123.31" y1="28.32" x2="25.41" y2="85.1"/><circle class="cls-16" cx="219.65" cy="85.11" r="12"/><circle class="cls-17" cx="27.35" cy="86.97" r="12"/><circle class="cls-17" cx="219.65" cy="198.6" r="12"/><circle class="cls-16" cx="28.38" cy="198.6" r="12"/><circle class="cls-18" cx="123.31" cy="31.01" r="12"/><circle class="cls-18" cx="123.68" cy="253.24" r="12"/><circle class="cls-1" cx="63.81" cy="193.09" r="2.79"/><path class="cls-1" d="M68.61,202.05v-2.46c0-2.6-2.83-2.64-2.83-2.64h-3.94s-2.83.03-2.83,2.64v2.46h9.61Z"/><circle class="cls-10" cx="77.75" cy="197.34" r="4.49"/><path class="cls-10" d="M85.48,211.77v-3.97c0-4.18-4.56-4.25-4.56-4.25h-6.35s-4.56.05-4.56,4.25v3.97h15.47Z"/><circle class="cls-8" cx="93.66" cy="207.51" r="2.79"/><path class="cls-8" d="M98.47,216.47v-2.46c0-2.6-2.83-2.64-2.83-2.64h-3.94s-2.83.03-2.83,2.64v2.46h9.61Z"/><circle class="cls-1" cx="143.63" cy="63.66" r="2.79"/><path class="cls-1" d="M148.43,72.62v-2.46c0-2.6-2.83-2.64-2.83-2.64h-3.94s-2.83.03-2.83,2.64v2.46h9.61Z"/><circle class="cls-10" cx="157.57" cy="67.92" r="4.49"/><path class="cls-10" d="M165.3,82.34v-3.97c0-4.18-4.56-4.25-4.56-4.25h-6.35s-4.56.05-4.56,4.25v3.97h15.47Z"/><circle class="cls-8" cx="173.48" cy="78.08" r="2.79"/><path class="cls-8" d="M178.29,87.04v-2.46c0-2.6-2.83-2.64-2.83-2.64h-3.94s-2.83.03-2.83,2.64v2.46h9.61Z"/><circle class="cls-1" cx="180.03" cy="192.78" r="2.79"/><path class="cls-1" d="M175.22,201.75v-2.46c0-2.6,2.83-2.64,2.83-2.64h3.94s2.83.03,2.83,2.64v2.46h-9.61Z"/><circle class="cls-10" cx="165.14" cy="198.57" r="4.49"/><path class="cls-10" d="M157.4,213v-3.97c0-4.18,4.56-4.25,4.56-4.25h6.35s4.56.05,4.56,4.25v3.97h-15.47Z"/><circle class="cls-8" cx="148.07" cy="207.21" r="2.79"/><path class="cls-8" d="M143.27,216.17v-2.46c0-2.6,2.83-2.64,2.83-2.64h3.94s2.83.03,2.83,2.64v2.46h-9.61Z"/><circle class="cls-1" cx="98.9" cy="66.79" r="2.79"/><path class="cls-1" d="M94.09,75.75v-2.46c0-2.6,2.83-2.64,2.83-2.64h3.94s2.83.03,2.83,2.64v2.46h-9.61Z"/><circle class="cls-10" cx="84.01" cy="72.58" r="4.49"/><path class="cls-10" d="M76.27,87.01v-3.97c0-4.18,4.56-4.25,4.56-4.25h6.35s4.56.05,4.56,4.25v3.97h-15.47Z"/><circle class="cls-8" cx="66.95" cy="81.21" r="2.79"/><path class="cls-8" d="M62.14,90.17v-2.46c0-2.6,2.83-2.64,2.83-2.64h3.94s2.83.03,2.83,2.64v2.46h-9.61Z"/><circle class="cls-11" cx="127.12" cy="141.78" r="30.47"/><rect class="cls-9" x="133.29" y="146.16" width="1.54" height="3.86"/><rect class="cls-9" x="130.2" y="142.3" width="1.54" height="7.72"/><path class="cls-9" d="M123.26,150.02c-2.13,0-3.86-1.73-3.86-3.86h1.54c0,1.28,1.04,2.32,2.32,2.32s2.32-1.04,2.32-2.32-1.04-2.32-2.32-2.32v-1.54c2.13,0,3.86,1.73,3.86,3.86s-1.73,3.86-3.86,3.86Z"/><path class="cls-9" d="M136.38,131.49h-18.53c-.85,0-1.54.69-1.54,1.54v18.53c0,.85.69,1.54,1.54,1.54h18.53c.85,0,1.54-.69,1.54-1.54v-18.53c0-.85-.69-1.54-1.54-1.54ZM136.38,138.44h-10.81v-5.4h10.81v5.4ZM124.03,133.03v5.4h-6.18v-5.4h6.18ZM117.85,151.56v-11.58h18.53v11.58s-18.53,0-18.53,0Z"/></g></svg>