<?xml version="1.0" encoding="UTF-8"?><svg id="Layer_2" xmlns="http://www.w3.org/2000/svg" xmlns:xlink="http://www.w3.org/1999/xlink" viewBox="0 0 272.22 148.97"><defs><style>.cls-1{stroke:url(#linear-gradient);}.cls-1,.cls-2,.cls-3,.cls-4,.cls-5,.cls-6,.cls-7,.cls-8,.cls-9,.cls-10,.cls-11,.cls-12,.cls-13,.cls-14,.cls-15{fill:none;}.cls-1,.cls-2,.cls-4,.cls-5,.cls-6,.cls-8,.cls-10,.cls-11,.cls-13,.cls-14,.cls-15{stroke-miterlimit:10;}.cls-1,.cls-4,.cls-13,.cls-14,.cls-15{stroke-width:8.43px;}.cls-16{fill:url(#linear-gradient-15);}.cls-17{fill:url(#linear-gradient-13);}.cls-2{stroke:url(#linear-gradient-14);}.cls-2,.cls-5,.cls-6,.cls-8,.cls-10,.cls-11{stroke-width:10px;}.cls-3{opacity:.75;}.cls-3,.cls-7,.cls-9,.cls-12{stroke-linecap:round;stroke-linejoin:round;}.cls-3,.cls-7,.cls-12{stroke:#9b9c9e;stroke-dasharray:0 3.8;stroke-width:.81px;}.cls-4{stroke:url(#linear-gradient-4);}.cls-5{stroke:url(#linear-gradient-8);}.cls-6{stroke:#ff7f2a;}.cls-7{opacity:.5;}.cls-8{stroke:url(#linear-gradient-10);}.cls-9{stroke:#ff681d;stroke-dasharray:0 3.94;stroke-width:.9px;}.cls-10{stroke:url(#linear-gradient-12);}.cls-18{fill:url(#linear-gradient-7);}.cls-11{stroke:url(#linear-gradient-6);}.cls-12{opacity:.25;}.cls-19{fill:url(#linear-gradient-9);}.cls-20{fill:url(#linear-gradient-11);}.cls-13{stroke:url(#linear-gradient-3);}.cls-14{stroke:url(#linear-gradient-2);}.cls-15{stroke:url(#linear-gradient-5);}</style><linearGradient id="linear-gradient" x1="40.71" y1="70.12" x2="87.14" y2="70.12" gradientUnits="userSpaceOnUse"><stop offset="0" stop-color="#325aff"/><stop offset=".4" stop-color="#30bebc"/><stop offset=".8" stop-color="#fcd151"/></linearGradient><linearGradient id="linear-gradient-2" x1="231.78" y1="93.12" x2="272.22" y2="93.12" xlink:href="#linear-gradient"/><linearGradient id="linear-gradient-3" x1="0" y1="71.12" x2="40.43" y2="71.12" xlink:href="#linear-gradient"/><linearGradient id="linear-gradient-4" x1="182.51" y1="76.12" x2="234.94" y2="76.12" xlink:href="#linear-gradient"/><linearGradient id="linear-gradient-5" x1="79.21" y1="97.53" x2="131.64" y2="97.53" xlink:href="#linear-gradient"/><linearGradient id="linear-gradient-6" x1="119.63" y1="29.63" x2="35.76" y2="29.63" gradientUnits="userSpaceOnUse"><stop offset=".2" stop-color="#325aff"/><stop offset=".5" stop-color="#30bebc"/><stop offset="1" stop-color="#fcd151"/></linearGradient><linearGradient id="linear-gradient-7" x1="119.63" x2="35.76" xlink:href="#linear-gradient-6"/><linearGradient id="linear-gradient-8" x1="152.93" y1="13.65" x2="120.36" y2="13.65" xlink:href="#linear-gradient-6"/><linearGradient id="linear-gradient-9" x1="152.93" y1="13.65" x2="120.36" y2="13.65" xlink:href="#linear-gradient-6"/><linearGradient id="linear-gradient-10" x1="190.91" y1="26.92" x2="158.34" y2="26.92" xlink:href="#linear-gradient-6"/><linearGradient id="linear-gradient-11" x1="190.91" y1="26.92" x2="158.34" y2="26.92" xlink:href="#linear-gradient-6"/><linearGradient id="linear-gradient-12" x1="223.81" y1="9.97" x2="191.24" y2="9.97" xlink:href="#linear-gradient-6"/><linearGradient id="linear-gradient-13" x1="223.81" y1="9.97" x2="191.24" y2="9.97" xlink:href="#linear-gradient-6"/><linearGradient id="linear-gradient-14" x1="261.79" y1="16.89" x2="229.22" y2="16.89" xlink:href="#linear-gradient-6"/><linearGradient id="linear-gradient-15" x1="261.79" y1="16.89" x2="229.22" y2="16.89" xlink:href="#linear-gradient-6"/></defs><g id="Text__x2F__Blocks"><circle class="cls-1" cx="63.92" cy="70.12" r="19"/><circle class="cls-14" cx="252" cy="93.12" r="16"/><circle class="cls-13" cx="20.22" cy="71.12" r="16"/><circle class="cls-3" cx="105.43" cy="97.53" r="33.27"/><circle class="cls-7" cx="105.43" cy="97.53" r="41.21"/><circle class="cls-12" cx="105.43" cy="97.53" r="51.04"/><circle class="cls-3" cx="208.72" cy="76.12" r="33.27"/><circle class="cls-7" cx="208.72" cy="76.12" r="41.21"/><circle class="cls-12" cx="208.72" cy="76.12" r="51.04"/><circle class="cls-4" cx="208.72" cy="76.12" r="22"/><circle class="cls-9" cx="158.34" cy="93.12" r="34.51"/><circle class="cls-9" cx="158.34" cy="93.12" r="42.74"/><circle class="cls-9" cx="158.34" cy="93.12" r="52.93"/><circle class="cls-6" cx="158.34" cy="93.12" r="22"/><circle class="cls-15" cx="105.43" cy="97.53" r="22"/><line class="cls-11" x1="35.76" y1="29.63" x2="105.27" y2="29.63"/><polygon class="cls-18" points="102.36 39.6 119.63 29.63 102.36 19.66 102.36 39.6"/><line class="cls-5" x1="120.36" y1="13.65" x2="138.58" y2="13.65"/><polygon class="cls-19" points="135.66 23.62 152.93 13.65 135.66 3.68 135.66 23.62"/><line class="cls-8" x1="158.34" y1="26.92" x2="176.56" y2="26.92"/><polygon class="cls-20" points="173.64 36.89 190.91 26.92 173.64 16.95 173.64 36.89"/><line class="cls-10" x1="191.24" y1="9.97" x2="209.46" y2="9.97"/><polygon class="cls-17" points="206.54 19.95 223.81 9.97 206.54 0 206.54 19.95"/><line class="cls-2" x1="229.22" y1="16.89" x2="247.44" y2="16.89"/><polygon class="cls-16" points="244.52 26.86 261.79 16.89 244.52 6.92 244.52 26.86"/></g></svg>