<?xml version="1.0" encoding="UTF-8"?><svg id="Layer_2" xmlns="http://www.w3.org/2000/svg" xmlns:xlink="http://www.w3.org/1999/xlink" viewBox="0 0 331.33 287.1"><defs><style>.cls-1{stroke:url(#linear-gradient-14);}.cls-1,.cls-2,.cls-3,.cls-4,.cls-5,.cls-6,.cls-7,.cls-8,.cls-9,.cls-10,.cls-11,.cls-12,.cls-13,.cls-14,.cls-15,.cls-16,.cls-17,.cls-18,.cls-19,.cls-20,.cls-21{fill:none;}.cls-1,.cls-4,.cls-5,.cls-7,.cls-9,.cls-11,.cls-22,.cls-12,.cls-13,.cls-14,.cls-15,.cls-23,.cls-16,.cls-17,.cls-24,.cls-19,.cls-20,.cls-25{stroke-miterlimit:10;stroke-width:10px;}.cls-26{fill:#fcd151;}.cls-2,.cls-3,.cls-6,.cls-8,.cls-10,.cls-18,.cls-21{stroke-linecap:round;stroke-linejoin:round;}.cls-2,.cls-6,.cls-8,.cls-10,.cls-18,.cls-21{stroke:#9b9c9e;}.cls-2,.cls-10{stroke-width:1.16px;}.cls-3{stroke:#ff7f2a;stroke-width:4.96px;}.cls-27{fill:#30bebc;}.cls-4{stroke:url(#linear-gradient-21);}.cls-5{stroke:url(#linear-gradient-18);}.cls-6{stroke-dasharray:0 4.31;}.cls-7{stroke:url(#linear-gradient-22);}.cls-8{stroke-dasharray:0 3.79;}.cls-9{stroke:url(#linear-gradient-4);}.cls-10{stroke-dasharray:0 5;}.cls-11{stroke:url(#linear-gradient-17);}.cls-22{fill:url(#linear-gradient);stroke:url(#linear-gradient-2);}.cls-12{stroke:url(#linear-gradient-6);}.cls-13{stroke:url(#linear-gradient-16);}.cls-14{stroke:url(#linear-gradient-20);}.cls-15{stroke:url(#linear-gradient-13);}.cls-28{fill:#0018a8;}.cls-23{fill:url(#linear-gradient-9);stroke:url(#linear-gradient-10);}.cls-16{stroke:url(#linear-gradient-15);}.cls-17{stroke:url(#linear-gradient-5);}.cls-24{fill:url(#linear-gradient-7);stroke:url(#linear-gradient-8);}.cls-19{stroke:url(#linear-gradient-19);}.cls-20{stroke:url(#linear-gradient-3);}.cls-25{fill:url(#linear-gradient-11);stroke:url(#linear-gradient-12);}.cls-21{stroke-dasharray:0 4.34;}</style><linearGradient id="linear-gradient" x1="212.09" y1="53.32" x2="211.42" y2="54.44" gradientUnits="userSpaceOnUse"><stop offset="0" stop-color="#0018a8"/><stop offset=".4" stop-color="#30bebc"/><stop offset=".8" stop-color="#fcd151"/></linearGradient><linearGradient id="linear-gradient-2" x1="-1001.92" y1="-1673.47" x2="-899.09" y2="-1673.47" gradientTransform="translate(-785.06 1700.2) rotate(60.79)" gradientUnits="userSpaceOnUse"><stop offset=".2" stop-color="#325aff"/><stop offset=".4" stop-color="#30bebc"/><stop offset=".8" stop-color="#fcd151"/></linearGradient><linearGradient id="linear-gradient-3" x1="-3095.65" y1="-1661.28" x2="-2992.07" y2="-1661.28" gradientTransform="translate(-2717.89 1914.57) rotate(120.59)" xlink:href="#linear-gradient-2"/><linearGradient id="linear-gradient-4" x1="-4139.31" y1="139.74" x2="-4036.26" y2="139.74" gradientTransform="translate(-3875.73 366.51) rotate(179.98)" xlink:href="#linear-gradient-2"/><linearGradient id="linear-gradient-5" x1="-3066.81" y1="1984.64" x2="-2963.6" y2="1984.64" gradientTransform="translate(-3082.03 -1453.92) rotate(-118.94)" xlink:href="#linear-gradient-2"/><linearGradient id="linear-gradient-6" x1="-998.05" y1="1978.81" x2="-894.93" y2="1978.81" gradientTransform="translate(-1174.57 -1671.06) rotate(-59.96)" xlink:href="#linear-gradient-2"/><linearGradient id="linear-gradient-7" x1="138.59" y1="11.4" x2="88.38" y2="96.36" xlink:href="#linear-gradient"/><linearGradient id="linear-gradient-8" x1="61.97" y1="178.68" x2="165.14" y2="178.68" gradientTransform="translate(-1.02 -124.19) rotate(-.31)" xlink:href="#linear-gradient-2"/><linearGradient id="linear-gradient-9" x1="138.57" y1="139.57" x2="138.57" y2="139.57" xlink:href="#linear-gradient"/><linearGradient id="linear-gradient-10" x1="138.89" y1="158.11" x2="138.25" y2="121.04" gradientUnits="userSpaceOnUse"><stop offset=".2" stop-color="#fcd151"/><stop offset=".6" stop-color="#30bebc"/><stop offset=".8" stop-color="#325aff"/></linearGradient><linearGradient id="linear-gradient-11" x1="136.19" y1="115.85" x2="167.69" y2="115.85" xlink:href="#linear-gradient"/><linearGradient id="linear-gradient-12" x1="136.19" y1="124.94" x2="167.7" y2="106.75" gradientTransform="matrix(1,0,0,1,0,0)" xlink:href="#linear-gradient-2"/><linearGradient id="linear-gradient-13" x1="163.14" y1="105.6" x2="194.86" y2="126.2" gradientUnits="userSpaceOnUse"><stop offset=".2" stop-color="#fcd151"/><stop offset=".49" stop-color="#30bebc"/><stop offset=".8" stop-color="#325aff"/></linearGradient><linearGradient id="linear-gradient-14" x1="192.76" y1="121.12" x2="192.76" y2="158.03" gradientTransform="matrix(1,0,0,1,0,0)" xlink:href="#linear-gradient-2"/><linearGradient id="linear-gradient-15" x1="197.11" y1="162.95" x2="160.69" y2="162.95" gradientUnits="userSpaceOnUse"><stop offset=".2" stop-color="#fcd151"/><stop offset=".5" stop-color="#30bebc"/><stop offset=".71" stop-color="#325aff"/></linearGradient><linearGradient id="linear-gradient-16" x1="168.15" y1="172.02" x2="136.27" y2="153.61" gradientUnits="userSpaceOnUse"><stop offset=".2" stop-color="#325aff"/><stop offset=".53" stop-color="#30bebc"/><stop offset=".8" stop-color="#fcd151"/></linearGradient><linearGradient id="linear-gradient-17" x1="213.33" y1="151.29" x2="239.09" y2="197.35" xlink:href="#linear-gradient-10"/><linearGradient id="linear-gradient-18" x1="153.28" y1="186.99" x2="178.12" y2="231.43" xlink:href="#linear-gradient-10"/><linearGradient id="linear-gradient-19" x1="83.91" y1="136.33" x2="126.23" y2="212.02" gradientTransform="matrix(1,0,0,1,0,0)" xlink:href="#linear-gradient-2"/><linearGradient id="linear-gradient-20" x1="92.59" y1="81.55" x2="118.09" y2="127.17" xlink:href="#linear-gradient-10"/><linearGradient id="linear-gradient-21" x1="153.65" y1="47.25" x2="178.4" y2="91.52" xlink:href="#linear-gradient-10"/><linearGradient id="linear-gradient-22" x1="205.21" y1="66.76" x2="247.42" y2="142.27" gradientTransform="matrix(1,0,0,1,0,0)" xlink:href="#linear-gradient-2"/></defs><g id="Text__x2F__Blocks"><line class="cls-22" x1="261.07" y1="82.27" x2="162.44" y2="25.49"/><line class="cls-20" x1="261.01" y1="196.65" x2="261.07" y2="82.27"/><line class="cls-9" x1="162.99" y1="253.32" x2="261.01" y2="196.65"/><line class="cls-17" x1="64.57" y1="195.63" x2="162.99" y2="253.32"/><line class="cls-12" x1="64.53" y1="82.26" x2="64.57" y2="195.63"/><line class="cls-24" x1="162.44" y1="25.49" x2="64.53" y2="82.26"/><circle class="cls-26" cx="258.77" cy="82.27" r="12"/><circle class="cls-27" cx="66.47" cy="84.13" r="12"/><circle class="cls-27" cx="258.77" cy="195.76" r="12"/><circle class="cls-26" cx="67.5" cy="195.76" r="12"/><circle class="cls-28" cx="162.44" cy="28.17" r="12"/><circle class="cls-28" cx="162.8" cy="250.41" r="12"/><line class="cls-23" x1="138.57" y1="121.12" x2="138.57" y2="158.03"/><line class="cls-25" x1="167.69" y1="106.75" x2="136.19" y2="124.94"/><line class="cls-15" x1="195.16" y1="125.26" x2="162.84" y2="106.54"/><line class="cls-1" x1="192.76" y1="158.03" x2="192.76" y2="121.12"/><line class="cls-16" x1="163.19" y1="172.02" x2="194.61" y2="153.87"/><line class="cls-13" x1="136.27" y1="153.61" x2="168.15" y2="172.02"/><line class="cls-11" x1="204.58" y1="211.72" x2="247.83" y2="136.92"/><line class="cls-5" x1="122.48" y1="209.21" x2="208.92" y2="209.21"/><line class="cls-19" x1="83.42" y1="136.68" x2="126.72" y2="211.67"/><line class="cls-14" x1="127.25" y1="67.11" x2="83.42" y2="141.61"/><line class="cls-4" x1="209.05" y1="69.38" x2="123.01" y2="69.38"/><line class="cls-7" x1="247.91" y1="141.91" x2="204.72" y2="67.11"/><line class="cls-18" x1="66.01" y1="42.07" x2="66.01" y2="42.07"/><line class="cls-6" x1="64.85" y1="46.22" x2="28.53" y2="177.04"/><line class="cls-18" x1="27.95" y1="179.12" x2="27.95" y2="179.12"/><line class="cls-6" x1="30.97" y1="182.19" x2="126.1" y2="279.06"/><line class="cls-18" x1="127.61" y1="280.6" x2="127.61" y2="280.6"/><line class="cls-6" x1="131.79" y1="279.52" x2="263.24" y2="245.57"/><line class="cls-18" x1="265.33" y1="245.03" x2="265.33" y2="245.03"/><line class="cls-6" x1="266.48" y1="240.88" x2="302.8" y2="110.06"/><line class="cls-18" x1="303.38" y1="107.98" x2="303.38" y2="107.98"/><line class="cls-6" x1="300.36" y1="104.91" x2="205.23" y2="8.04"/><line class="cls-18" x1="203.72" y1="6.5" x2="203.72" y2="6.5"/><line class="cls-6" x1="199.55" y1="7.58" x2="68.09" y2="41.53"/><line class="cls-18" x1="148.83" y1="76.44" x2="148.83" y2="76.44"/><line class="cls-21" x1="145.76" y1="79.51" x2="104.35" y2="120.92"/><line class="cls-18" x1="102.82" y1="122.45" x2="102.82" y2="122.45"/><line class="cls-21" x1="103.94" y1="126.64" x2="119.1" y2="183.2"/><line class="cls-18" x1="119.66" y1="185.3" x2="119.66" y2="185.3"/><line class="cls-21" x1="123.85" y1="186.42" x2="180.41" y2="201.58"/><line class="cls-18" x1="182.51" y1="202.14" x2="182.51" y2="202.14"/><line class="cls-21" x1="185.57" y1="199.07" x2="226.98" y2="157.66"/><line class="cls-18" x1="228.52" y1="156.13" x2="228.52" y2="156.13"/><line class="cls-21" x1="227.39" y1="151.94" x2="212.24" y2="95.38"/><line class="cls-18" x1="211.68" y1="93.28" x2="211.68" y2="93.28"/><line class="cls-21" x1="207.49" y1="92.16" x2="150.92" y2="77"/><line class="cls-18" x1="125.4" y1="150.08" x2="125.4" y2="150.08"/><line class="cls-8" x1="128.08" y1="152.76" x2="153.54" y2="178.21"/><line class="cls-18" x1="154.88" y1="179.55" x2="154.88" y2="179.55"/><line class="cls-8" x1="158.54" y1="178.57" x2="193.31" y2="169.26"/><line class="cls-18" x1="195.14" y1="168.77" x2="195.14" y2="168.77"/><line class="cls-8" x1="196.12" y1="165.11" x2="205.44" y2="130.33"/><line class="cls-18" x1="205.93" y1="128.5" x2="205.93" y2="128.5"/><line class="cls-8" x1="203.25" y1="125.82" x2="177.79" y2="100.37"/><line class="cls-18" x1="176.45" y1="99.03" x2="176.45" y2="99.03"/><line class="cls-8" x1="172.79" y1="100.01" x2="138.02" y2="109.33"/><line class="cls-18" x1="136.19" y1="109.82" x2="136.19" y2="109.82"/><line class="cls-8" x1="135.21" y1="113.48" x2="125.89" y2="148.25"/><line class="cls-2" x1="83.12" y1="286.52" x2="83.12" y2="286.52"/><line class="cls-10" x1="88.13" y1="286.52" x2="245.71" y2="286.52"/><line class="cls-2" x1="248.21" y1="286.52" x2="248.21" y2="286.52"/><line class="cls-10" x1="250.71" y1="282.19" x2="329.5" y2="145.72"/><line class="cls-2" x1="330.75" y1="143.55" x2="330.75" y2="143.55"/><line class="cls-10" x1="328.25" y1="139.22" x2="249.46" y2="2.75"/><line class="cls-2" x1="248.21" y1=".58" x2="248.21" y2=".58"/><line class="cls-10" x1="243.21" y1=".58" x2="85.62" y2=".58"/><line class="cls-2" x1="83.12" y1=".58" x2="83.12" y2=".58"/><line class="cls-10" x1="80.62" y1="4.91" x2="1.83" y2="141.38"/><line class="cls-2" x1=".58" y1="143.55" x2=".58" y2="143.55"/><line class="cls-10" x1="3.08" y1="147.88" x2="81.87" y2="284.35"/><polyline class="cls-3" points="152.1 143.55 160.37 151.82 181.31 130.89"/></g></svg>