<?xml version="1.0" encoding="UTF-8"?><svg id="Layer_2" xmlns="http://www.w3.org/2000/svg" xmlns:xlink="http://www.w3.org/1999/xlink" viewBox="0 0 283.31 272.61"><defs><style>.cls-1{stroke:url(#linear-gradient-37);}.cls-1,.cls-2,.cls-3,.cls-4,.cls-5,.cls-6,.cls-7,.cls-8,.cls-9,.cls-10,.cls-11,.cls-12,.cls-13,.cls-14,.cls-15,.cls-16,.cls-17,.cls-18,.cls-19,.cls-20,.cls-21,.cls-22,.cls-23,.cls-24,.cls-25,.cls-26,.cls-27,.cls-28,.cls-29,.cls-30,.cls-31,.cls-32,.cls-33,.cls-34,.cls-35,.cls-36,.cls-37,.cls-38,.cls-39,.cls-40,.cls-41,.cls-42,.cls-43,.cls-44,.cls-45{fill:none;stroke-miterlimit:10;stroke-width:8.29px;}.cls-2{stroke:url(#linear-gradient-41);}.cls-46{fill:#fcd151;}.cls-3{stroke:url(#linear-gradient);}.cls-4{stroke:url(#linear-gradient-8);}.cls-47{fill:#325aff;}.cls-5{stroke:url(#linear-gradient-30);}.cls-6{stroke:url(#linear-gradient-21);}.cls-48{fill:#30bebc;}.cls-7{stroke:url(#linear-gradient-31);}.cls-8{stroke:url(#linear-gradient-17);}.cls-9{stroke:url(#linear-gradient-15);}.cls-10{stroke:url(#linear-gradient-23);}.cls-11{stroke:url(#linear-gradient-24);}.cls-12{stroke:url(#linear-gradient-40);}.cls-13{stroke:url(#linear-gradient-38);}.cls-14{stroke:url(#linear-gradient-32);}.cls-15{stroke:url(#linear-gradient-2);}.cls-16{stroke:url(#linear-gradient-26);}.cls-17{stroke:url(#linear-gradient-9);}.cls-18{stroke:url(#linear-gradient-28);}.cls-19{stroke:url(#linear-gradient-18);}.cls-20{stroke:url(#linear-gradient-44);}.cls-21{stroke:url(#linear-gradient-22);}.cls-22{stroke:url(#linear-gradient-10);}.cls-23{stroke:url(#linear-gradient-29);}.cls-24{stroke:url(#linear-gradient-12);}.cls-25{stroke:url(#linear-gradient-20);}.cls-26{stroke:url(#linear-gradient-16);}.cls-27{stroke:url(#linear-gradient-45);}.cls-28{stroke:url(#linear-gradient-5);}.cls-29{stroke:url(#linear-gradient-33);}.cls-30{stroke:url(#linear-gradient-7);}.cls-31{stroke:url(#linear-gradient-35);}.cls-32{stroke:url(#linear-gradient-4);}.cls-33{stroke:url(#linear-gradient-42);}.cls-34{stroke:url(#linear-gradient-39);}.cls-35{stroke:url(#linear-gradient-25);}.cls-36{stroke:url(#linear-gradient-11);}.cls-37{stroke:url(#linear-gradient-43);}.cls-38{stroke:url(#linear-gradient-3);}.cls-39{stroke:url(#linear-gradient-14);}.cls-40{stroke:url(#linear-gradient-6);}.cls-49{fill:#ff7f2a;}.cls-41{stroke:url(#linear-gradient-36);}.cls-42{stroke:url(#linear-gradient-27);}.cls-43{stroke:url(#linear-gradient-19);}.cls-44{stroke:url(#linear-gradient-34);}.cls-45{stroke:url(#linear-gradient-13);}</style><linearGradient id="linear-gradient" x1="52.29" y1="212.05" x2="52.29" y2="263.08" gradientUnits="userSpaceOnUse"><stop offset="0" stop-color="#325aff"/><stop offset=".5" stop-color="#30bebc"/><stop offset=".8" stop-color="#fcd151"/></linearGradient><linearGradient id="linear-gradient-2" x1="47.61" y1="201.15" x2="99.03" y2="201.15" gradientUnits="userSpaceOnUse"><stop offset="0" stop-color="#325aff"/><stop offset=".5" stop-color="#30bebc"/><stop offset=".8" stop-color="#fcd151"/></linearGradient><linearGradient id="linear-gradient-3" x1="4.94" y1="200.99" x2="56.36" y2="200.99" gradientUnits="userSpaceOnUse"><stop offset=".2" stop-color="#fcd151"/><stop offset=".5" stop-color="#30bebc"/><stop offset="1" stop-color="#325aff"/></linearGradient><linearGradient id="linear-gradient-4" x1="1153.45" y1="-1782.03" x2="1206.09" y2="-1782.03" gradientTransform="translate(1050.15 2126.58) rotate(-59.98)" gradientUnits="userSpaceOnUse"><stop offset=".2" stop-color="#325aff"/><stop offset=".5" stop-color="#30bebc"/><stop offset=".8" stop-color="#fcd151"/></linearGradient><linearGradient id="linear-gradient-5" x1="4575.95" y1="177.9" x2="4628.88" y2="177.9" gradientTransform="translate(4679.25 380.91) rotate(179.39)" gradientUnits="userSpaceOnUse"><stop offset=".2" stop-color="#fcd151"/><stop offset=".5" stop-color="#30bebc"/><stop offset=".8" stop-color="#325aff"/></linearGradient><linearGradient id="linear-gradient-6" x1="1181.15" y1="2127.98" x2="1234.01" y2="2127.98" gradientTransform="translate(1248.3 -1870.38) rotate(59.41)" xlink:href="#linear-gradient-4"/><linearGradient id="linear-gradient-7" x1="1180.4" y1="-1772.21" x2="1233.22" y2="-1772.21" gradientTransform="translate(960.45 2134.76) rotate(-60.61)" xlink:href="#linear-gradient-5"/><linearGradient id="linear-gradient-8" x1="4567.04" y1="161.55" x2="4619.91" y2="161.55" gradientTransform="translate(4625.7 288.59) rotate(179.4)" xlink:href="#linear-gradient-4"/><linearGradient id="linear-gradient-9" x1="1214.64" y1="2149.43" x2="1267.24" y2="2149.43" gradientTransform="translate(1317.11 -1973.73) rotate(60.03)" xlink:href="#linear-gradient-5"/><linearGradient id="linear-gradient-10" x1="229.92" y1="210.93" x2="229.92" y2="261.96" xlink:href="#linear-gradient"/><linearGradient id="linear-gradient-11" x1="225.24" y1="200.03" x2="276.66" y2="200.03" xlink:href="#linear-gradient-2"/><linearGradient id="linear-gradient-12" x1="182.57" y1="199.87" x2="233.99" y2="199.87" xlink:href="#linear-gradient-3"/><linearGradient id="linear-gradient-13" x1="1243.28" y1="-1628.79" x2="1295.92" y2="-1628.79" xlink:href="#linear-gradient-4"/><linearGradient id="linear-gradient-14" x1="4398.32" y1="177.13" x2="4451.24" y2="177.13" xlink:href="#linear-gradient-5"/><linearGradient id="linear-gradient-15" x1="1270.57" y1="1974.49" x2="1323.43" y2="1974.49" gradientTransform="translate(1248.3 -1870.38) rotate(59.41)" xlink:href="#linear-gradient-4"/><linearGradient id="linear-gradient-16" x1="1268.55" y1="-1618" x2="1321.38" y2="-1618" gradientTransform="translate(960.45 2134.76) rotate(-60.61)" xlink:href="#linear-gradient-5"/><linearGradient id="linear-gradient-17" x1="4389.41" y1="160.81" x2="4442.27" y2="160.81" gradientTransform="translate(4625.7 288.59) rotate(179.4)" xlink:href="#linear-gradient-4"/><linearGradient id="linear-gradient-18" x1="1302.42" y1="1995" x2="1355.02" y2="1995" gradientTransform="translate(1317.11 -1973.73) rotate(60.03)" xlink:href="#linear-gradient-5"/><linearGradient id="linear-gradient-19" x1="4640.75" y1="58.05" x2="4640.75" y2="109.09" gradientTransform="translate(4782.13) rotate(-180) scale(1 -1)" xlink:href="#linear-gradient"/><linearGradient id="linear-gradient-20" x1="4636.07" y1="47.15" x2="4687.49" y2="47.15" gradientTransform="translate(4782.13) rotate(-180) scale(1 -1)" xlink:href="#linear-gradient-2"/><linearGradient id="linear-gradient-21" x1="4593.4" y1="47" x2="4644.82" y2="47" gradientTransform="translate(4782.13) rotate(-180) scale(1 -1)" xlink:href="#linear-gradient-3"/><linearGradient id="linear-gradient-22" x1="3582.35" y1="2113.87" x2="3634.99" y2="2113.87" gradientTransform="translate(3731.98 2126.58) rotate(-120.02) scale(1 -1)" xlink:href="#linear-gradient-4"/><linearGradient id="linear-gradient-23" x1="-13.89" y1="283.11" x2="39.04" y2="283.11" gradientTransform="translate(102.88 380.91) rotate(.61) scale(1 -1)" xlink:href="#linear-gradient-5"/><linearGradient id="linear-gradient-24" x1="3383.32" y1="-1900.44" x2="3436.18" y2="-1900.44" gradientTransform="translate(3533.83 -1870.38) rotate(120.59) scale(1 -1)" xlink:href="#linear-gradient-4"/><linearGradient id="linear-gradient-25" x1="3566.5" y1="2150.05" x2="3619.33" y2="2150.05" gradientTransform="translate(3821.68 2134.76) rotate(-119.39) scale(1 -1)" xlink:href="#linear-gradient-5"/><linearGradient id="linear-gradient-26" x1="-22.78" y1="267.52" x2="30.09" y2="267.52" gradientTransform="translate(156.43 288.59) rotate(.6) scale(1 -1)" xlink:href="#linear-gradient-4"/><linearGradient id="linear-gradient-27" x1="3373.74" y1="-1902.24" x2="3426.34" y2="-1902.24" gradientTransform="translate(3465.03 -1973.73) rotate(119.97) scale(1 -1)" xlink:href="#linear-gradient-5"/><linearGradient id="linear-gradient-28" x1="4685.07" y1="134.86" x2="4685.07" y2="185.9" gradientTransform="translate(4782.13) rotate(-180) scale(1 -1)" xlink:href="#linear-gradient"/><linearGradient id="linear-gradient-29" x1="4680.39" y1="123.96" x2="4731.81" y2="123.96" gradientTransform="translate(4782.13) rotate(-180) scale(1 -1)" xlink:href="#linear-gradient-2"/><linearGradient id="linear-gradient-30" x1="4637.72" y1="123.81" x2="4689.14" y2="123.81" gradientTransform="translate(4782.13) rotate(-180) scale(1 -1)" xlink:href="#linear-gradient-3"/><linearGradient id="linear-gradient-31" x1="3538.02" y1="2190.67" x2="3590.66" y2="2190.67" gradientTransform="translate(3731.98 2126.58) rotate(-120.02) scale(1 -1)" xlink:href="#linear-gradient-4"/><linearGradient id="linear-gradient-32" x1="-57.39" y1="205.83" x2="-4.46" y2="205.83" gradientTransform="translate(102.88 380.91) rotate(.61) scale(1 -1)" xlink:href="#linear-gradient-5"/><linearGradient id="linear-gradient-33" x1="3472" y1="-1899.51" x2="3524.86" y2="-1899.51" gradientTransform="translate(3533.83 -1870.38) rotate(120.59) scale(1 -1)" xlink:href="#linear-gradient-4"/><linearGradient id="linear-gradient-34" x1="3521.33" y1="2226.37" x2="3574.16" y2="2226.37" gradientTransform="translate(3821.68 2134.76) rotate(-119.39) scale(1 -1)" xlink:href="#linear-gradient-5"/><linearGradient id="linear-gradient-35" x1="-66.29" y1="190.25" x2="-13.43" y2="190.25" gradientTransform="translate(156.43 288.59) rotate(.6) scale(1 -1)" xlink:href="#linear-gradient-4"/><linearGradient id="linear-gradient-36" x1="3462.41" y1="-1902.25" x2="3515.01" y2="-1902.25" gradientTransform="translate(3465.03 -1973.73) rotate(119.97) scale(1 -1)" xlink:href="#linear-gradient-5"/><linearGradient id="linear-gradient-37" x1="9.73" y1="134.11" x2="9.73" y2="185.15" gradientTransform="translate(175.41)" xlink:href="#linear-gradient"/><linearGradient id="linear-gradient-38" x1="5.05" y1="123.21" x2="56.47" y2="123.21" gradientTransform="translate(175.41)" xlink:href="#linear-gradient-2"/><linearGradient id="linear-gradient-39" x1="-37.62" y1="123.05" x2="13.8" y2="123.05" gradientTransform="translate(175.41)" xlink:href="#linear-gradient-3"/><linearGradient id="linear-gradient-40" x1="1199.64" y1="-1857.88" x2="1252.28" y2="-1857.88" gradientTransform="translate(1225.56 2126.58) rotate(-59.98)" xlink:href="#linear-gradient-4"/><linearGradient id="linear-gradient-41" x1="4617.68" y1="256.28" x2="4670.6" y2="256.28" gradientTransform="translate(4854.66 380.91) rotate(179.39)" xlink:href="#linear-gradient-5"/><linearGradient id="linear-gradient-42" x1="1092.4" y1="2124.96" x2="1145.26" y2="2124.96" gradientTransform="translate(1423.71 -1870.38) rotate(59.41)" xlink:href="#linear-gradient-4"/><linearGradient id="linear-gradient-43" x1="1227.41" y1="-1847.54" x2="1280.24" y2="-1847.54" gradientTransform="translate(1135.86 2134.76) rotate(-60.61)" xlink:href="#linear-gradient-5"/><linearGradient id="linear-gradient-44" x1="4608.78" y1="239.93" x2="4661.65" y2="239.93" gradientTransform="translate(4801.11 288.59) rotate(179.4)" xlink:href="#linear-gradient-4"/><linearGradient id="linear-gradient-45" x1="1125.87" y1="2147.36" x2="1178.47" y2="2147.36" gradientTransform="translate(1492.51 -1973.73) rotate(60.03)" xlink:href="#linear-gradient-5"/></defs><g id="Text__x2F__Blocks"><line class="cls-3" x1="52.29" y1="263.08" x2="52.29" y2="212.05"/><line class="cls-15" x1="96.96" y1="187.5" x2="49.68" y2="214.79"/><line class="cls-38" x1="54.29" y1="214.64" x2="7.01" y2="187.34"/><line class="cls-32" x1="97.39" y1="185.53" x2="97.39" y2="241.54"/><line class="cls-28" x1="50.93" y1="266" x2="99.48" y2="237.88"/><line class="cls-40" x1="55.09" y1="265.97" x2="6.61" y2="237.95"/><line class="cls-30" x1="8.63" y1="185.53" x2="8.64" y2="241.49"/><line class="cls-4" x1="6.53" y1="189.09" x2="55.04" y2="161.14"/><line class="cls-17" x1="99.46" y1="189.08" x2="50.89" y2="161.18"/><circle class="cls-47" cx="8.29" cy="188.08" r="8.29"/><circle class="cls-47" cx="97.39" cy="238.67" r="8.29"/><circle class="cls-48" cx="52.04" cy="161.91" r="8.29"/><circle class="cls-46" cx="8.4" cy="239.17" r="8.29"/><circle class="cls-46" cx="96.84" cy="187.57" r="8.29"/><circle class="cls-48" cx="52.29" cy="264.32" r="8.29"/><circle class="cls-48" cx="52.29" cy="213.29" r="8.29"/><line class="cls-22" x1="229.92" y1="261.96" x2="229.92" y2="210.93"/><line class="cls-36" x1="274.59" y1="186.38" x2="227.31" y2="213.67"/><line class="cls-24" x1="231.92" y1="213.52" x2="184.64" y2="186.22"/><line class="cls-45" x1="275.02" y1="184.41" x2="275.02" y2="240.42"/><line class="cls-39" x1="228.56" y1="264.88" x2="277.11" y2="236.76"/><line class="cls-9" x1="232.72" y1="264.86" x2="184.24" y2="236.83"/><line class="cls-26" x1="186.27" y1="184.41" x2="186.27" y2="240.38"/><line class="cls-8" x1="184.16" y1="187.97" x2="232.68" y2="160.02"/><line class="cls-19" x1="277.1" y1="187.96" x2="228.52" y2="160.06"/><circle class="cls-47" cx="185.28" cy="186.47" r="8.29"/><circle class="cls-47" cx="275.02" cy="237.97" r="8.29"/><circle class="cls-48" cx="230.69" cy="161.16" r="8.29"/><circle class="cls-46" cx="186.03" cy="238.05" r="8.29"/><circle class="cls-46" cx="274.47" cy="186.45" r="8.29"/><circle class="cls-48" cx="229.92" cy="263.2" r="8.29"/><circle class="cls-48" cx="229.92" cy="212.17" r="8.29"/><line class="cls-43" x1="141.39" y1="109.09" x2="141.39" y2="58.05"/><line class="cls-25" x1="96.72" y1="33.51" x2="143.99" y2="60.8"/><line class="cls-6" x1="139.39" y1="60.64" x2="186.66" y2="33.35"/><line class="cls-21" x1="96.28" y1="31.54" x2="96.28" y2="87.55"/><line class="cls-10" x1="142.74" y1="112.01" x2="94.19" y2="83.89"/><line class="cls-11" x1="138.59" y1="111.98" x2="187.07" y2="83.96"/><line class="cls-35" x1="185.04" y1="31.54" x2="185.04" y2="87.5"/><line class="cls-16" x1="187.14" y1="35.1" x2="138.63" y2="7.14"/><line class="cls-42" x1="94.21" y1="35.08" x2="142.79" y2="7.19"/><circle class="cls-47" cx="185.38" cy="34.09" r="8.29"/><circle class="cls-47" cx="96.28" cy="85.1" r="8.29"/><circle class="cls-48" cx="140.62" cy="8.29" r="8.29"/><circle class="cls-46" cx="185.28" cy="85.18" r="8.29"/><circle class="cls-46" cx="96.84" cy="33.58" r="8.29"/><circle class="cls-48" cx="141.39" cy="110.33" r="8.29"/><circle class="cls-48" cx="141.39" cy="59.29" r="8.29"/><line class="cls-18" x1="97.07" y1="185.9" x2="97.07" y2="134.86"/><line class="cls-23" x1="52.4" y1="110.31" x2="99.67" y2="137.61"/><line class="cls-5" x1="95.07" y1="137.45" x2="142.34" y2="110.16"/><line class="cls-7" x1="51.96" y1="108.35" x2="51.96" y2="164.36"/><line class="cls-14" x1="98.42" y1="188.82" x2="49.87" y2="160.7"/><line class="cls-29" x1="94.27" y1="188.79" x2="142.75" y2="160.77"/><line class="cls-44" x1="140.72" y1="108.35" x2="140.72" y2="164.31"/><line class="cls-31" x1="142.82" y1="111.91" x2="94.31" y2="83.95"/><line class="cls-41" x1="49.89" y1="111.89" x2="98.47" y2="84"/><circle class="cls-47" cx="141.06" cy="110.9" r="8.29"/><circle class="cls-47" cx="51.96" cy="161.91" r="8.29"/><circle class="cls-48" cx="96.3" cy="85.1" r="8.29"/><circle class="cls-46" cx="141.2" cy="161.77" r="8.29"/><circle class="cls-46" cx="52.52" cy="110.38" r="8.29"/><circle class="cls-48" cx="97.07" cy="187.14" r="8.29"/><circle class="cls-48" cx="97.07" cy="136.1" r="8.29"/><line class="cls-1" x1="185.13" y1="185.15" x2="185.13" y2="134.11"/><line class="cls-13" x1="229.8" y1="109.56" x2="182.53" y2="136.86"/><line class="cls-34" x1="187.13" y1="136.7" x2="139.86" y2="109.41"/><line class="cls-12" x1="230.24" y1="107.6" x2="230.24" y2="163.6"/><line class="cls-2" x1="183.78" y1="188.07" x2="232.33" y2="159.94"/><line class="cls-33" x1="187.93" y1="188.04" x2="139.45" y2="160.01"/><line class="cls-37" x1="141.48" y1="107.6" x2="141.48" y2="163.56"/><line class="cls-20" x1="139.38" y1="111.16" x2="187.89" y2="83.2"/><line class="cls-27" x1="232.31" y1="111.14" x2="183.73" y2="83.24"/><circle class="cls-47" cx="141.13" cy="110.14" r="8.29"/><circle class="cls-47" cx="230.24" cy="161.15" r="8.29"/><circle class="cls-48" cx="185.9" cy="84.35" r="8.29"/><circle class="cls-49" cx="140.81" cy="161.52" r="8.29"/><circle class="cls-46" cx="229.68" cy="109.63" r="8.29"/><circle class="cls-48" cx="185.13" cy="186.39" r="8.29"/><circle class="cls-48" cx="185.13" cy="135.35" r="8.29"/></g></svg>