<?xml version="1.0" encoding="UTF-8"?><svg id="Layer_2" xmlns="http://www.w3.org/2000/svg" xmlns:xlink="http://www.w3.org/1999/xlink" viewBox="0 0 283.16 246.9"><defs><style>.cls-1{stroke:url(#linear-gradient-37);}.cls-1,.cls-2,.cls-3,.cls-4,.cls-5,.cls-6,.cls-7,.cls-8,.cls-9,.cls-10,.cls-11,.cls-12,.cls-13,.cls-14,.cls-15,.cls-16,.cls-17,.cls-18,.cls-19,.cls-20,.cls-21,.cls-22,.cls-23,.cls-24,.cls-25,.cls-26,.cls-27,.cls-28,.cls-29,.cls-30,.cls-31,.cls-32,.cls-33,.cls-34,.cls-35,.cls-36,.cls-37,.cls-38,.cls-39,.cls-40,.cls-41,.cls-42,.cls-43,.cls-44,.cls-45{fill:none;stroke-miterlimit:10;stroke-width:8.29px;}.cls-2{stroke:url(#linear-gradient-41);}.cls-46{fill:#fcd151;}.cls-3{stroke:url(#linear-gradient);}.cls-4{stroke:url(#linear-gradient-8);}.cls-47{fill:#325aff;}.cls-5{stroke:url(#linear-gradient-30);}.cls-6{stroke:url(#linear-gradient-21);}.cls-48{fill:#30bebc;}.cls-7{stroke:url(#linear-gradient-31);}.cls-8{stroke:url(#linear-gradient-17);}.cls-9{stroke:url(#linear-gradient-15);}.cls-10{stroke:url(#linear-gradient-23);}.cls-11{stroke:url(#linear-gradient-24);}.cls-12{stroke:url(#linear-gradient-40);}.cls-13{stroke:url(#linear-gradient-38);}.cls-14{stroke:url(#linear-gradient-32);}.cls-15{stroke:url(#linear-gradient-2);}.cls-16{stroke:url(#linear-gradient-26);}.cls-17{stroke:url(#linear-gradient-9);}.cls-18{stroke:url(#linear-gradient-28);}.cls-19{stroke:url(#linear-gradient-18);}.cls-20{stroke:url(#linear-gradient-44);}.cls-21{stroke:url(#linear-gradient-22);}.cls-22{stroke:url(#linear-gradient-10);}.cls-23{stroke:url(#linear-gradient-29);}.cls-24{stroke:url(#linear-gradient-12);}.cls-25{stroke:url(#linear-gradient-20);}.cls-26{stroke:url(#linear-gradient-16);}.cls-27{stroke:url(#linear-gradient-45);}.cls-28{stroke:url(#linear-gradient-5);}.cls-29{stroke:url(#linear-gradient-33);}.cls-30{stroke:url(#linear-gradient-7);}.cls-31{stroke:url(#linear-gradient-35);}.cls-32{stroke:url(#linear-gradient-4);}.cls-33{stroke:url(#linear-gradient-42);}.cls-34{stroke:url(#linear-gradient-39);}.cls-35{stroke:url(#linear-gradient-25);}.cls-36{stroke:url(#linear-gradient-11);}.cls-37{stroke:url(#linear-gradient-43);}.cls-38{stroke:url(#linear-gradient-3);}.cls-39{stroke:url(#linear-gradient-14);}.cls-40{stroke:url(#linear-gradient-6);}.cls-41{stroke:url(#linear-gradient-36);}.cls-42{stroke:url(#linear-gradient-27);}.cls-43{stroke:url(#linear-gradient-19);}.cls-44{stroke:url(#linear-gradient-34);}.cls-45{stroke:url(#linear-gradient-13);}</style><linearGradient id="linear-gradient" x1="52.29" y1="135.25" x2="52.29" y2="186.29" gradientUnits="userSpaceOnUse"><stop offset="0" stop-color="#325aff"/><stop offset=".5" stop-color="#30bebc"/><stop offset=".8" stop-color="#fcd151"/></linearGradient><linearGradient id="linear-gradient-2" x1="47.61" y1="124.35" x2="99.03" y2="124.35" gradientUnits="userSpaceOnUse"><stop offset="0" stop-color="#325aff"/><stop offset=".5" stop-color="#30bebc"/><stop offset=".8" stop-color="#fcd151"/></linearGradient><linearGradient id="linear-gradient-3" x1="4.94" y1="124.19" x2="56.36" y2="124.19" gradientUnits="userSpaceOnUse"><stop offset=".2" stop-color="#fcd151"/><stop offset=".5" stop-color="#30bebc"/><stop offset="1" stop-color="#325aff"/></linearGradient><linearGradient id="linear-gradient-4" x1="57.71" y1="145.6" x2="110.35" y2="145.6" gradientTransform="translate(-70.72 136.66) rotate(-59.98)" gradientUnits="userSpaceOnUse"><stop offset=".2" stop-color="#325aff"/><stop offset=".5" stop-color="#30bebc"/><stop offset=".8" stop-color="#fcd151"/></linearGradient><linearGradient id="linear-gradient-5" x1="6.66" y1="182.64" x2="59.59" y2="182.64" gradientTransform="translate(110.27 357.42) rotate(179.39)" gradientUnits="userSpaceOnUse"><stop offset=".2" stop-color="#fcd151"/><stop offset=".5" stop-color="#30bebc"/><stop offset=".8" stop-color="#325aff"/></linearGradient><linearGradient id="linear-gradient-6" x1="13.56" y1="110.58" x2="66.42" y2="110.58" gradientTransform="translate(105.69 84.48) rotate(59.41)" xlink:href="#linear-gradient-4"/><linearGradient id="linear-gradient-7" x1="63.23" y1="168.32" x2="116.05" y2="168.32" gradientTransform="translate(-182.01 132.21) rotate(-60.61)" xlink:href="#linear-gradient-5"/><linearGradient id="linear-gradient-8" x1="-2.24" y1="166.67" x2="50.63" y2="166.67" gradientTransform="translate(56.72 264.73) rotate(179.4)" xlink:href="#linear-gradient-4"/><linearGradient id="linear-gradient-9" x1="25.73" y1="120.24" x2="78.33" y2="120.24" gradientTransform="translate(153.34 -6.81) rotate(60.03)" xlink:href="#linear-gradient-5"/><linearGradient id="linear-gradient-10" x1="229.77" y1="134.79" x2="229.77" y2="185.82" xlink:href="#linear-gradient"/><linearGradient id="linear-gradient-11" x1="225.09" y1="123.88" x2="276.51" y2="123.88" xlink:href="#linear-gradient-2"/><linearGradient id="linear-gradient-12" x1="182.42" y1="123.73" x2="233.84" y2="123.73" xlink:href="#linear-gradient-3"/><linearGradient id="linear-gradient-13" x1="146.91" y1="299.04" x2="199.55" y2="299.04" xlink:href="#linear-gradient-4"/><linearGradient id="linear-gradient-14" x1="-170.82" y1="181.22" x2="-117.89" y2="181.22" xlink:href="#linear-gradient-5"/><linearGradient id="linear-gradient-15" x1="103.46" y1="-42.45" x2="156.32" y2="-42.45" gradientTransform="translate(105.69 84.48) rotate(59.41)" xlink:href="#linear-gradient-4"/><linearGradient id="linear-gradient-16" x1="150.74" y1="322.72" x2="203.56" y2="322.72" gradientTransform="translate(-182.01 132.21) rotate(-60.61)" xlink:href="#linear-gradient-5"/><linearGradient id="linear-gradient-17" x1="-179.72" y1="165.28" x2="-126.85" y2="165.28" gradientTransform="translate(56.72 264.73) rotate(179.4)" xlink:href="#linear-gradient-4"/><linearGradient id="linear-gradient-18" x1="114" y1="-33.74" x2="166.6" y2="-33.74" gradientTransform="translate(153.34 -6.81) rotate(60.03)" xlink:href="#linear-gradient-5"/><linearGradient id="linear-gradient-19" x1="71.39" y1="186.33" x2="71.39" y2="237.37" gradientTransform="translate(213.28) rotate(-180) scale(1 -1)" xlink:href="#linear-gradient"/><linearGradient id="linear-gradient-20" x1="66.71" y1="175.43" x2="118.13" y2="175.43" gradientTransform="translate(213.28) rotate(-180) scale(1 -1)" xlink:href="#linear-gradient-2"/><linearGradient id="linear-gradient-21" x1="24.04" y1="175.27" x2="75.46" y2="175.27" gradientTransform="translate(213.28) rotate(-180) scale(1 -1)" xlink:href="#linear-gradient-3"/><linearGradient id="linear-gradient-22" x1="23.04" y1="187.69" x2="75.68" y2="187.69" gradientTransform="translate(284 136.66) rotate(-120.02) scale(1 -1)" xlink:href="#linear-gradient-4"/><linearGradient id="linear-gradient-23" x1="-11.89" y1="131.36" x2="41.03" y2="131.36" gradientTransform="translate(103.01 357.42) rotate(.61) scale(1 -1)" xlink:href="#linear-gradient-5"/><linearGradient id="linear-gradient-24" x1="67.25" y1="120.13" x2="120.11" y2="120.13" gradientTransform="translate(107.59 84.48) rotate(120.59) scale(1 -1)" xlink:href="#linear-gradient-4"/><linearGradient id="linear-gradient-25" x1="28.1" y1="210.03" x2="80.92" y2="210.03" gradientTransform="translate(395.29 132.21) rotate(-119.39) scale(1 -1)" xlink:href="#linear-gradient-5"/><linearGradient id="linear-gradient-26" x1="-20.81" y1="115.39" x2="32.06" y2="115.39" gradientTransform="translate(156.56 264.73) rotate(.6) scale(1 -1)" xlink:href="#linear-gradient-4"/><linearGradient id="linear-gradient-27" x1="79.52" y1="129.21" x2="132.12" y2="129.21" gradientTransform="translate(59.94 -6.81) rotate(119.97) scale(1 -1)" xlink:href="#linear-gradient-5"/><linearGradient id="linear-gradient-28" x1="116.14" y1="58.07" x2="116.14" y2="109.1" gradientTransform="translate(213.28) rotate(-180) scale(1 -1)" xlink:href="#linear-gradient"/><linearGradient id="linear-gradient-29" x1="111.46" y1="47.17" x2="162.88" y2="47.17" gradientTransform="translate(213.28) rotate(-180) scale(1 -1)" xlink:href="#linear-gradient-2"/><linearGradient id="linear-gradient-30" x1="68.79" y1="47.01" x2="120.21" y2="47.01" gradientTransform="translate(213.28) rotate(-180) scale(1 -1)" xlink:href="#linear-gradient-3"/><linearGradient id="linear-gradient-31" x1="156.49" y1="162.27" x2="209.13" y2="162.27" gradientTransform="translate(284 136.66) rotate(-120.02) scale(1 -1)" xlink:href="#linear-gradient-4"/><linearGradient id="linear-gradient-32" x1="-58.01" y1="259.14" x2="-5.08" y2="259.14" gradientTransform="translate(103.01 357.42) rotate(.61) scale(1 -1)" xlink:href="#linear-gradient-5"/><linearGradient id="linear-gradient-33" x1="-20.4" y1="16.34" x2="32.46" y2="16.34" gradientTransform="translate(107.59 84.48) rotate(120.59) scale(1 -1)" xlink:href="#linear-gradient-4"/><linearGradient id="linear-gradient-34" x1="161.81" y1="186.07" x2="214.64" y2="186.07" gradientTransform="translate(395.29 132.21) rotate(-119.39) scale(1 -1)" xlink:href="#linear-gradient-5"/><linearGradient id="linear-gradient-35" x1="-66.9" y1="243.18" x2="-14.03" y2="243.18" gradientTransform="translate(156.56 264.73) rotate(.6) scale(1 -1)" xlink:href="#linear-gradient-4"/><linearGradient id="linear-gradient-36" x1="-9.23" y1="26.36" x2="43.37" y2="26.36" gradientTransform="translate(59.94 -6.81) rotate(119.97) scale(1 -1)" xlink:href="#linear-gradient-5"/><linearGradient id="linear-gradient-37" x1="9.73" y1="58.05" x2="9.73" y2="109.09" gradientTransform="translate(175.41)" xlink:href="#linear-gradient"/><linearGradient id="linear-gradient-38" x1="5.05" y1="47.15" x2="56.47" y2="47.15" gradientTransform="translate(175.41)" xlink:href="#linear-gradient-2"/><linearGradient id="linear-gradient-39" x1="-37.62" y1="47" x2="13.8" y2="47" gradientTransform="translate(175.41)" xlink:href="#linear-gradient-3"/><linearGradient id="linear-gradient-40" x1="103.26" y1="70.13" x2="155.91" y2="70.13" gradientTransform="translate(104.69 136.66) rotate(-59.98)" xlink:href="#linear-gradient-4"/><linearGradient id="linear-gradient-41" x1="48.4" y1="260.28" x2="101.32" y2="260.28" gradientTransform="translate(285.68 357.42) rotate(179.39)" xlink:href="#linear-gradient-5"/><linearGradient id="linear-gradient-42" x1="-74.56" y1="107.94" x2="-21.7" y2="107.94" gradientTransform="translate(281.1 84.48) rotate(59.41)" xlink:href="#linear-gradient-4"/><linearGradient id="linear-gradient-43" x1="109.6" y1="93.35" x2="162.43" y2="93.35" gradientTransform="translate(-6.6 132.21) rotate(-60.61)" xlink:href="#linear-gradient-5"/><linearGradient id="linear-gradient-44" x1="39.51" y1="244.31" x2="92.37" y2="244.31" gradientTransform="translate(232.13 264.73) rotate(179.4)" xlink:href="#linear-gradient-4"/><linearGradient id="linear-gradient-45" x1="-62.41" y1="118.53" x2="-9.81" y2="118.53" gradientTransform="translate(328.74 -6.81) rotate(60.03)" xlink:href="#linear-gradient-5"/></defs><g id="Blocks"><line class="cls-3" x1="52.29" y1="186.29" x2="52.29" y2="135.25"/><line class="cls-15" x1="96.96" y1="110.7" x2="49.68" y2="138"/><line class="cls-38" x1="54.29" y1="137.84" x2="7.01" y2="110.55"/><line class="cls-32" x1="97.39" y1="108.74" x2="97.39" y2="164.75"/><line class="cls-28" x1="50.93" y1="189.21" x2="99.48" y2="161.09"/><line class="cls-40" x1="55.09" y1="189.18" x2="6.61" y2="161.16"/><line class="cls-30" x1="8.63" y1="108.74" x2="8.64" y2="164.7"/><line class="cls-4" x1="6.53" y1="112.3" x2="55.04" y2="84.34"/><line class="cls-17" x1="99.46" y1="112.28" x2="50.89" y2="84.39"/><circle class="cls-47" cx="8.29" cy="111.29" r="8.29"/><circle class="cls-47" cx="97.39" cy="161.88" r="8.29"/><circle class="cls-48" cx="52.04" cy="85.11" r="8.29"/><circle class="cls-46" cx="8.4" cy="162.38" r="8.29"/><circle class="cls-46" cx="96.84" cy="110.77" r="8.29"/><circle class="cls-48" cx="52.29" cy="187.53" r="8.29"/><circle class="cls-48" cx="52.29" cy="136.49" r="8.29"/><line class="cls-22" x1="229.77" y1="185.82" x2="229.77" y2="134.79"/><line class="cls-36" x1="274.44" y1="110.24" x2="227.16" y2="137.53"/><line class="cls-24" x1="231.77" y1="137.37" x2="184.5" y2="110.08"/><line class="cls-45" x1="274.87" y1="108.27" x2="274.87" y2="164.28"/><line class="cls-39" x1="228.42" y1="188.74" x2="276.97" y2="160.62"/><line class="cls-9" x1="232.57" y1="188.71" x2="184.09" y2="160.69"/><line class="cls-26" x1="186.12" y1="108.27" x2="186.12" y2="164.23"/><line class="cls-8" x1="184.02" y1="111.83" x2="232.53" y2="83.87"/><line class="cls-19" x1="276.95" y1="111.82" x2="228.37" y2="83.92"/><circle class="cls-47" cx="185.14" cy="110.33" r="8.29"/><circle class="cls-47" cx="274.87" cy="161.83" r="8.29"/><circle class="cls-48" cx="230.54" cy="85.02" r="8.29"/><circle class="cls-46" cx="185.88" cy="161.91" r="8.29"/><circle class="cls-46" cx="274.32" cy="110.31" r="8.29"/><circle class="cls-48" cx="229.77" cy="187.06" r="8.29"/><circle class="cls-48" cx="229.77" cy="136.03" r="8.29"/><line class="cls-43" x1="141.89" y1="237.37" x2="141.89" y2="186.33"/><line class="cls-25" x1="97.22" y1="161.78" x2="144.5" y2="189.08"/><line class="cls-6" x1="139.89" y1="188.92" x2="187.17" y2="161.63"/><line class="cls-21" x1="96.79" y1="159.82" x2="96.79" y2="215.83"/><line class="cls-10" x1="143.25" y1="240.29" x2="94.7" y2="212.17"/><line class="cls-11" x1="139.09" y1="240.26" x2="187.57" y2="212.24"/><line class="cls-35" x1="185.54" y1="159.82" x2="185.54" y2="215.78"/><line class="cls-16" x1="187.65" y1="163.38" x2="139.14" y2="135.42"/><line class="cls-42" x1="94.72" y1="163.36" x2="143.29" y2="135.47"/><circle class="cls-47" cx="185.89" cy="162.37" r="8.29"/><circle class="cls-47" cx="96.79" cy="213.38" r="8.29"/><circle class="cls-48" cx="141.12" cy="136.57" r="8.29"/><circle class="cls-46" cx="185.78" cy="213.46" r="8.29"/><circle class="cls-46" cx="97.34" cy="161.85" r="8.29"/><circle class="cls-48" cx="141.89" cy="238.61" r="8.29"/><circle class="cls-48" cx="141.89" cy="187.57" r="8.29"/><line class="cls-18" x1="97.14" y1="109.1" x2="97.14" y2="58.07"/><line class="cls-23" x1="52.47" y1="33.52" x2="99.75" y2="60.82"/><line class="cls-5" x1="95.14" y1="60.66" x2="142.41" y2="33.36"/><line class="cls-7" x1="52.04" y1="31.56" x2="52.04" y2="87.56"/><line class="cls-14" x1="98.49" y1="112.02" x2="49.94" y2="83.9"/><line class="cls-29" x1="94.34" y1="112" x2="142.82" y2="83.97"/><line class="cls-44" x1="140.79" y1="31.56" x2="140.79" y2="87.52"/><line class="cls-31" x1="142.89" y1="35.11" x2="94.38" y2="7.16"/><line class="cls-41" x1="49.96" y1="35.1" x2="98.54" y2="7.2"/><circle class="cls-47" cx="141.14" cy="34.1" r="8.29"/><circle class="cls-47" cx="52.04" cy="85.11" r="8.29"/><circle class="cls-48" cx="96.37" cy="8.3" r="8.29"/><circle class="cls-46" cx="141.03" cy="85.2" r="8.29"/><circle class="cls-46" cx="52.59" cy="33.59" r="8.29"/><circle class="cls-48" cx="97.14" cy="110.35" r="8.29"/><circle class="cls-48" cx="97.14" cy="59.31" r="8.29"/><line class="cls-1" x1="185.14" y1="109.09" x2="185.14" y2="58.05"/><line class="cls-13" x1="229.8" y1="33.51" x2="182.53" y2="60.8"/><line class="cls-34" x1="187.14" y1="60.64" x2="139.86" y2="33.35"/><line class="cls-12" x1="230.24" y1="31.54" x2="230.24" y2="87.55"/><line class="cls-2" x1="183.78" y1="112.01" x2="232.33" y2="83.89"/><line class="cls-33" x1="187.93" y1="111.98" x2="139.46" y2="83.96"/><line class="cls-37" x1="141.48" y1="31.54" x2="141.48" y2="87.5"/><line class="cls-20" x1="139.38" y1="35.1" x2="187.89" y2="7.14"/><line class="cls-27" x1="232.31" y1="35.08" x2="183.74" y2="7.19"/><circle class="cls-47" cx="141.14" cy="34.09" r="8.29"/><circle class="cls-47" cx="230.24" cy="85.1" r="8.29"/><circle class="cls-48" cx="185.9" cy="8.29" r="8.29"/><circle class="cls-46" cx="141.24" cy="85.18" r="8.29"/><circle class="cls-46" cx="229.68" cy="33.58" r="8.29"/><circle class="cls-48" cx="185.14" cy="110.33" r="8.29"/><circle class="cls-48" cx="185.14" cy="59.29" r="8.29"/></g></svg>