<?xml version="1.0" encoding="UTF-8"?><svg id="Layer_2" xmlns="http://www.w3.org/2000/svg" xmlns:xlink="http://www.w3.org/1999/xlink" viewBox="0 0 248.13 215.9"><defs><style>.cls-1{stroke:url(#linear-gradient);}.cls-1,.cls-2,.cls-3,.cls-4,.cls-5,.cls-6,.cls-7,.cls-8,.cls-9,.cls-10,.cls-11,.cls-12{fill:none;}.cls-1,.cls-3,.cls-4,.cls-5,.cls-8,.cls-9,.cls-10,.cls-12{stroke-miterlimit:10;}.cls-1,.cls-4,.cls-5,.cls-8,.cls-10,.cls-12{stroke-width:8.43px;}.cls-2{opacity:.75;}.cls-2,.cls-6,.cls-7{stroke-dasharray:0 3.8;stroke-width:.81px;}.cls-2,.cls-6,.cls-7,.cls-11{stroke:#9b9c9e;stroke-linecap:round;stroke-linejoin:round;}.cls-3{stroke:#325aff;stroke-width:10px;}.cls-4{stroke:url(#linear-gradient-4);}.cls-5{stroke:url(#linear-gradient-6);}.cls-6{opacity:.5;}.cls-13{fill:url(#linear-gradient-8);}.cls-7{opacity:.25;}.cls-8{stroke:url(#linear-gradient-3);}.cls-9{stroke:url(#linear-gradient-7);stroke-width:20px;}.cls-10{stroke:url(#linear-gradient-2);}.cls-11{stroke-dasharray:0 3.94;stroke-width:.9px;}.cls-12{stroke:url(#linear-gradient-5);}</style><linearGradient id="linear-gradient" x1="91.62" y1="28.04" x2="138.05" y2="28.04" gradientUnits="userSpaceOnUse"><stop offset="0" stop-color="#325aff"/><stop offset=".4" stop-color="#30bebc"/><stop offset=".8" stop-color="#fcd151"/></linearGradient><linearGradient id="linear-gradient-2" y1="187.86" y2="187.86" xlink:href="#linear-gradient"/><linearGradient id="linear-gradient-3" x1="38.12" y1="164.46" x2="78.55" y2="164.46" xlink:href="#linear-gradient"/><linearGradient id="linear-gradient-4" x1="38.12" y1="51.44" x2="78.55" y2="51.44" xlink:href="#linear-gradient"/><linearGradient id="linear-gradient-5" x1="145.13" y1="164.46" x2="197.56" y2="164.46" xlink:href="#linear-gradient"/><linearGradient id="linear-gradient-6" x1="145.13" y1="51.44" x2="197.56" y2="51.44" xlink:href="#linear-gradient"/><linearGradient id="linear-gradient-7" x1="0" y1="107.95" x2="167.74" y2="107.95" gradientUnits="userSpaceOnUse"><stop offset="0" stop-color="#fcd151"/><stop offset=".5" stop-color="#30bebc"/><stop offset=".8" stop-color="#325aff"/></linearGradient><linearGradient id="linear-gradient-8" x1="0" x2="167.74" xlink:href="#linear-gradient-7"/></defs><g id="Blocks"><circle class="cls-2" cx="171.34" cy="164.46" r="33.27"/><circle class="cls-6" cx="171.34" cy="164.46" r="41.21"/><circle class="cls-7" cx="171.34" cy="164.46" r="51.04"/><circle class="cls-1" cx="114.84" cy="28.04" r="19"/><circle class="cls-10" cx="114.84" cy="187.86" r="19"/><circle class="cls-8" cx="58.33" cy="164.46" r="16"/><circle class="cls-4" cx="58.33" cy="51.44" r="16"/><circle class="cls-11" cx="194.75" cy="107.95" r="34.51"/><circle class="cls-11" cx="194.75" cy="107.95" r="42.74"/><circle class="cls-11" cx="194.75" cy="107.95" r="52.93"/><circle class="cls-2" cx="171.34" cy="51.44" r="33.27"/><circle class="cls-6" cx="171.34" cy="51.44" r="41.21"/><circle class="cls-7" cx="171.34" cy="51.44" r="51.04"/><circle class="cls-12" cx="171.34" cy="164.46" r="22"/><circle class="cls-3" cx="194.75" cy="107.95" r="22"/><circle class="cls-5" cx="171.34" cy="51.44" r="22"/><line class="cls-9" y1="107.95" x2="139.03" y2="107.95"/><polygon class="cls-13" points="133.2 127.89 167.74 107.95 133.2 88 133.2 127.89"/></g></svg>