<?xml version="1.0" encoding="UTF-8"?><svg id="Layer_2" xmlns="http://www.w3.org/2000/svg" xmlns:xlink="http://www.w3.org/1999/xlink" viewBox="0 0 253.43 253.43"><defs><style>.cls-1{stroke:url(#linear-gradient);}.cls-1,.cls-2,.cls-3,.cls-4,.cls-5,.cls-6,.cls-7,.cls-8{fill:none;stroke-miterlimit:10;stroke-width:8.43px;}.cls-9{fill:#fcd151;}.cls-10{fill:#325aff;}.cls-11{fill:#30bebc;}.cls-2{stroke:url(#linear-gradient-4);}.cls-3{stroke:url(#linear-gradient-6);}.cls-4{stroke:url(#linear-gradient-8);}.cls-12{fill:#0018a8;}.cls-5{stroke:url(#linear-gradient-3);}.cls-6{stroke:url(#linear-gradient-7);}.cls-7{stroke:url(#linear-gradient-2);}.cls-8{stroke:url(#linear-gradient-5);}</style><linearGradient id="linear-gradient" x1="196.32" y1="224.6" x2="196.32" y2="168.04" gradientTransform="translate(-52.49 126.72) rotate(-45)" gradientUnits="userSpaceOnUse"><stop offset="0" stop-color="#325aff"/><stop offset=".4" stop-color="#30bebc"/><stop offset=".8" stop-color="#fcd151"/></linearGradient><linearGradient id="linear-gradient-2" x1="168.04" y1="126.72" x2="224.6" y2="126.72" xlink:href="#linear-gradient"/><linearGradient id="linear-gradient-3" y1="28.83" y2="85.39" xlink:href="#linear-gradient"/><linearGradient id="linear-gradient-4" x1="126.72" y1="168.04" x2="126.72" y2="224.6" xlink:href="#linear-gradient"/><linearGradient id="linear-gradient-5" x1="126.72" y1="85.39" x2="126.72" y2="28.83" xlink:href="#linear-gradient"/><linearGradient id="linear-gradient-6" x1="57.11" y1="224.6" x2="57.11" xlink:href="#linear-gradient"/><linearGradient id="linear-gradient-7" x1="85.39" y1="126.72" x2="28.83" y2="126.72" xlink:href="#linear-gradient"/><linearGradient id="linear-gradient-8" x1="57.11" y1="28.83" x2="57.11" y2="85.39" xlink:href="#linear-gradient"/></defs><g id="Blocks"><path class="cls-1" d="M208.14,143.73h0c6.08,6.08,14.94,8.45,23.24,6.23h0c8.3-2.22,14.79-8.71,17.01-17.01h0c2.22-8.3-.15-17.16-6.23-23.24h0c-6.08-6.08-14.94-8.45-23.24-6.23h0c-8.3,2.22-14.79,8.71-17.01,17.01h0c-2.22,8.3.15,17.16,6.23,23.24Z"/><path class="cls-7" d="M158.92,94.51h0c6.08,6.08,14.94,8.45,23.24,6.23h0c8.3-2.22,14.79-8.71,17.01-17.01h0c2.22-8.3-.15-17.16-6.23-23.24h0c-6.08-6.08-14.94-8.45-23.24-6.23h0c-8.3,2.22-14.79,8.71-17.01,17.01h0c-2.22,8.3.15,17.16,6.23,23.24Z"/><path class="cls-5" d="M109.7,45.29h0c6.08,6.08,14.94,8.45,23.24,6.23h0c8.3-2.22,14.79-8.71,17.01-17.01h0c2.22-8.3-.15-17.16-6.23-23.24h0c-6.08-6.08-14.94-8.45-23.24-6.23h0c-8.3,2.22-14.79,8.71-17.01,17.01h0c-2.22,8.3.15,17.16,6.23,23.24Z"/><path class="cls-2" d="M158.92,192.95h0c6.08,6.08,14.94,8.45,23.24,6.23h0c8.3-2.22,14.79-8.71,17.01-17.01h0c2.22-8.3-.15-17.16-6.23-23.24h0c-6.08-6.08-14.94-8.45-23.24-6.23h0c-8.3,2.22-14.79,8.71-17.01,17.01h0c-2.22,8.3.15,17.16,6.23,23.24Z"/><path class="cls-10" d="M109.7,143.73h0c6.08,6.08,14.94,8.45,23.24,6.23h0c8.3-2.22,14.79-8.71,17.01-17.01h0c2.22-8.3-.15-17.16-6.23-23.24h0c-6.08-6.08-14.94-8.45-23.24-6.23h0c-8.3,2.22-14.79,8.71-17.01,17.01h0c-2.22,8.3.15,17.16,6.23,23.24Z"/><path class="cls-8" d="M60.48,94.51h0c6.08,6.08,14.94,8.45,23.24,6.23h0c8.3-2.22,14.79-8.71,17.01-17.01h0c2.22-8.3-.15-17.16-6.23-23.24h0c-6.08-6.08-14.94-8.45-23.24-6.23h0c-8.3,2.22-14.79,8.71-17.01,17.01h0c-2.22,8.3.15,17.16,6.23,23.24Z"/><path class="cls-3" d="M109.7,242.17h0c6.08,6.08,14.94,8.45,23.24,6.23h0c8.3-2.22,14.79-8.71,17.01-17.01h0c2.22-8.3-.15-17.16-6.23-23.24h0c-6.08-6.08-14.94-8.45-23.24-6.23h0c-8.3,2.22-14.79,8.71-17.01,17.01h0c-2.22,8.3.15,17.16,6.23,23.24Z"/><path class="cls-6" d="M60.48,192.95h0c6.08,6.08,14.94,8.45,23.24,6.23h0c8.3-2.22,14.79-8.71,17.01-17.01h0c2.22-8.3-.15-17.16-6.23-23.24h0c-6.08-6.08-14.94-8.45-23.24-6.23h0c-8.3,2.22-14.79,8.71-17.01,17.01h0c-2.22,8.3.15,17.16,6.23,23.24Z"/><path class="cls-4" d="M11.26,143.73h0c6.08,6.08,14.94,8.45,23.24,6.23h0c8.3-2.22,14.79-8.71,17.01-17.01h0c2.22-8.3-.15-17.16-6.23-23.24h0c-6.08-6.08-14.94-8.45-23.24-6.23h0c-8.3,2.22-14.79,8.71-17.01,17.01h0c-2.22,8.3.15,17.16,6.23,23.24Z"/><circle class="cls-12" cx="126.72" cy="126.72" r="10"/><circle class="cls-11" cx="28.28" cy="126.72" r="10"/><circle class="cls-11" cx="175.93" cy="175.93" r="10"/><circle class="cls-9" cx="126.72" cy="225.15" r="10"/><circle class="cls-9" cx="126.72" cy="28.28" r="10"/><circle class="cls-10" cx="175.93" cy="77.5" r="10"/><circle class="cls-11" cx="225.15" cy="126.72" r="10"/><circle class="cls-10" cx="77.5" cy="175.93" r="10"/><circle class="cls-11" cx="77.5" cy="77.5" r="10"/></g></svg>