<?xml version="1.0" encoding="UTF-8"?><svg id="Layer_2" xmlns="http://www.w3.org/2000/svg" xmlns:xlink="http://www.w3.org/1999/xlink" viewBox="0 0 232 267.89"><defs><style>.cls-1{fill:#fcd151;}.cls-2{fill:#325aff;}.cls-3{fill:#30bebc;}.cls-4{stroke:url(#linear-gradient-2);}.cls-4,.cls-5,.cls-6,.cls-7,.cls-8,.cls-9,.cls-10{fill:none;stroke-miterlimit:10;stroke-width:10px;}.cls-5{stroke:url(#linear-gradient-4);}.cls-6{stroke:url(#linear-gradient-6);}.cls-11{fill:#0018a8;}.cls-7{stroke:#f7931e;}.cls-8{stroke:url(#linear-gradient);}.cls-9{stroke:url(#linear-gradient-5);}.cls-10{stroke:url(#linear-gradient-3);}</style><linearGradient id="linear-gradient" x1="78.18" y1="189.44" x2="217.9" y2="189.44" gradientTransform="translate(-17.94 249.94) rotate(-90)" gradientUnits="userSpaceOnUse"><stop offset="0" stop-color="#325aff"/><stop offset=".5" stop-color="#30bebc"/><stop offset="1" stop-color="#fcd151"/></linearGradient><linearGradient id="linear-gradient-2" x1="-17.94" y1="133.94" x2="121.77" y2="133.94" xlink:href="#linear-gradient"/><linearGradient id="linear-gradient-3" x1="14.09" y1="189.44" x2="153.81" y2="189.44" xlink:href="#linear-gradient"/><linearGradient id="linear-gradient-4" x1="14.1" y1="78.44" x2="153.81" y2="78.44" gradientTransform="translate(-17.94 249.94) rotate(-90)" gradientUnits="userSpaceOnUse"><stop offset="0" stop-color="#325aff"/><stop offset=".4" stop-color="#30bebc"/><stop offset=".8" stop-color="#fcd151"/></linearGradient><linearGradient id="linear-gradient-5" x1="78.18" y1="78.44" x2="217.9" y2="78.44" xlink:href="#linear-gradient"/><linearGradient id="linear-gradient-6" x1="110.23" y1="133.94" x2="249.94" y2="133.94" gradientTransform="translate(-17.94 249.94) rotate(-90)" gradientUnits="userSpaceOnUse"><stop offset="0" stop-color="#fcd151"/><stop offset=".5" stop-color="#30bebc"/><stop offset="1" stop-color="#325aff"/></linearGradient></defs><g id="Blocks"><polygon class="cls-7" points="226.93 198.09 226.93 70.09 116.08 6.09 5.23 70.09 5.23 198.09 116.08 262.09 226.93 198.09"/><polygon class="cls-7" points="116 69.86 116 133.94 171.5 165.99 227 133.94 227 69.86 171.5 37.82 116 69.86"/><polygon class="cls-7" points="227 198.03 227 133.95 171.5 101.91 116 133.95 116 198.03 171.5 230.07 227 198.03"/><polygon class="cls-8" points="116 69.86 116 133.94 171.5 165.99 227 133.94 227 69.86 171.5 37.82 116 69.86"/><polygon class="cls-4" points="60.49 165.99 60.49 230.07 115.99 262.11 171.49 230.07 171.49 165.99 115.99 133.94 60.49 165.99"/><polygon class="cls-10" points="227 198.03 227 133.95 171.5 101.91 116 133.95 116 198.03 171.5 230.07 227 198.03"/><polygon class="cls-5" points="116 198.03 116 133.94 60.5 101.9 5 133.94 5 198.03 60.5 230.07 116 198.03"/><polygon class="cls-9" points="116 133.94 116 69.86 60.5 37.82 5 69.86 5 133.94 60.5 165.99 116 133.94"/><polygon class="cls-6" points="171.5 101.9 171.5 37.82 116 5.77 60.5 37.82 60.5 101.9 116 133.94 171.5 101.9"/><circle class="cls-11" cx="115.99" cy="134" r="12"/><circle class="cls-1" cx="173.06" cy="101.91" r="12"/><circle class="cls-3" cx="58.24" cy="101.9" r="12"/><circle class="cls-3" cx="171.49" cy="165.99" r="12"/><circle class="cls-1" cx="60.49" cy="165.99" r="12"/><circle class="cls-2" cx="115.26" cy="67.49" r="12"/><circle class="cls-2" cx="116.08" cy="202.04" r="12"/></g></svg>