<?xml version="1.0" encoding="UTF-8"?>
<svg id="Layer_1" data-name="Layer 1" xmlns="http://www.w3.org/2000/svg" xmlns:xlink="http://www.w3.org/1999/xlink" viewBox="0 0 90 90">
  <defs>
    <style>
      .cls-1 {
        stroke: url(#linear-gradient-8);
      }

      .cls-1, .cls-2, .cls-3, .cls-4, .cls-5, .cls-6, .cls-7, .cls-8 {
        fill: none;
        stroke-linecap: round;
        stroke-linejoin: round;
      }

      .cls-1, .cls-4, .cls-6 {
        stroke-width: 6px;
      }

      .cls-2 {
        stroke: url(#linear-gradient-2);
      }

      .cls-2, .cls-3, .cls-5, .cls-7, .cls-8 {
        stroke-width: 5px;
      }

      .cls-3 {
        stroke: url(#linear-gradient);
      }

      .cls-4 {
        stroke: url(#linear-gradient-7);
      }

      .cls-5 {
        stroke: url(#linear-gradient-3);
      }

      .cls-6 {
        stroke: url(#linear-gradient-6);
      }

      .cls-7 {
        stroke: url(#linear-gradient-4);
      }

      .cls-8 {
        stroke: url(#linear-gradient-5);
      }
    </style>
    <linearGradient id="linear-gradient" x1="24.43" y1="21.21" x2="60.09" y2="21.21" gradientUnits="userSpaceOnUse">
      <stop offset="0" stop-color="#2b3edb"/>
      <stop offset="1" stop-color="#8efecc"/>
    </linearGradient>
    <linearGradient id="linear-gradient-2" y1="29.61" x2="40.35" y2="29.61" xlink:href="#linear-gradient"/>
    <linearGradient id="linear-gradient-3" x1="42.07" y1="29.61" x2="58.69" y2="29.61" xlink:href="#linear-gradient"/>
    <linearGradient id="linear-gradient-4" y1="38" y2="38" xlink:href="#linear-gradient"/>
    <linearGradient id="linear-gradient-5" y1="46.4" x2="40.35" y2="46.4" xlink:href="#linear-gradient"/>
    <linearGradient id="linear-gradient-6" x1="-1352.32" y1="-1366.62" x2="-1320.77" y2="-1366.62" gradientTransform="translate(699.77 721.25) rotate(-20.44) scale(.78 .6) skewX(-32.43)" xlink:href="#linear-gradient"/>
    <linearGradient id="linear-gradient-7" x1="3469.87" y1="4675.73" x2="3498.5" y2="4669.58" gradientTransform="translate(-3427.58 -4607.99)" xlink:href="#linear-gradient"/>
    <linearGradient id="linear-gradient-8" x1="45.86" y1="89.76" x2="45.86" y2=".62" xlink:href="#linear-gradient"/>
  </defs>
  <line class="cls-3" x1="26.93" y1="21.21" x2="57.59" y2="21.21"/>
  <line class="cls-2" x1="26.93" y1="29.61" x2="37.85" y2="29.61"/>
  <line class="cls-5" x1="44.57" y1="29.61" x2="56.19" y2="29.61"/>
  <line class="cls-7" x1="26.93" y1="38" x2="57.59" y2="38"/>
  <line class="cls-8" x1="26.93" y1="46.4" x2="37.85" y2="46.4"/>
  <line class="cls-6" x1="62.3" y1="69.84" x2="74.51" y2="81.76"/>
  <rect class="cls-4" x="45.68" y="58.01" width="21.85" height="13.31" rx="2.36" ry="2.36" transform="translate(-29.21 60.04) rotate(-45.72)"/>
  <path class="cls-1" d="M61.57,86.76H19.93c-2.88,0-5.21-2.33-5.21-5.21V8.83c0-2.88,2.33-5.21,5.21-5.21h40.68l16.39,16.39v46.98"/>
</svg>