<?xml version="1.0" encoding="UTF-8"?><svg id="Layer_2" xmlns="http://www.w3.org/2000/svg" xmlns:xlink="http://www.w3.org/1999/xlink" viewBox="0 0 245 246.42"><defs><style>.cls-1{stroke:url(#linear-gradient-14);}.cls-1,.cls-2,.cls-3,.cls-4,.cls-5,.cls-6,.cls-7,.cls-8,.cls-9,.cls-10,.cls-11,.cls-12,.cls-13,.cls-14,.cls-15,.cls-16,.cls-17,.cls-18,.cls-19,.cls-20,.cls-21,.cls-22,.cls-23,.cls-24,.cls-25,.cls-26,.cls-27,.cls-28{fill:none;stroke-miterlimit:10;}.cls-1,.cls-2,.cls-3,.cls-4,.cls-5,.cls-7,.cls-8,.cls-12,.cls-15,.cls-16,.cls-17,.cls-18,.cls-19,.cls-20,.cls-22,.cls-24,.cls-26,.cls-27{stroke-width:10px;}.cls-2{stroke:url(#linear-gradient-21);}.cls-3{stroke:url(#linear-gradient-18);}.cls-4{stroke:url(#linear-gradient-24);}.cls-29{fill:#325aff;}.cls-5{stroke:url(#linear-gradient-27);}.cls-30{fill:#fff;}.cls-6{stroke:url(#linear-gradient-15);}.cls-6,.cls-9,.cls-10,.cls-11,.cls-13,.cls-14,.cls-21,.cls-25,.cls-28{stroke-width:10.43px;}.cls-7{stroke:url(#linear-gradient-8);}.cls-8{stroke:url(#linear-gradient-25);}.cls-9{stroke:url(#linear-gradient-16);}.cls-10{stroke:url(#linear-gradient-2);}.cls-11{stroke:url(#linear-gradient-10);}.cls-12{stroke:url(#linear-gradient-23);}.cls-13{stroke:url(#linear-gradient-19);}.cls-14{stroke:url(#linear-gradient-9);}.cls-15{stroke:url(#linear-gradient-17);}.cls-31{fill:#2b3edb;}.cls-16{stroke:url(#linear-gradient-12);}.cls-32{fill:#fcd151;}.cls-17{stroke:url(#linear-gradient-6);}.cls-18{stroke:url(#linear-gradient-20);}.cls-19{stroke:url(#linear-gradient-11);}.cls-20{stroke:url(#linear-gradient-13);}.cls-21{stroke:url(#linear-gradient-22);}.cls-22{stroke:url(#linear-gradient-7);}.cls-33{fill:#30bebc;}.cls-23{stroke:#fff;stroke-width:3.52px;}.cls-24{stroke:url(#linear-gradient);}.cls-25{stroke:url(#linear-gradient-26);}.cls-34{fill:#2b3edb;}.cls-26{stroke:url(#linear-gradient-5);}.cls-27{stroke:url(#linear-gradient-3);}.cls-28{stroke:url(#linear-gradient-4);}</style><linearGradient id="linear-gradient" x1="65.8" y1="170.2" x2="65.8" y2="234.42" gradientUnits="userSpaceOnUse"><stop offset="0" stop-color="#325aff"/><stop offset=".5" stop-color="#30bebc"/><stop offset=".8" stop-color="#fcd151"/></linearGradient><linearGradient id="linear-gradient-2" x1="59.91" y1="156.48" x2="124.63" y2="156.48" gradientUnits="userSpaceOnUse"><stop offset="0" stop-color="#325aff"/><stop offset=".5" stop-color="#30bebc"/><stop offset=".8" stop-color="#fcd151"/></linearGradient><linearGradient id="linear-gradient-3" x1="6.32" y1="156.28" x2="70.82" y2="156.28" gradientUnits="userSpaceOnUse"><stop offset=".2" stop-color="#fcd151"/><stop offset=".5" stop-color="#30bebc"/><stop offset="1" stop-color="#325aff"/></linearGradient><linearGradient id="linear-gradient-4" x1="1018.59" y1="-1494.42" x2="1084.84" y2="-1494.42" gradientTransform="translate(890.36 1830.35) rotate(-59.98)" gradientUnits="userSpaceOnUse"><stop offset=".2" stop-color="#325aff"/><stop offset=".5" stop-color="#30bebc"/><stop offset=".8" stop-color="#fcd151"/></linearGradient><linearGradient id="linear-gradient-5" x1="3876.48" y1="186.29" x2="3942.87" y2="186.29" gradientTransform="translate(4006.08 365.12) rotate(179.39)" gradientUnits="userSpaceOnUse"><stop offset=".2" stop-color="#fcd151"/><stop offset=".5" stop-color="#30bebc"/><stop offset=".8" stop-color="#325aff"/></linearGradient><linearGradient id="linear-gradient-6" x1="994.37" y1="1810.59" x2="1060.68" y2="1810.59" gradientTransform="translate(1074.67 -1585.42) rotate(59.41)" xlink:href="#linear-gradient-4"/><linearGradient id="linear-gradient-7" x1="1031.1" y1="-1502.33" x2="1097.37" y2="-1502.33" gradientTransform="translate(797.51 1836.61) rotate(-60.61)" xlink:href="#linear-gradient-5"/><linearGradient id="linear-gradient-8" x1="3878.86" y1="189.98" x2="3945.18" y2="189.98" gradientTransform="translate(3952.54 272.75) rotate(179.4)" xlink:href="#linear-gradient-4"/><linearGradient id="linear-gradient-9" x1="1013.02" y1="1810.55" x2="1079.22" y2="1810.55" gradientTransform="translate(1140.33 -1687.05) rotate(60.03)" xlink:href="#linear-gradient-5"/><linearGradient id="linear-gradient-10" x1="3986.8" y1="73.06" x2="3986.8" y2="137.29" gradientTransform="translate(4109.05) rotate(-180) scale(1 -1)" xlink:href="#linear-gradient"/><linearGradient id="linear-gradient-11" x1="3981.02" y1="59.34" x2="4045.52" y2="59.34" gradientTransform="translate(4109.05) rotate(-180) scale(1 -1)" xlink:href="#linear-gradient-2"/><linearGradient id="linear-gradient-12" x1="3927.32" y1="59.14" x2="3991.82" y2="59.14" gradientTransform="translate(4109.05) rotate(-180) scale(1 -1)" xlink:href="#linear-gradient-3"/><linearGradient id="linear-gradient-13" x1="3064.45" y1="1852.01" x2="3130.48" y2="1852.01" gradientTransform="translate(3218.69 1830.35) rotate(-120.02) scale(1 -1)" xlink:href="#linear-gradient-4"/><linearGradient id="linear-gradient-14" x1="-45.33" y1="241.74" x2="21.06" y2="241.74" gradientTransform="translate(102.97 365.12) rotate(.61) scale(1 -1)" xlink:href="#linear-gradient-5"/><linearGradient id="linear-gradient-15" x1="2905.76" y1="-1614.29" x2="2972.28" y2="-1614.29" gradientTransform="translate(3034.38 -1585.42) rotate(120.59) scale(1 -1)" xlink:href="#linear-gradient-4"/><linearGradient id="linear-gradient-16" x1="3039.98" y1="1866.3" x2="3106.46" y2="1866.3" gradientTransform="translate(3311.54 1836.61) rotate(-119.39) scale(1 -1)" xlink:href="#linear-gradient-5"/><linearGradient id="linear-gradient-17" x1="-42.94" y1="246.08" x2="23.37" y2="246.08" gradientTransform="translate(156.51 272.75) rotate(.6) scale(1 -1)" xlink:href="#linear-gradient-4"/><linearGradient id="linear-gradient-18" x1="2888" y1="-1634.53" x2="2953.98" y2="-1634.53" gradientTransform="translate(2968.73 -1687.05) rotate(119.97) scale(1 -1)" xlink:href="#linear-gradient-5"/><linearGradient id="linear-gradient-19" x1="2.4" y1="169.67" x2="2.4" y2="233.9" gradientTransform="translate(175.41)" xlink:href="#linear-gradient"/><linearGradient id="linear-gradient-20" x1="-3.38" y1="155.95" x2="61.11" y2="155.95" gradientTransform="translate(175.41)" xlink:href="#linear-gradient-2"/><linearGradient id="linear-gradient-21" x1="-57.08" y1="155.76" x2="7.42" y2="155.76" gradientTransform="translate(175.41)" xlink:href="#linear-gradient-3"/><linearGradient id="linear-gradient-22" x1="987.32" y1="-1549.58" x2="1053.57" y2="-1549.58" gradientTransform="translate(1065.76 1830.35) rotate(-59.98)" xlink:href="#linear-gradient-4"/><linearGradient id="linear-gradient-23" x1="3939.87" y1="187.49" x2="4006.27" y2="187.49" gradientTransform="translate(4181.49 365.12) rotate(179.39)" xlink:href="#linear-gradient-5"/><linearGradient id="linear-gradient-24" x1="961.66" y1="1864.91" x2="1027.97" y2="1864.91" gradientTransform="translate(1250.07 -1585.42) rotate(59.41)" xlink:href="#linear-gradient-4"/><linearGradient id="linear-gradient-25" x1="1000.44" y1="-1557.83" x2="1066.7" y2="-1557.83" gradientTransform="translate(972.92 1836.61) rotate(-60.61)" xlink:href="#linear-gradient-5"/><linearGradient id="linear-gradient-26" x1="3942.15" y1="191.17" x2="4008.68" y2="191.17" gradientTransform="translate(4127.94 272.75) rotate(179.4)" xlink:href="#linear-gradient-4"/><linearGradient id="linear-gradient-27" x1="981" y1="1865.21" x2="1046.98" y2="1865.21" gradientTransform="translate(1315.73 -1687.05) rotate(60.03)" xlink:href="#linear-gradient-5"/></defs><g id="Blocks"><line class="cls-24" x1="65.8" y1="234.42" x2="65.8" y2="170.2"/><line class="cls-10" x1="122.02" y1="139.3" x2="62.52" y2="173.65"/><line class="cls-27" x1="68.32" y1="173.45" x2="8.82" y2="139.1"/><line class="cls-28" x1="122.57" y1="136.83" x2="122.57" y2="207.31"/><line class="cls-26" x1="64.1" y1="238.1" x2="125.2" y2="202.71"/><line class="cls-17" x1="69.32" y1="238.06" x2="8.32" y2="202.79"/><line class="cls-22" x1="10.87" y1="136.83" x2="10.87" y2="207.26"/><line class="cls-7" x1="8.22" y1="141.31" x2="69.27" y2="106.12"/><line class="cls-14" x1="125.17" y1="141.29" x2="64.04" y2="106.18"/><circle class="cls-34" cx="10.43" cy="140.03" r="10.43"/><circle class="cls-29" cx="122.57" cy="203.71" r="10.43"/><circle class="cls-33" cx="65.49" cy="107.1" r="10.43"/><circle class="cls-32" cx="10.57" cy="204.33" r="10.43"/><circle class="cls-32" cx="121.87" cy="139.39" r="10.43"/><circle class="cls-33" cx="65.8" cy="235.99" r="10.43"/><circle class="cls-29" cx="65.8" cy="171.76" r="15.48"/><polyline class="cls-23" points="57.24 171.75 62.6 177.11 73.52 166.19"/><line class="cls-11" x1="122.25" y1="137.29" x2="122.25" y2="73.06"/><line class="cls-19" x1="66.03" y1="42.17" x2="125.53" y2="76.52"/><line class="cls-16" x1="119.73" y1="76.32" x2="179.23" y2="41.97"/><line class="cls-20" x1="65.49" y1="39.7" x2="65.49" y2="110.18"/><line class="cls-1" x1="123.95" y1="140.96" x2="62.85" y2="105.57"/><line class="cls-6" x1="118.73" y1="140.93" x2="179.74" y2="105.66"/><line class="cls-9" x1="177.19" y1="39.7" x2="177.18" y2="110.12"/><line class="cls-15" x1="179.83" y1="44.17" x2="118.78" y2="8.99"/><line class="cls-3" x1="62.88" y1="44.15" x2="124.01" y2="9.04"/><circle class="cls-29" cx="177.62" cy="42.9" r="10.43"/><circle class="cls-33" cx="65.49" cy="107.1" r="10.43"/><circle class="cls-33" cx="121.28" cy="10.43" r="10.43"/><circle class="cls-32" cx="177.49" cy="107.2" r="10.43"/><circle class="cls-32" cx="66.19" cy="42.25" r="10.43"/><circle class="cls-34" cx="122.25" cy="138.85" r="10.43"/><circle class="cls-33" cx="122.25" cy="74.62" r="10.43"/><circle class="cls-29" cx="121.87" cy="75.18" r="15.48"/><polyline class="cls-23" points="113.31 75.18 118.66 80.53 129.58 69.62"/><line class="cls-13" x1="177.81" y1="233.9" x2="177.81" y2="169.67"/><line class="cls-18" x1="234.02" y1="138.78" x2="174.52" y2="173.13"/><line class="cls-2" x1="180.32" y1="172.93" x2="120.83" y2="138.58"/><line class="cls-21" x1="234.57" y1="136.31" x2="234.57" y2="206.79"/><line class="cls-12" x1="176.1" y1="237.58" x2="237.2" y2="202.18"/><line class="cls-4" x1="181.33" y1="237.54" x2="120.32" y2="202.27"/><line class="cls-8" x1="122.87" y1="136.31" x2="122.87" y2="206.73"/><line class="cls-25" x1="120.22" y1="140.78" x2="181.28" y2="105.6"/><line class="cls-5" x1="237.18" y1="140.77" x2="176.05" y2="105.66"/><circle class="cls-34" cx="122.25" cy="138.85" r="21.32"/><circle class="cls-29" cx="234.57" cy="203.71" r="10.43"/><circle class="cls-33" cx="177.49" cy="107.28" r="10.43"/><circle class="cls-32" cx="122.57" cy="203.81" r="10.43"/><circle class="cls-31" cx="233.87" cy="138.87" r="10.43"/><circle class="cls-34" cx="177.81" cy="235.46" r="10.43"/><circle class="cls-33" cx="177.81" cy="171.23" r="10.43"/><circle class="cls-29" cx="178.32" cy="170.56" r="15.48"/><polyline class="cls-23" points="169.76 170.56 175.12 175.91 186.03 164.99"/><path class="cls-30" d="M185.17,43.95l-.77-.22c-.18-.05-.31-.23-.29-.42.02-.19.03-.38.03-.57,0-.1,0-.21,0-.31,0-.19.12-.36.31-.4l.78-.19c.22-.05.35-.27.3-.49l-.25-1.01c-.05-.22-.27-.35-.49-.3l-.78.19c-.18.05-.38-.04-.46-.22-.12-.27-.26-.52-.42-.77-.1-.16-.07-.37.07-.5l.58-.55c.16-.15.17-.41.02-.57l-.72-.76c-.15-.16-.41-.17-.57-.02l-.58.55c-.14.13-.35.15-.51.04-.24-.17-.48-.32-.74-.46-.17-.09-.25-.29-.19-.47l.23-.76c.06-.21-.06-.44-.27-.5l-1-.3c-.21-.06-.44.06-.5.27l-.23.76c-.06.18-.23.31-.42.29-.22-.02-.44-.03-.66-.03-.07,0-.14,0-.21,0-.19,0-.36-.13-.4-.31l-.18-.78c-.05-.22-.27-.35-.48-.3l-1.02.23c-.22.05-.35.27-.3.48l.18.78c.04.19-.06.38-.24.46-.32.14-.62.31-.91.49-.17.11-.38.09-.52-.05l-.56-.57c-.16-.16-.41-.16-.57,0l-.75.73c-.16.16-.16.41,0,.57l.56.57c.13.14.16.35.05.51-.17.24-.32.49-.45.75-.09.17-.28.25-.47.2l-.77-.22c-.21-.06-.44.06-.5.28l-.29,1c-.06.21.06.44.28.5l.77.22c.18.05.31.23.29.42-.02.19-.03.38-.03.57,0,.1,0,.21,0,.31,0,.19-.12.36-.31.4l-.78.19c-.22.05-.35.27-.3.49l.25,1.01c.05.22.27.35.49.3l.78-.19c.18-.05.38.04.46.22.12.27.26.52.42.77.1.16.07.37-.07.5l-.58.55c-.16.15-.17.41-.02.57l.72.76c.15.16.41.17.57.02l.58-.55c.14-.13.35-.15.51-.04.24.17.48.32.74.46.17.09.25.29.19.47l-.23.77c-.06.21.06.44.27.5l1,.3c.21.06.44-.06.5-.27l.23-.76c.06-.18.23-.31.42-.29.22.02.44.03.66.03.07,0,.14,0,.21,0,.19,0,.36.13.4.31l.18.78c.05.22.27.35.48.3l1.02-.23c.22-.05.35-.27.3-.48l-.18-.78c-.04-.19.06-.38.24-.46.32-.14.62-.31.91-.49.17-.11.38-.09.52.05l.56.57c.16.16.41.16.57,0l.75-.73c.16-.16.16-.41,0-.57l-.56-.57c-.13-.14-.16-.35-.05-.51.17-.24.32-.49.45-.75.09-.17.28-.25.47-.2l.77.22c.21.06.44-.06.5-.28l.29-1c.06-.21-.06-.44-.28-.5ZM177.62,47.13c-2.42,0-4.38-1.96-4.38-4.38s1.96-4.38,4.38-4.38,4.38,1.96,4.38,4.38-1.96,4.38-4.38,4.38Z"/><path class="cls-30" d="M137.69,141.31l-1.57-.45c-.38-.11-.63-.46-.6-.85.03-.38.05-.77.05-1.16,0-.21,0-.42-.02-.63-.02-.39.25-.73.63-.82l1.59-.39c.44-.11.72-.56.61-1l-.51-2.07c-.11-.44-.56-.72-1-.61l-1.59.39c-.38.09-.78-.09-.94-.44-.25-.54-.54-1.07-.86-1.57-.21-.33-.15-.76.14-1.03l1.19-1.12c.33-.31.35-.84.03-1.17l-1.47-1.55c-.31-.33-.84-.35-1.17-.03l-1.19,1.12c-.28.27-.72.31-1.04.08-.48-.35-.99-.66-1.52-.94-.34-.18-.5-.59-.39-.96l.47-1.56c.13-.44-.11-.9-.55-1.03l-2.04-.62c-.44-.13-.9.11-1.03.55l-.47,1.55c-.11.38-.48.63-.87.59-.44-.04-.9-.07-1.35-.07-.14,0-.28,0-.42,0-.39.01-.74-.26-.82-.64l-.36-1.6c-.1-.44-.54-.72-.99-.62l-2.08.47c-.44.1-.72.54-.62.99l.36,1.59c.09.39-.12.78-.49.95-.65.29-1.27.63-1.85,1.01-.34.22-.78.19-1.06-.1l-1.14-1.17c-.32-.33-.84-.33-1.17-.01l-1.53,1.49c-.33.32-.33.84-.01,1.17l1.14,1.17c.27.28.32.71.1,1.03-.34.49-.65,1-.92,1.53-.18.35-.58.51-.96.4l-1.57-.45c-.44-.13-.9.13-1.02.57l-.59,2.05c-.13.44.13.9.57,1.02l1.57.45c.38.11.63.46.6.85-.03.38-.05.77-.05,1.16,0,.21,0,.42.02.63.02.39-.25.73-.63.82l-1.59.39c-.44.11-.72.56-.61,1l.51,2.07c.11.44.56.72,1,.61l1.59-.39c.38-.09.78.09.94.44.25.54.54,1.07.86,1.57.21.33.15.76-.14,1.03l-1.19,1.12c-.33.31-.35.84-.03,1.17l1.47,1.55c.31.33.84.35,1.17.03l1.19-1.12c.28-.27.72-.31,1.04-.08.48.35.99.66,1.52.94.34.18.5.59.39.96l-.47,1.56c-.13.44.11.9.55,1.03l2.04.62c.44.13.9-.11,1.03-.55l.47-1.55c.11-.38.48-.63.87-.59.44.04.9.07,1.35.07.14,0,.28,0,.42,0,.39-.01.74.26.82.64l.36,1.6c.1.44.54.72.99.62l2.08-.47c.44-.1.72-.54.62-.99l-.36-1.59c-.09-.39.12-.78.49-.95.65-.29,1.27-.63,1.85-1.01.34-.22.78-.19,1.06.1l1.14,1.17c.32.33.84.33,1.17.01l1.53-1.49c.33-.32.33-.84.01-1.17l-1.14-1.17c-.27-.28-.32-.71-.1-1.03.34-.49.65-1,.92-1.53.18-.35.58-.51.96-.4l1.57.45c.44.13.9-.13,1.02-.57l.59-2.05c.13-.44-.13-.9-.57-1.02ZM122.25,147.81c-4.95,0-8.96-4.01-8.96-8.96s4.01-8.96,8.96-8.96,8.96,4.01,8.96,8.96-4.01,8.96-8.96,8.96Z"/><path class="cls-30" d="M241.42,139.79l-.77-.22c-.18-.05-.31-.23-.29-.42.02-.19.03-.38.03-.57,0-.1,0-.21,0-.31,0-.19.12-.36.31-.4l.78-.19c.22-.05.35-.27.3-.49l-.25-1.01c-.05-.22-.27-.35-.49-.3l-.78.19c-.18.05-.38-.04-.46-.22-.12-.27-.26-.52-.42-.77-.1-.16-.07-.37.07-.5l.58-.55c.16-.15.17-.41.02-.57l-.72-.76c-.15-.16-.41-.17-.57-.02l-.58.55c-.14.13-.35.15-.51.04-.24-.17-.48-.32-.74-.46-.17-.09-.25-.29-.19-.47l.23-.76c.06-.21-.06-.44-.27-.5l-1-.3c-.21-.06-.44.06-.5.27l-.23.76c-.06.18-.23.31-.42.29-.22-.02-.44-.03-.66-.03-.07,0-.14,0-.21,0-.19,0-.36-.13-.4-.31l-.18-.78c-.05-.22-.27-.35-.48-.3l-1.02.23c-.22.05-.35.27-.3.48l.18.78c.04.19-.06.38-.24.46-.32.14-.62.31-.91.49-.17.11-.38.09-.52-.05l-.56-.57c-.16-.16-.41-.16-.57,0l-.75.73c-.16.16-.16.41,0,.57l.56.57c.13.14.16.35.05.51-.17.24-.32.49-.45.75-.09.17-.28.25-.47.2l-.77-.22c-.21-.06-.44.06-.5.28l-.29,1c-.06.21.06.44.28.5l.77.22c.18.05.31.23.29.42-.02.19-.03.38-.03.57,0,.1,0,.21,0,.31,0,.19-.12.36-.31.4l-.78.19c-.22.05-.35.27-.3.49l.25,1.01c.05.22.27.35.49.3l.78-.19c.18-.05.38.04.46.22.12.27.26.52.42.77.1.16.07.37-.07.5l-.58.55c-.16.15-.17.41-.02.57l.72.76c.15.16.41.17.57.02l.58-.55c.14-.13.35-.15.51-.04.24.17.48.32.74.46.17.09.25.29.19.47l-.23.77c-.06.21.06.44.27.5l1,.3c.21.06.44-.06.5-.27l.23-.76c.06-.18.23-.31.42-.29.22.02.44.03.66.03.07,0,.14,0,.21,0,.19,0,.36.13.4.31l.18.78c.05.22.27.35.48.3l1.02-.23c.22-.05.35-.27.3-.48l-.18-.78c-.04-.19.06-.38.24-.46.32-.14.62-.31.91-.49.17-.11.38-.09.52.05l.56.57c.16.16.41.16.57,0l.75-.73c.16-.16.16-.41,0-.57l-.56-.57c-.13-.14-.16-.35-.05-.51.17-.24.32-.49.45-.75.09-.17.28-.25.47-.2l.77.22c.21.06.44-.06.5-.28l.29-1c.06-.21-.06-.44-.28-.5ZM233.87,142.96c-2.42,0-4.38-1.96-4.38-4.38s1.96-4.38,4.38-4.38,4.38,1.96,4.38,4.38-1.96,4.38-4.38,4.38Z"/><path class="cls-30" d="M18.12,141.31l-.77-.22c-.18-.05-.31-.23-.29-.42.02-.19.03-.38.03-.57,0-.1,0-.21,0-.31,0-.19.12-.36.31-.4l.78-.19c.22-.05.35-.27.3-.49l-.25-1.01c-.05-.22-.27-.35-.49-.3l-.78.19c-.18.05-.38-.04-.46-.22-.12-.27-.26-.52-.42-.77-.1-.16-.07-.37.07-.5l.58-.55c.16-.15.17-.41.02-.57l-.72-.76c-.15-.16-.41-.17-.57-.02l-.58.55c-.14.13-.35.15-.51.04-.24-.17-.48-.32-.74-.46-.17-.09-.25-.29-.19-.47l.23-.76c.06-.21-.06-.44-.27-.5l-1-.3c-.21-.06-.44.06-.5.27l-.23.76c-.06.18-.23.31-.42.29-.22-.02-.44-.03-.66-.03-.07,0-.14,0-.21,0-.19,0-.36-.13-.4-.31l-.18-.78c-.05-.22-.27-.35-.48-.3l-1.02.23c-.22.05-.35.27-.3.48l.18.78c.04.19-.06.38-.24.46-.32.14-.62.31-.91.49-.17.11-.38.09-.52-.05l-.56-.57c-.16-.16-.41-.16-.57,0l-.75.73c-.16.16-.16.41,0,.57l.56.57c.13.14.16.35.05.51-.17.24-.32.49-.45.75-.09.17-.28.25-.47.2l-.77-.22c-.21-.06-.44.06-.5.28l-.29,1c-.06.21.06.44.28.5l.77.22c.18.05.31.23.29.42-.02.19-.03.38-.03.57,0,.1,0,.21,0,.31,0,.19-.12.36-.31.4l-.78.19c-.22.05-.35.27-.3.49l.25,1.01c.05.22.27.35.49.3l.78-.19c.18-.05.38.04.46.22.12.27.26.52.42.77.1.16.07.37-.07.5l-.58.55c-.16.15-.17.41-.02.57l.72.76c.15.16.41.17.57.02l.58-.55c.14-.13.35-.15.51-.04.24.17.48.32.74.46.17.09.25.29.19.47l-.23.77c-.06.21.06.44.27.5l1,.3c.21.06.44-.06.5-.27l.23-.76c.06-.18.23-.31.42-.29.22.02.44.03.66.03.07,0,.14,0,.21,0,.19,0,.36.13.4.31l.18.78c.05.22.27.35.48.3l1.02-.23c.22-.05.35-.27.3-.48l-.18-.78c-.04-.19.06-.38.24-.46.32-.14.62-.31.91-.49.17-.11.38-.09.52.05l.56.57c.16.16.41.16.57,0l.75-.73c.16-.16.16-.41,0-.57l-.56-.57c-.13-.14-.16-.35-.05-.51.17-.24.32-.49.45-.75.09-.17.28-.25.47-.2l.77.22c.21.06.44-.06.5-.28l.29-1c.06-.21-.06-.44-.28-.5ZM10.57,144.49c-2.42,0-4.38-1.96-4.38-4.38s1.96-4.38,4.38-4.38,4.38,1.96,4.38,4.38-1.96,4.38-4.38,4.38Z"/><path class="cls-30" d="M241.48,204.95l-.77-.22c-.18-.05-.31-.23-.29-.42.02-.19.03-.38.03-.57,0-.1,0-.21,0-.31,0-.19.12-.36.31-.4l.78-.19c.22-.05.35-.27.3-.49l-.25-1.01c-.05-.22-.27-.35-.49-.3l-.78.19c-.18.05-.38-.04-.46-.22-.12-.27-.26-.52-.42-.77-.1-.16-.07-.37.07-.5l.58-.55c.16-.15.17-.41.02-.57l-.72-.76c-.15-.16-.41-.17-.57-.02l-.58.55c-.14.13-.35.15-.51.04-.24-.17-.48-.32-.74-.46-.17-.09-.25-.29-.19-.47l.23-.76c.06-.21-.06-.44-.27-.5l-1-.3c-.21-.06-.44.06-.5.27l-.23.76c-.06.18-.23.31-.42.29-.22-.02-.44-.03-.66-.03-.07,0-.14,0-.21,0-.19,0-.36-.13-.4-.31l-.18-.78c-.05-.22-.27-.35-.48-.3l-1.02.23c-.22.05-.35.27-.3.48l.18.78c.04.19-.06.38-.24.46-.32.14-.62.31-.91.49-.17.11-.38.09-.52-.05l-.56-.57c-.16-.16-.41-.16-.57,0l-.75.73c-.16.16-.16.41,0,.57l.56.57c.13.14.16.35.05.51-.17.24-.32.49-.45.75-.09.17-.28.25-.47.2l-.77-.22c-.21-.06-.44.06-.5.28l-.29,1c-.06.21.06.44.28.5l.77.22c.18.05.31.23.29.42-.02.19-.03.38-.03.57,0,.1,0,.21,0,.31,0,.19-.12.36-.31.4l-.78.19c-.22.05-.35.27-.3.49l.25,1.01c.05.22.27.35.49.3l.78-.19c.18-.05.38.04.46.22.12.27.26.52.42.77.1.16.07.37-.07.5l-.58.55c-.16.15-.17.41-.02.57l.72.76c.15.16.41.17.57.02l.58-.55c.14-.13.35-.15.51-.04.24.17.48.32.74.46.17.09.25.29.19.47l-.23.77c-.06.21.06.44.27.5l1,.3c.21.06.44-.06.5-.27l.23-.76c.06-.18.23-.31.42-.29.22.02.44.03.66.03.07,0,.14,0,.21,0,.19,0,.36.13.4.31l.18.78c.05.22.27.35.48.3l1.02-.23c.22-.05.35-.27.3-.48l-.18-.78c-.04-.19.06-.38.24-.46.32-.14.62-.31.91-.49.17-.11.38-.09.52.05l.56.57c.16.16.41.16.57,0l.75-.73c.16-.16.16-.41,0-.57l-.56-.57c-.13-.14-.16-.35-.05-.51.17-.24.32-.49.45-.75.09-.17.28-.25.47-.2l.77.22c.21.06.44-.06.5-.28l.29-1c.06-.21-.06-.44-.28-.5ZM233.93,208.13c-2.42,0-4.38-1.96-4.38-4.38s1.96-4.38,4.38-4.38,4.38,1.96,4.38,4.38-1.96,4.38-4.38,4.38Z"/></g></svg>