<?xml version="1.0" encoding="UTF-8"?>
<svg id="Layer_1" data-name="Layer 1" xmlns="http://www.w3.org/2000/svg" xmlns:xlink="http://www.w3.org/1999/xlink" viewBox="0 0 90 90">
  <defs>
    <style>
      .cls-1 {
        fill: url(#linear-gradient-3);
      }

      .cls-2 {
        stroke: url(#linear-gradient);
      }

      .cls-2, .cls-3 {
        fill: none;
        stroke-linecap: round;
        stroke-linejoin: round;
        stroke-width: 6px;
      }

      .cls-3 {
        stroke: url(#linear-gradient-2);
      }
    </style>
    <linearGradient id="linear-gradient" x1="45.5" y1=".51" x2="45.5" y2="29.66" gradientUnits="userSpaceOnUse">
      <stop offset="0" stop-color="#2b3edb"/>
      <stop offset="1" stop-color="#8efecc"/>
    </linearGradient>
    <linearGradient id="linear-gradient-2" x1="45.57" y1="89.49" x2="45.57" y2="12.08" xlink:href="#linear-gradient"/>
    <linearGradient id="linear-gradient-3" x1="45.54" y1="67.75" x2="43.83" y2="31.92" gradientUnits="userSpaceOnUse">
      <stop offset="0" stop-color="#2b3edb"/>
      <stop offset=".41" stop-color="#5591d4"/>
      <stop offset=".81" stop-color="#7edfce"/>
      <stop offset="1" stop-color="#8efecc"/>
    </linearGradient>
  </defs>
  <path class="cls-2" d="M86.13,6.53v17.11c0,1.67-1.35,3.02-3.02,3.02h-10.96v-4.86c0-3.71-3.01-6.72-6.72-6.72H25.71c-3.71,0-6.72,3.01-6.72,6.72v4.86H7.89c-1.67,0-3.02-1.35-3.02-3.02V6.53c0-1.67,1.35-3.02,3.02-3.02h75.21c1.67,0,3.02,1.35,3.02,3.02Z"/>
  <rect class="cls-3" x="18.99" y="15.08" width="53.16" height="71.41" rx="6.78" ry="6.78"/>
  <path class="cls-1" d="M43.63,67.48c-.17-.17-.26-.39-.26-.66v-2.79c-1.86-.16-3.46-.59-4.82-1.29-1.35-.7-2.38-1.58-3.09-2.63-.7-1.05-1.08-2.17-1.13-3.36,0-.21.09-.4.26-.58.17-.17.38-.26.62-.26h2.07c.48,0,.81.27,1,.8.26,1.12.96,2.07,2.07,2.87,1.12.8,2.69,1.19,4.74,1.19,2.2,0,3.86-.39,4.98-1.17,1.12-.78,1.67-1.88,1.67-3.29,0-.9-.27-1.63-.82-2.19-.54-.56-1.35-1.05-2.41-1.47-1.06-.42-2.66-.96-4.78-1.59-2.07-.58-3.72-1.21-4.94-1.87-1.22-.66-2.14-1.49-2.75-2.47-.61-.98-.92-2.22-.92-3.7,0-1.96.73-3.63,2.19-5,1.46-1.37,3.48-2.18,6.05-2.45v-2.75c0-.27.09-.48.26-.66s.39-.26.66-.26h1.51c.26,0,.48.09.66.26s.26.39.26.66v2.79c1.7.21,3.15.69,4.36,1.43,1.21.74,2.12,1.62,2.75,2.63.62,1.01.96,2.02,1.02,3.03,0,.21-.07.4-.22.56-.15.16-.35.24-.62.24h-2.11c-.56,0-.9-.25-1.04-.76-.16-1.12-.78-2.04-1.87-2.77-1.09-.73-2.46-1.1-4.1-1.1-1.81,0-3.23.35-4.26,1.04s-1.55,1.71-1.55,3.07c0,.9.24,1.65.74,2.23.49.58,1.24,1.1,2.25,1.53,1.01.44,2.48.94,4.42,1.49,2.26.61,4.04,1.24,5.34,1.89s2.27,1.46,2.91,2.43c.64.97.96,2.2.96,3.68,0,2.26-.8,4.07-2.39,5.44-1.59,1.37-3.78,2.17-6.57,2.41v2.75c0,.27-.09.48-.26.66-.17.17-.39.26-.66.26h-1.51c-.27,0-.49-.09-.66-.26Z"/>
</svg>