<?xml version="1.0" encoding="UTF-8"?>
<svg id="Layer_1" data-name="Layer 1" xmlns="http://www.w3.org/2000/svg" viewBox="0 0 90 90">
  <defs>
    <style>
      .cls-1 {
        fill: none;
        stroke: #71ffc5;
        stroke-linecap: round;
        stroke-linejoin: round;
        stroke-width: 6px;
      }
    </style>
  </defs>
  <path class="cls-1" d="M34.61,9.61c2.22,2.22,3.76,4.86,4.61,7.67,1.9,6.29.37,13.41-4.6,18.38-4.97,4.97-12.09,6.5-18.38,4.6-2.81-.85-5.45-2.38-7.67-4.61-7.19-7.19-7.19-18.85,0-26.04,7.19-7.19,18.85-7.19,26.04,0Z"/>
  <polygon class="cls-1" points="85.14 32.14 68.68 41.64 52.22 32.14 52.22 13.13 68.68 3.63 85.14 13.13 85.14 32.14"/>
  <polygon class="cls-1" points="87 86.58 49.86 86.42 68.57 54.33 87 86.58"/>
  <rect class="cls-1" x="3.34" y="53.44" width="33.14" height="33.14"/>
</svg>