<?xml version="1.0" encoding="UTF-8"?><svg id="Layer_2" xmlns="http://www.w3.org/2000/svg" xmlns:xlink="http://www.w3.org/1999/xlink" viewBox="0 0 172.3 197.72"><defs><style>.cls-1{fill:#30bebc;}.cls-2{fill:#fff;}.cls-3{fill:#325aff;fill-rule:evenodd;}.cls-4{stroke-linecap:round;}.cls-4,.cls-5{fill:none;stroke:#325aff;stroke-miterlimit:10;stroke-width:3.76px;}.cls-6{fill:url(#linear-gradient);}</style><linearGradient id="linear-gradient" x1="6.24" y1="-1.53" x2="189.08" y2="181.32" gradientUnits="userSpaceOnUse"><stop offset="0" stop-color="#fcd151"/><stop offset=".5" stop-color="#30bebc"/><stop offset=".8" stop-color="#325aff"/></linearGradient></defs><g id="Blocks"><path class="cls-6" d="M172.13,38.23c0-2.75-2.24-4.97-4.96-5.33-30.87-1.45-48.15-11.25-77.21-32.09-1.7-1.08-3.84-1.08-5.54,0-9.39,5.97-27.29,27.77-79.39,32.09-2.73.36-4.96,2.58-4.96,5.33,0,0-2.35,52.53,22.03,93.25,36.16,60.41,65.09,66.24,65.09,66.24,0,0,32.83-18.5,60.51-60.51,28.29-42.95,24.44-98.98,24.44-98.98ZM138.17,132.37c-21.96,34.66-46.67,48.8-47.71,49.39l-1.46.82-1.63-.37c-1-.23-24.71-6.09-53.29-56.33C13.77,90.2,13.98,51.86,14.01,49.84c.02-4.31,3.36-7.98,7.77-8.56,30.65-2.88,47.09-15.65,55.92-22.51,1.9-1.48,3.55-2.75,4.98-3.67,2.77-1.76,6.35-1.76,9.12,0l.2.14c24.36,17.47,38.19,24.94,60.77,26.01l.35.03c4.43.58,7.78,4.27,7.78,8.59.07,1.62,1.51,44.22-22.74,82.5Z"/><path class="cls-4" d="M107.77,133.17h-38.74c-5.07,0-9.17-4.11-9.17-9.17v-53.61c0-5.07,4.11-9.17,9.17-9.17h38.74c5.07,0,9.17,4.11,9.17,9.17v45"/><line class="cls-5" x1="70.03" y1="106.78" x2="70.03" y2="75.8"/><line class="cls-5" x1="78.75" y1="106.78" x2="78.75" y2="84.72"/><line class="cls-5" x1="87.48" y1="106.78" x2="87.48" y2="91.29"/><circle class="cls-1" cx="114.45" cy="74.56" r="19.37"/><g id="compliance"><path class="cls-2" d="M112.87,80l-4.96-4.96,1.88-1.88,3.09,3.09,7.11-7.11,1.88,1.88-8.99,8.99Z"/></g><path class="cls-3" d="M89.5,111.38l-2.02,2.02,9.37,9.36,2.02-2.02-1.16-1.17,4.39-4.39,18.79,18.79,1.83-1.83-18.79-18.79,4.3-4.3,1.17,1.17,2.03-2.02-9.35-9.35-2.02,2.02,1.25,1.25-10.52,10.52-1.28-1.28Z"/></g></svg>