<?xml version="1.0" encoding="UTF-8"?>
<svg id="Layer_1" data-name="Layer 1" xmlns="http://www.w3.org/2000/svg" viewBox="0 0 90 90">
  <defs>
    <style>
      .cls-1 {
        fill: #71ffc5;
      }
    </style>
  </defs>
  <path class="cls-1" d="M70.88,89.46H14.98c-4.59,0-8.33-3.74-8.33-8.33V8.88C6.65,4.28,10.39.55,14.98.55h54.64c4.59,0,8.33,3.74,8.33,8.33v19.5c0,1.66-1.34,3-3,3s-3-1.34-3-3V8.88c0-1.28-1.04-2.33-2.33-2.33H14.98c-1.29,0-2.33,1.05-2.33,2.33v72.25c0,1.29,1.04,2.33,2.33,2.33h55.9c.59,0,1.07-.48,1.07-1.07v-8.69c0-1.66,1.34-3,3-3s3,1.34,3,3v8.69c0,3.9-3.17,7.07-7.07,7.07ZM29.91,73.8h-7.82c-1.66,0-3-1.34-3-3s1.34-3,3-3h7.82c1.66,0,3,1.34,3,3s-1.34,3-3,3Z"/>
  <path class="cls-1" d="M75.25,66.46c-1.66,0-3-1.34-3-3v-19.84l-2.9,2.9c-1.17,1.17-3.07,1.17-4.24,0s-1.17-3.07,0-4.24l7.68-7.68c.57-.57,1.35-.84,2.14-.88.8,0,1.57.33,2.13.91l7.76,7.99c1.16,1.19,1.13,3.09-.06,4.24-1.19,1.16-3.09,1.13-4.24-.06l-2.27-2.34v19c0,1.66-1.34,3-3,3Z"/>
  <path class="cls-1" d="M46.63,70.41c-4.55,0-8.26-3.71-8.26-8.26s3.71-8.26,8.26-8.26,8.26,3.71,8.26,8.26-3.71,8.26-8.26,8.26ZM46.63,59.89c-1.25,0-2.26,1.01-2.26,2.26s1.01,2.26,2.26,2.26,2.26-1.01,2.26-2.26-1.01-2.26-2.26-2.26Z"/>
  <path class="cls-1" d="M57.36,50.09h-10.68c-1.66,0-3-1.34-3-3v-12.73c0-1.66,1.34-3,3-3h10.68c1.66,0,3,1.34,3,3v12.73c0,1.66-1.34,3-3,3ZM49.68,44.09h4.68v-6.73h-4.68v6.73Z"/>
  <path class="cls-1" d="M32.38,59.89h-7.77c-1.07,0-2.06-.57-2.6-1.5l-3.88-6.73c-.54-.93-.54-2.07,0-3l3.88-6.73c.54-.93,1.53-1.5,2.6-1.5h7.77c1.07,0,2.06.57,2.6,1.5l3.88,6.73c.54.93.54,2.07,0,3l-3.88,6.73c-.54.93-1.53,1.5-2.6,1.5ZM26.34,53.89h4.3l2.15-3.73-2.15-3.73h-4.3l-2.15,3.73,2.15,3.73Z"/>
</svg>