<?xml version="1.0" encoding="UTF-8"?>
<svg id="Layer_1" data-name="Layer 1" xmlns="http://www.w3.org/2000/svg" viewBox="0 0 90 90">
  <defs>
    <style>
      .cls-1 {
        fill: #71ffc5;
      }

      .cls-2 {
        fill: none;
        stroke: #71ffc5;
        stroke-linecap: round;
        stroke-linejoin: round;
        stroke-width: 6px;
      }
    </style>
  </defs>
  <path class="cls-1" d="M68.21,63.22c-.07,1.13-1.01,2-2.13,2-.05,0-.09,0-.14,0-11.36-.71-19.15-6.08-22.72-15.6-3.58,9.52-11.37,14.88-22.73,15.6-.05,0-.09,0-.14,0-1.13,0-2.07-.87-2.14-2-.07-1.18.83-2.2,2-2.27,10.92-.68,17.44-5.85,19.91-15.8.61-2.42.91-5.04.91-7.77v-12.38l-6.1,4.86c-.4.31-.87.46-1.33.46-.63,0-1.26-.28-1.68-.81-.73-.93-.58-2.27.34-3.01l9.91-7.89c.8-.63,1.93-.62,2.71.04l9.38,7.89c.91.76,1.02,2.11.26,3.02-.76.91-2.11,1.02-3.01.26l-6.15-5.16v12.72c0,2.73.31,5.35.91,7.77,2.48,9.96,8.99,15.13,19.91,15.8,1.18.08,2.08,1.09,2,2.27Z"/>
  <polygon class="cls-2" points="79.7 24.07 43.45 3.14 7.19 24.07 7.19 65.93 43.45 86.86 79.7 65.93 79.7 24.07"/>
</svg>