<?xml version="1.0" encoding="UTF-8"?><svg id="Layer_2" xmlns="http://www.w3.org/2000/svg" xmlns:xlink="http://www.w3.org/1999/xlink" viewBox="0 0 247.36 285.47"><defs><style>.cls-1{fill:#fcd151;}.cls-2{fill:url(#linear-gradient-8);stroke:url(#linear-gradient-9);}.cls-2,.cls-3,.cls-4,.cls-5,.cls-6,.cls-7,.cls-8{stroke-miterlimit:10;}.cls-2,.cls-3,.cls-5,.cls-6,.cls-7,.cls-8{stroke-width:10px;}.cls-9{fill:#30bebc;}.cls-10{fill:#33acff;}.cls-11{fill:#2b3edb;}.cls-12{stroke-dasharray:0 3.79;}.cls-12,.cls-4,.cls-5,.cls-6,.cls-13,.cls-7,.cls-14,.cls-15{fill:none;}.cls-12,.cls-13,.cls-14,.cls-15{stroke:#9b9c9e;stroke-linecap:round;stroke-linejoin:round;}.cls-3{fill:url(#linear-gradient);stroke:url(#linear-gradient-2);}.cls-4{stroke:#f4f4f4;}.cls-16{fill:#fcd151;}.cls-5{stroke:url(#linear-gradient-6);}.cls-6{stroke:url(#linear-gradient-7);}.cls-17{fill:#30bebc;}.cls-18{fill:#f4f4f4;}.cls-13{stroke-dasharray:0 4.34;}.cls-7{stroke:url(#linear-gradient-5);}.cls-8{fill:url(#linear-gradient-3);stroke:url(#linear-gradient-4);}.cls-19{fill:#ff7f2a;}.cls-15{stroke-dasharray:0 4.31;}.cls-20{fill:#0018a8;}</style><linearGradient id="linear-gradient" x1="246.98" y1="99.9" x2="196.86" y2="184.7" gradientUnits="userSpaceOnUse"><stop offset="0" stop-color="#0018a8"/><stop offset=".4" stop-color="#30bebc"/><stop offset=".8" stop-color="#fcd151"/></linearGradient><linearGradient id="linear-gradient-2" x1="3563.38" y1="4254.04" x2="3666.96" y2="4254.04" gradientTransform="translate(5723.6 -805.39) rotate(120.59)" gradientUnits="userSpaceOnUse"><stop offset=".2" stop-color="#325aff"/><stop offset=".4" stop-color="#30bebc"/><stop offset=".8" stop-color="#fcd151"/></linearGradient><linearGradient id="linear-gradient-3" x1="172.96" y1="56.15" x2="172.3" y2="57.28" xlink:href="#linear-gradient"/><linearGradient id="linear-gradient-4" x1="624.78" y1="3260" x2="727.61" y2="3260" gradientTransform="translate(2688.09 -2124.43) rotate(60.79)" xlink:href="#linear-gradient-2"/><linearGradient id="linear-gradient-5" x1="5892.73" y1="2235.54" x2="5995.77" y2="2235.54" gradientTransform="translate(6118.1 2460.79) rotate(179.98)" xlink:href="#linear-gradient-2"/><linearGradient id="linear-gradient-6" x1="5281.43" y1="-868.32" x2="5384.65" y2="-868.32" gradientTransform="translate(3415.09 4474.29) rotate(-118.94)" xlink:href="#linear-gradient-2"/><linearGradient id="linear-gradient-7" x1="2382.46" y1="-1855.61" x2="2485.58" y2="-1855.61" gradientTransform="translate(413.18 3177.8) rotate(-59.96)" xlink:href="#linear-gradient-2"/><linearGradient id="linear-gradient-8" x1="99.47" y1="14.23" x2="49.25" y2="99.19" xlink:href="#linear-gradient"/><linearGradient id="linear-gradient-9" x1="28.5" y1="154.69" x2="131.67" y2="154.69" gradientTransform="translate(-6.54 -97.55) rotate(-.31)" xlink:href="#linear-gradient-2"/></defs><g id="Blocks"><line class="cls-14" x1=".5" y1="71.62" x2=".5" y2="71.62"/><line class="cls-15" x1=".5" y1="75.93" x2=".5" y2="211.7"/><line class="cls-14" x1=".5" y1="213.85" x2=".5" y2="213.85"/><line class="cls-15" x1="4.23" y1="216.01" x2="121.81" y2="283.89"/><line class="cls-14" x1="123.68" y1="284.97" x2="123.68" y2="284.97"/><line class="cls-15" x1="127.41" y1="282.81" x2="244.99" y2="214.93"/><line class="cls-14" x1="246.86" y1="213.85" x2="246.86" y2="213.85"/><line class="cls-15" x1="246.86" y1="209.54" x2="246.86" y2="73.77"/><line class="cls-14" x1="246.86" y1="71.62" x2="246.86" y2="71.62"/><line class="cls-15" x1="243.12" y1="69.46" x2="125.54" y2="1.58"/><line class="cls-14" x1="123.68" y1=".5" x2="123.68" y2=".5"/><line class="cls-15" x1="119.95" y1="2.66" x2="2.37" y2="70.54"/><line class="cls-14" x1="67.33" y1="110.2" x2="67.33" y2="110.2"/><line class="cls-13" x1="67.33" y1="114.54" x2="67.33" y2="173.1"/><line class="cls-14" x1="67.33" y1="175.27" x2="67.33" y2="175.27"/><line class="cls-13" x1="71.09" y1="177.44" x2="121.8" y2="206.72"/><line class="cls-14" x1="123.68" y1="207.8" x2="123.68" y2="207.8"/><line class="cls-13" x1="127.43" y1="205.63" x2="178.15" y2="176.35"/><line class="cls-14" x1="180.03" y1="175.27" x2="180.03" y2="175.27"/><line class="cls-13" x1="180.03" y1="170.93" x2="180.03" y2="112.37"/><line class="cls-14" x1="180.03" y1="110.2" x2="180.03" y2="110.2"/><line class="cls-13" x1="176.27" y1="108.03" x2="125.56" y2="78.75"/><line class="cls-14" x1="123.68" y1="77.67" x2="123.68" y2="77.67"/><line class="cls-13" x1="119.92" y1="79.84" x2="69.21" y2="109.12"/><line class="cls-14" x1="87.58" y1="121.89" x2="87.58" y2="121.89"/><line class="cls-12" x1="87.58" y1="125.68" x2="87.58" y2="161.68"/><line class="cls-14" x1="87.58" y1="163.58" x2="87.58" y2="163.58"/><line class="cls-12" x1="90.86" y1="165.47" x2="122.04" y2="183.47"/><line class="cls-14" x1="123.68" y1="184.42" x2="123.68" y2="184.42"/><line class="cls-12" x1="126.96" y1="182.52" x2="158.14" y2="164.52"/><line class="cls-14" x1="159.78" y1="163.58" x2="159.78" y2="163.58"/><line class="cls-12" x1="159.78" y1="159.79" x2="159.78" y2="123.79"/><line class="cls-14" x1="159.78" y1="121.89" x2="159.78" y2="121.89"/><line class="cls-12" x1="156.5" y1="120" x2="125.32" y2="102"/><line class="cls-14" x1="123.68" y1="101.05" x2="123.68" y2="101.05"/><line class="cls-12" x1="120.4" y1="102.94" x2="89.22" y2="120.94"/><line class="cls-3" x1="221.88" y1="199.49" x2="221.95" y2="85.11"/><line class="cls-8" x1="221.95" y1="85.11" x2="123.31" y2="28.32"/><line class="cls-7" x1="123.87" y1="256.16" x2="221.88" y2="199.49"/><line class="cls-5" x1="25.45" y1="198.46" x2="123.87" y2="256.16"/><line class="cls-6" x1="25.41" y1="85.1" x2="25.45" y2="198.46"/><line class="cls-2" x1="123.31" y1="28.32" x2="25.41" y2="85.1"/><circle class="cls-16" cx="219.65" cy="85.11" r="12"/><circle class="cls-17" cx="27.35" cy="86.97" r="12"/><circle class="cls-17" cx="219.65" cy="198.6" r="12"/><circle class="cls-16" cx="28.38" cy="198.6" r="12"/><circle class="cls-20" cx="123.31" cy="31.01" r="12"/><circle class="cls-20" cx="123.68" cy="253.24" r="12"/><circle class="cls-11" cx="127.12" cy="141.78" r="30.47"/><path class="cls-18" d="M118.86,158.62c2.07-3.74,4.15-7.48,6.23-11.22.8-1.45.77-1.55-.78-2.05-2.59-.83-5.17-1.66-8.04-2.58,6.44-5.47,12.68-10.77,18.92-16.07.06.05.13.09.19.14-1.26,2.27-2.51,4.54-3.77,6.81-.86,1.55-1.74,3.1-2.59,4.65-.62,1.12-.53,1.32.74,1.73,2.63.85,5.27,1.69,8.22,2.64-6.44,5.47-12.69,10.79-18.94,16.1-.06-.05-.12-.1-.18-.15Z"/><g id="_x34_"><path class="cls-1" d="M45.98,182.79v10.57h20.4v-10.57h-20.4ZM49.94,191.9h-2.39v-2.39h.48v1.91h1.91v.48ZM49.94,184.7h-1.91v1.91h-.48v-2.39h2.39v.48ZM56.18,191.9c-2.11,0-3.85-1.71-3.85-3.85s1.71-3.85,3.85-3.85,3.85,1.71,3.85,3.85c0,2.13-1.73,3.85-3.85,3.85ZM65.06,191.9h-2.39v-.48h1.91v-1.91h.48v2.39ZM65.06,186.61h-.48v-1.91h-1.91v-.48h2.39v2.39Z"/></g><path id="_x33_" class="cls-1" d="M57.76,188.99c0-.64-.38-1.08-1.2-1.38-.6-.22-.86-.36-.86-.64,0-.24.22-.44.66-.44s.78.12.96.22l.24-.84c-.2-.1-.46-.18-.8-.22v-.68h-1.18v.8c-.58.22-.92.68-.92,1.24,0,.66.5,1.1,1.26,1.36.56.2.78.36.78.64,0,.3-.26.5-.72.5s-.88-.14-1.16-.28l-.22.86c.2.12.58.22.98.26v.66h1.18v-.76c.68-.22,1-.72,1-1.3Z"/><polygon id="_x32_" class="cls-1" points="65.41 181.81 45.02 181.81 45.02 192.26 45.5 192.26 45.5 182.31 65.41 182.31 65.41 181.81"/><polygon id="_x31_" class="cls-1" points="64.46 180.85 44.06 180.85 44.06 191.3 44.54 191.3 44.54 181.33 64.46 181.33 64.46 180.85"/><rect class="cls-1" x="55.77" y="194.18" width=".8" height="3.47"/><polygon class="cls-1" points="54.57 197.18 56.17 199.95 57.77 197.18 54.57 197.18"/><g id="_x34_-2"><path class="cls-19" d="M180.12,182.79v10.57h20.4v-10.57h-20.4ZM184.09,191.9h-2.39v-2.39h.48v1.91h1.91v.48ZM184.09,184.7h-1.91v1.91h-.48v-2.39h2.39v.48ZM190.33,191.9c-2.11,0-3.85-1.71-3.85-3.85s1.71-3.85,3.85-3.85,3.85,1.71,3.85,3.85c0,2.13-1.73,3.85-3.85,3.85ZM199.2,191.9h-2.39v-.48h1.91v-1.91h.48v2.39ZM199.2,186.61h-.48v-1.91h-1.91v-.48h2.39v2.39Z"/></g><path id="_x33_-2" class="cls-19" d="M191.9,188.99c0-.64-.38-1.08-1.2-1.38-.6-.22-.86-.36-.86-.64,0-.24.22-.44.66-.44s.78.12.96.22l.24-.84c-.2-.1-.46-.18-.8-.22v-.68h-1.18v.8c-.58.22-.92.68-.92,1.24,0,.66.5,1.1,1.26,1.36.56.2.78.36.78.64,0,.3-.26.5-.72.5s-.88-.14-1.16-.28l-.22.86c.2.12.58.22.98.26v.66h1.18v-.76c.68-.22,1-.72,1-1.3Z"/><polygon id="_x32_-2" class="cls-19" points="199.56 181.81 179.16 181.81 179.16 192.26 179.64 192.26 179.64 182.31 199.56 182.31 199.56 181.81"/><polygon id="_x31_-2" class="cls-19" points="198.6 180.85 178.2 180.85 178.2 191.3 178.68 191.3 178.68 181.33 198.6 181.33 198.6 180.85"/><rect class="cls-19" x="189.92" y="194.18" width=".8" height="3.47"/><polygon class="cls-19" points="188.72 197.18 190.32 199.95 191.92 197.18 188.72 197.18"/><g id="_x34_-3"><path class="cls-9" d="M46.93,92.88v10.57h20.4v-10.57h-20.4ZM50.9,101.99h-2.39v-2.39h.48v1.91h1.91v.48ZM50.9,94.8h-1.91v1.91h-.48v-2.39h2.39v.48ZM57.14,101.99c-2.11,0-3.85-1.71-3.85-3.85s1.71-3.85,3.85-3.85,3.85,1.71,3.85,3.85c0,2.13-1.73,3.85-3.85,3.85ZM66.01,101.99h-2.39v-.48h1.91v-1.91h.48v2.39ZM66.01,96.71h-.48v-1.91h-1.91v-.48h2.39v2.39Z"/></g><path id="_x33_-3" class="cls-9" d="M58.72,99.08c0-.64-.38-1.08-1.2-1.38-.6-.22-.86-.36-.86-.64,0-.24.22-.44.66-.44s.78.12.96.22l.24-.84c-.2-.1-.46-.18-.8-.22v-.68h-1.18v.8c-.58.22-.92.68-.92,1.24,0,.66.5,1.1,1.26,1.36.56.2.78.36.78.64,0,.3-.26.5-.72.5s-.88-.14-1.16-.28l-.22.86c.2.12.58.22.98.26v.66h1.18v-.76c.68-.22,1-.72,1-1.3Z"/><polygon id="_x32_-3" class="cls-9" points="66.37 91.91 45.98 91.91 45.98 102.35 46.45 102.35 46.45 92.4 66.37 92.4 66.37 91.91"/><polygon id="_x31_-3" class="cls-9" points="65.41 90.95 45.02 90.95 45.02 101.4 45.5 101.4 45.5 91.43 65.41 91.43 65.41 90.95"/><rect class="cls-9" x="56.73" y="104.28" width=".8" height="3.47"/><polygon class="cls-9" points="55.53 107.28 57.13 110.05 58.73 107.28 55.53 107.28"/><g id="_x34_-4"><path class="cls-10" d="M181.48,92.88v10.57h20.4v-10.57h-20.4ZM185.44,101.99h-2.39v-2.39h.48v1.91h1.91v.48ZM185.44,94.8h-1.91v1.91h-.48v-2.39h2.39v.48ZM191.68,101.99c-2.11,0-3.85-1.71-3.85-3.85s1.71-3.85,3.85-3.85,3.85,1.71,3.85,3.85c0,2.13-1.73,3.85-3.85,3.85ZM200.56,101.99h-2.39v-.48h1.91v-1.91h.48v2.39ZM200.56,96.71h-.48v-1.91h-1.91v-.48h2.39v2.39Z"/></g><path id="_x33_-4" class="cls-10" d="M193.26,99.08c0-.64-.38-1.08-1.2-1.38-.6-.22-.86-.36-.86-.64,0-.24.22-.44.66-.44s.78.12.96.22l.24-.84c-.2-.1-.46-.18-.8-.22v-.68h-1.18v.8c-.58.22-.92.68-.92,1.24,0,.66.5,1.1,1.26,1.36.56.2.78.36.78.64,0,.3-.26.5-.72.5s-.88-.14-1.16-.28l-.22.86c.2.12.58.22.98.26v.66h1.18v-.76c.68-.22,1-.72,1-1.3Z"/><polygon id="_x32_-4" class="cls-10" points="200.91 91.91 180.52 91.91 180.52 102.35 181 102.35 181 92.4 200.91 92.4 200.91 91.91"/><polygon id="_x31_-4" class="cls-10" points="199.96 90.95 179.56 90.95 179.56 101.4 180.04 101.4 180.04 91.43 199.96 91.43 199.96 90.95"/><rect class="cls-10" x="191.27" y="104.28" width=".8" height="3.47"/><polygon class="cls-10" points="190.07 107.28 191.67 110.05 193.27 107.28 190.07 107.28"/><circle class="cls-11" cx="66.01" cy="181.81" r="4.97"/><polyline class="cls-4" points="63.16 181.8 65.1 183.74 68.95 179.88"/></g></svg>