<?xml version="1.0" encoding="UTF-8"?><svg id="Layer_2" xmlns="http://www.w3.org/2000/svg" xmlns:xlink="http://www.w3.org/1999/xlink" viewBox="0 0 342.86 160.2"><defs><style>.cls-1{fill:url(#linear-gradient-15);}.cls-2{fill:url(#linear-gradient-13);}.cls-3{fill:#fcd151;}.cls-4{stroke:url(#linear-gradient-5);}.cls-4,.cls-5,.cls-6,.cls-7,.cls-8,.cls-9,.cls-10,.cls-11,.cls-12,.cls-13,.cls-14{stroke-miterlimit:10;}.cls-4,.cls-5,.cls-6,.cls-7,.cls-8,.cls-9,.cls-10,.cls-11,.cls-12,.cls-13,.cls-14,.cls-15{fill:none;}.cls-4,.cls-6,.cls-7,.cls-8,.cls-9,.cls-10,.cls-11,.cls-12,.cls-13,.cls-14{stroke-width:7.38px;}.cls-5{stroke:url(#linear-gradient);stroke-width:8.29px;}.cls-16{fill:#325aff;}.cls-6{stroke:url(#linear-gradient-6);}.cls-7{stroke:url(#linear-gradient-7);}.cls-17{fill:url(#linear-gradient-12);}.cls-8{stroke:url(#linear-gradient-8);}.cls-18{fill:#30bebc;}.cls-19{fill:#fff;}.cls-9{stroke:url(#linear-gradient-9);}.cls-10{stroke:url(#linear-gradient-2);}.cls-20{fill:url(#linear-gradient-14);}.cls-21{fill:#dd9442;}.cls-11{stroke:url(#linear-gradient-10);}.cls-12{stroke:url(#linear-gradient-11);}.cls-22{fill:url(#linear-gradient-17);}.cls-13{stroke:url(#linear-gradient-4);}.cls-23{fill:#999;}.cls-24{fill:#ff681d;}.cls-14{stroke:url(#linear-gradient-3);}.cls-25{fill:#003edb;}.cls-26{fill:url(#linear-gradient-16);}.cls-27{fill:#008f9a;}.cls-15{stroke:#333;stroke-dasharray:0 4.36;stroke-linecap:round;stroke-linejoin:round;}</style><linearGradient id="linear-gradient" x1="327.02" y1="162.95" x2="161.31" y2="-2.75" gradientUnits="userSpaceOnUse"><stop offset="0" stop-color="#325aff"/><stop offset=".5" stop-color="#30bebc"/><stop offset="1" stop-color="#fcd151"/></linearGradient><linearGradient id="linear-gradient-2" x1="172.93" y1="82.38" x2="172.93" y2="99.65" gradientUnits="userSpaceOnUse"><stop offset="0" stop-color="#325aff"/><stop offset="1" stop-color="#e6ebff"/></linearGradient><linearGradient id="linear-gradient-3" x1="186.94" y1="59.15" x2="186.94" y2="99.65" gradientUnits="userSpaceOnUse"><stop offset="0" stop-color="#30bebc"/><stop offset="1" stop-color="#d5ffec"/></linearGradient><linearGradient id="linear-gradient-4" x1="200.96" y1="86.27" x2="200.96" xlink:href="#linear-gradient-2"/><linearGradient id="linear-gradient-5" x1="214.97" y1="68.37" x2="214.97" xlink:href="#linear-gradient-3"/><linearGradient id="linear-gradient-6" x1="228.98" y1="59.03" x2="228.98" xlink:href="#linear-gradient-2"/><linearGradient id="linear-gradient-7" x1="242.99" y1="53.19" x2="242.99" y2="99.65" gradientUnits="userSpaceOnUse"><stop offset="0" stop-color="#fcd151"/><stop offset="1" stop-color="#fbf4e5"/></linearGradient><linearGradient id="linear-gradient-8" x1="257.01" y1="75.11" x2="257.01" xlink:href="#linear-gradient-2"/><linearGradient id="linear-gradient-9" x1="271.02" y1="44.43" x2="271.02" xlink:href="#linear-gradient-3"/><linearGradient id="linear-gradient-10" x1="285.03" y1="40.34" x2="285.03" xlink:href="#linear-gradient-2"/><linearGradient id="linear-gradient-11" x1="299.05" y1="27.5" x2="299.05" xlink:href="#linear-gradient-3"/><linearGradient id="linear-gradient-12" x1="290.95" y1="127.24" x2="321.57" y2="127.24" xlink:href="#linear-gradient-7"/><linearGradient id="linear-gradient-13" x1="248.87" y1="127.24" x2="279.49" y2="127.24" xlink:href="#linear-gradient-2"/><linearGradient id="linear-gradient-14" x1="265.28" y1="119.04" x2="279.49" y2="119.04" xlink:href="#linear-gradient-7"/><linearGradient id="linear-gradient-15" x1="206.79" y1="127.24" x2="237.41" y2="127.24" xlink:href="#linear-gradient-3"/><linearGradient id="linear-gradient-16" x1="164.72" y1="127.24" x2="195.34" y2="127.24" xlink:href="#linear-gradient-7"/><linearGradient id="linear-gradient-17" x1="181.13" y1="127.24" x2="197.6" y2="127.24" xlink:href="#linear-gradient-3"/></defs><g id="Text__x2F__Blocks"><rect class="cls-5" x="149.61" y="4.14" width="189.1" height="151.91" rx="18.2" ry="18.2"/><line class="cls-10" x1="172.93" y1="99.65" x2="172.93" y2="82.38"/><line class="cls-14" x1="186.94" y1="99.65" x2="186.94" y2="59.15"/><line class="cls-13" x1="200.96" y1="99.65" x2="200.96" y2="86.27"/><line class="cls-4" x1="214.97" y1="99.65" x2="214.97" y2="68.37"/><line class="cls-6" x1="228.98" y1="99.65" x2="228.98" y2="59.03"/><line class="cls-7" x1="242.99" y1="99.65" x2="242.99" y2="53.19"/><line class="cls-8" x1="257.01" y1="99.65" x2="257.01" y2="75.11"/><line class="cls-9" x1="271.02" y1="99.65" x2="271.02" y2="44.43"/><line class="cls-11" x1="285.03" y1="99.65" x2="285.03" y2="40.34"/><line class="cls-12" x1="299.05" y1="99.65" x2="299.05" y2="27.5"/><circle class="cls-21" cx="242.99" cy="53.56" r="3.69"/><circle class="cls-27" cx="186.94" cy="59.01" r="3.69"/><circle class="cls-27" cx="299.05" cy="27.5" r="3.69"/><circle class="cls-27" cx="214.97" cy="68.37" r="3.69"/><circle class="cls-27" cx="271.02" cy="44.65" r="3.69"/><circle class="cls-25" cx="200.96" cy="86.64" r="3.69"/><circle class="cls-25" cx="172.93" cy="82.58" r="3.69"/><circle class="cls-25" cx="228.98" cy="59.15" r="3.69"/><circle class="cls-25" cx="257.01" cy="75.11" r="3.69"/><circle class="cls-25" cx="285.03" cy="40.34" r="3.69"/><path class="cls-17" d="M307.36,127.24l14.21,8.2c-4.53,7.85-14.57,10.54-22.41,6.01-7.85-4.53-10.54-14.57-6.01-22.41,3.02-5.23,8.17-8.2,14.21-8.2v16.41Z"/><path class="cls-3" d="M307.36,127.24l14.21-8.2c3.02,5.23,3.02,11.18,0,16.41l-14.21-8.2Z"/><path class="cls-16" d="M307.36,127.24v-16.41c6.04,0,11.19,2.98,14.21,8.2l-14.21,8.2Z"/><path class="cls-2" d="M265.28,127.24l14.21,8.2c-4.53,7.85-14.57,10.54-22.41,6.01-7.85-4.53-10.54-14.57-6.01-22.41,3.02-5.23,8.17-8.2,14.21-8.2v16.41Z"/><path class="cls-16" d="M265.28,127.24l14.21-8.2c3.02,5.23,3.02,11.18,0,16.41l-14.21-8.2Z"/><path class="cls-20" d="M265.28,127.24v-16.41c6.04,0,11.19,2.98,14.21,8.2l-14.21,8.2Z"/><path class="cls-1" d="M223.2,127.24l14.21,8.2c-4.53,7.85-14.57,10.54-22.41,6.01-7.85-4.53-10.54-14.57-6.01-22.41,3.02-5.23,8.17-8.2,14.21-8.2v16.41Z"/><path class="cls-16" d="M223.2,127.24l14.21-8.2c3.02,5.23,3.02,11.18,0,16.41l-14.21-8.2Z"/><path class="cls-24" d="M223.2,127.24v-16.41c6.04,0,11.19,2.98,14.21,8.2l-14.21,8.2Z"/><path class="cls-26" d="M181.13,127.24l14.21,8.2c-4.53,7.85-14.57,10.54-22.41,6.01-7.85-4.53-10.54-14.57-6.01-22.41,3.02-5.23,8.17-8.2,14.21-8.2v16.41Z"/><path class="cls-22" d="M181.13,127.24l14.21-8.2c3.02,5.23,3.02,11.18,0,16.41l-14.21-8.2Z"/><path class="cls-16" d="M181.13,127.24v-16.41c6.04,0,11.19,2.98,14.21,8.2l-14.21,8.2Z"/><line class="cls-15" x1="74.82" y1="53.19" x2="74.82" y2="106.54"/><line class="cls-15" x1="145.56" y1="120.85" x2="16.18" y2="120.85"/><line class="cls-15" x1="16.18" y1="73.95" x2="16.18" y2="120.85"/><line class="cls-15" x1="16.18" y1="120.85" x2="16.18" y2="120.85"/><circle class="cls-25" cx="16.18" cy="67.11" r="15.84"/><circle class="cls-23" cx="120.74" cy="120.85" r="15.06"/><path class="cls-19" d="M118.25,122.45l.17-.6c.04-.14.18-.24.33-.23.15.01.29.02.44.02.08,0,.16,0,.24,0,.15,0,.28.1.32.24l.15.61c.04.17.21.27.38.23l.79-.19c.17-.04.27-.21.23-.38l-.15-.61c-.04-.14.03-.3.17-.36.21-.1.41-.21.6-.33.13-.08.29-.06.39.05l.43.45c.12.13.32.13.45.01l.59-.56c.13-.12.13-.32.01-.45l-.43-.45c-.1-.11-.12-.27-.03-.4.13-.19.25-.38.36-.58.07-.13.23-.19.37-.15l.6.18c.17.05.34-.04.39-.21l.24-.78c.05-.17-.04-.34-.21-.39l-.59-.18c-.14-.04-.24-.18-.23-.33.02-.17.03-.34.03-.52,0-.05,0-.11,0-.16,0-.15.1-.28.24-.32l.61-.14c.17-.04.28-.21.24-.38l-.18-.8c-.04-.17-.21-.28-.38-.24l-.61.14c-.15.03-.3-.05-.36-.19-.11-.25-.24-.48-.39-.71-.08-.13-.07-.3.04-.41l.45-.44c.13-.12.13-.32,0-.45l-.57-.58c-.12-.13-.32-.13-.45,0l-.45.44c-.11.1-.27.12-.4.04-.19-.13-.38-.25-.59-.35-.13-.07-.2-.22-.15-.37l.17-.6c.05-.17-.05-.34-.22-.39l-.78-.23c-.17-.05-.34.05-.39.22l-.17.6c-.04.14-.18.24-.33.23-.15-.01-.29-.02-.44-.02-.08,0-.16,0-.24,0-.15,0-.28-.1-.32-.24l-.15-.61c-.04-.17-.21-.27-.38-.23l-.79.19c-.17.04-.27.21-.23.38l.15.61c.04.14-.03.3-.17.36-.21.1-.41.21-.6.33-.13.08-.29.06-.39-.05l-.43-.45c-.12-.13-.32-.13-.45-.01l-.59.56c-.13.12-.13.32-.01.45l.43.45c.1.11.12.27.03.4-.13.19-.25.38-.36.58-.07.13-.23.19-.37.15l-.6-.18c-.17-.05-.34.04-.39.21l-.24.78c-.05.17.04.34.21.39l.59.18c.14.04.24.18.23.33-.02.17-.03.34-.03.52,0,.05,0,.11,0,.16,0,.15-.1.28-.24.32l-.61.14c-.17.04-.28.21-.24.38l.18.8c.04.17.21.28.38.24l.61-.14c.15-.03.3.05.36.19.11.25.24.48.39.71.08.13.07.3-.04.41l-.45.44c-.13.12-.13.32,0,.45l.57.58c.12.13.32.13.45,0l.45-.44c.11-.1.27-.12.4-.04.19.13.38.25.59.35.13.07.2.22.15.37l-.17.6c-.05.17.05.34.22.39l.78.23c.17.05.34-.05.39-.22ZM115.76,116.54c0-1.89,1.54-3.43,3.43-3.43s3.43,1.54,3.43,3.43-1.54,3.43-3.43,3.43-3.43-1.54-3.43-3.43Z"/><path class="cls-19" d="M123.78,131.16l.08-.45c.02-.11.11-.19.22-.19.11,0,.21,0,.32-.02.06,0,.12-.01.17-.02.11-.02.21.05.25.15l.16.43c.04.12.18.18.29.14l.56-.2c.12-.04.18-.18.14-.29l-.16-.43c-.04-.1,0-.22.09-.27.14-.09.28-.18.41-.29.08-.07.21-.06.29,0l.35.29c.1.08.24.07.32-.03l.38-.45c.08-.1.07-.24-.03-.32l-.35-.29c-.08-.07-.11-.19-.05-.28.08-.14.15-.29.21-.45.04-.1.15-.16.25-.14l.45.08c.12.02.24-.06.27-.18l.11-.58c.02-.12-.06-.24-.18-.27l-.44-.08c-.11-.02-.19-.11-.19-.22,0-.12,0-.25-.02-.37,0-.04,0-.08-.02-.12-.02-.11.05-.21.15-.25l.43-.15c.12-.04.18-.17.14-.29l-.2-.56c-.04-.12-.17-.18-.29-.14l-.43.15c-.11.04-.22,0-.28-.11-.1-.17-.21-.33-.34-.48-.07-.09-.08-.21,0-.3l.29-.35c.08-.1.07-.24-.03-.32l-.46-.37c-.1-.08-.24-.07-.32.03l-.29.35c-.07.08-.19.11-.28.06-.15-.08-.3-.15-.45-.21-.1-.04-.16-.14-.14-.25l.08-.45c.02-.12-.06-.24-.19-.26l-.58-.1c-.12-.02-.24.06-.26.19l-.08.45c-.02.11-.11.19-.22.19-.11,0-.21,0-.32.02-.06,0-.12.01-.17.02-.11.02-.21-.05-.25-.15l-.16-.43c-.04-.12-.18-.18-.29-.14l-.56.2c-.12.04-.18.18-.14.29l.16.43c.04.1,0,.22-.09.27-.14.09-.28.18-.41.29-.08.07-.21.06-.29,0l-.35-.29c-.1-.08-.24-.07-.32.03l-.38.45c-.08.1-.07.24.03.32l.35.29c.08.07.11.19.05.28-.08.14-.15.29-.21.45-.04.1-.15.16-.25.14l-.45-.08c-.12-.02-.24.06-.27.18l-.11.58c-.02.12.06.24.18.27l.44.08c.11.02.19.11.19.22,0,.12,0,.25.02.37,0,.04,0,.08.02.12.02.11-.05.21-.15.25l-.43.15c-.12.04-.18.17-.14.29l.2.56c.04.12.17.18.29.14l.43-.15c.11-.04.22,0,.28.11.1.17.21.33.34.48.07.09.08.21,0,.3l-.29.35c-.08.1-.07.24.03.32l.46.37c.1.08.24.07.32-.03l.29-.35c.07-.08.19-.11.28-.06.15.08.3.15.45.21.1.04.16.14.14.25l-.08.45c-.02.12.06.24.19.26l.58.1c.12.02.24-.06.26-.19ZM121.51,127.11c-.15-1.36.82-2.59,2.19-2.75,1.36-.15,2.59.82,2.75,2.19.15,1.36-.82,2.59-2.19,2.75-1.36.15-2.59-.82-2.75-2.19Z"/><rect class="cls-3" x="0" y="106.65" width="32.37" height="19.78" transform="translate(32.37 233.07) rotate(180)"/><rect class="cls-18" x="60.19" y="52.49" width="29.25" height="29.25" transform="translate(141.93 -7.7) rotate(90)"/><rect class="cls-24" x="62.76" y="108.79" width="24.12" height="24.12" transform="translate(-63.54 88.3) rotate(-45)"/></g></svg>