<?xml version="1.0" encoding="UTF-8"?>
<svg id="Layer_1" data-name="Layer 1" xmlns="http://www.w3.org/2000/svg" xmlns:xlink="http://www.w3.org/1999/xlink" viewBox="0 0 90 90">
  <defs>
    <style>
      .cls-1 {
        stroke: url(#linear-gradient-3);
      }

      .cls-1, .cls-2, .cls-3 {
        fill: none;
        stroke-linecap: round;
        stroke-linejoin: round;
        stroke-width: 6px;
      }

      .cls-2 {
        stroke: url(#linear-gradient);
      }

      .cls-3 {
        stroke: url(#linear-gradient-2);
      }
    </style>
    <linearGradient id="linear-gradient" x1="45.15" y1="45.76" x2="88.34" y2="45.76" gradientUnits="userSpaceOnUse">
      <stop offset="0" stop-color="#2b3edb"/>
      <stop offset=".97" stop-color="#8efecc"/>
    </linearGradient>
    <linearGradient id="linear-gradient-2" x1="5.78" y1="43.59" x2="70.93" y2="43.59" xlink:href="#linear-gradient"/>
    <linearGradient id="linear-gradient-3" x1="25.87" y1="42.49" x2="54.91" y2="42.49" xlink:href="#linear-gradient"/>
  </defs>
  <g>
    <path class="cls-2" d="M85.24,17.15l-9.55,61.9c-.74,4.75-5.18,8.01-9.93,7.27l-17.61-2.72h11.09c4.8,0,8.7-3.89,8.7-8.69V12.27c0-2.98-1.5-5.62-3.8-7.18l13.83,2.13c4.75.73,8,5.17,7.27,9.92Z"/>
    <path class="cls-3" d="M67.93,12.27v62.64c0,4.8-3.89,8.69-8.7,8.69H17.48c-4.8,0-8.7-3.9-8.7-8.7V18.83c5.96-5.96,9.29-9.29,15.25-15.25h35.21c1.82,0,3.51.56,4.9,1.52,2.3,1.56,3.8,4.19,3.8,7.18Z"/>
  </g>
  <polyline class="cls-1" points="28.87 41.78 35.95 48.85 51.91 36.12"/>
</svg>