<?xml version="1.0" encoding="UTF-8"?><svg id="Layer_2" xmlns="http://www.w3.org/2000/svg" viewBox="0 0 230.08 213.62"><defs><style>.cls-1{fill:#85e9ff;}.cls-2{stroke-dasharray:3.41 1.62;}.cls-2,.cls-3,.cls-4,.cls-5,.cls-6{fill:none;}.cls-2,.cls-3,.cls-5,.cls-6{stroke-miterlimit:10;}.cls-2,.cls-4,.cls-5,.cls-6{stroke:#2b3edb;stroke-width:2.99px;}.cls-3{stroke:#f4f4f4;stroke-width:4px;}.cls-7{fill:#fff;}.cls-8{fill:#33acff;}.cls-4{stroke-linecap:round;stroke-linejoin:round;}.cls-9{fill:#88ffeb;}.cls-10{fill:#ffefe8;}.cls-11{fill:#e1f3ff;}.cls-12{fill:#2b3edb;}.cls-6{stroke-dasharray:87.89 29.3;}</style></defs><g id="Blocks"><rect class="cls-1" width="50" height="50" rx="5" ry="5"/><circle class="cls-6" cx="24.03" cy="25" r="18.66"/><polygon class="cls-12" points="42.55 30.62 38.3 23.25 46.81 23.25 42.55 30.62"/><path class="cls-5" d="M41.31,31.97c-.2.49-.41.97-.65,1.44"/><path class="cls-2" d="M39.87,34.83c-2.49,4.05-6.49,7.07-11.22,8.29"/><path class="cls-5" d="M27.86,43.3c-.51.11-1.03.19-1.55.26"/><polyline class="cls-4" points="28.97 14.83 22.4 26.36 13.64 30.72"/><rect class="cls-8" x="60.03" width="50" height="50" rx="5" ry="5"/><circle class="cls-6" cx="84.05" cy="25" r="18.66" transform="translate(-.59 47.92) rotate(-31.72)"/><polygon class="cls-12" points="102.58 30.62 98.32 23.25 106.83 23.25 102.58 30.62"/><path class="cls-5" d="M101.33,31.97c-.2.49-.41.97-.65,1.44"/><path class="cls-2" d="M99.9,34.83c-2.5,4.05-6.49,7.07-11.22,8.29"/><path class="cls-5" d="M87.88,43.3c-.51.11-1.03.19-1.55.26"/><polyline class="cls-4" points="93.49 16.02 84.05 25.35 74.44 27.19"/><rect class="cls-9" x="120.05" width="50" height="50" rx="5" ry="5"/><circle class="cls-6" cx="144.08" cy="25" r="18.66"/><polygon class="cls-12" points="162.6 30.62 158.35 23.25 166.86 23.25 162.6 30.62"/><path class="cls-5" d="M161.36,31.97c-.2.49-.41.97-.65,1.44"/><path class="cls-2" d="M159.92,34.83c-2.5,4.05-6.49,7.07-11.22,8.29"/><path class="cls-5" d="M147.91,43.3c-.51.11-1.03.19-1.55.26"/><polyline class="cls-4" points="155.51 18.62 144.08 25.35 134.31 24.78"/><rect class="cls-10" x="180.08" width="50" height="50" rx="5" ry="5"/><circle class="cls-6" cx="204.1" cy="25" r="18.66" transform="translate(17.34 111.04) rotate(-31.72)"/><polygon class="cls-12" points="222.63 30.62 218.37 23.25 226.88 23.25 222.63 30.62"/><path class="cls-5" d="M221.38,31.97c-.2.49-.41.97-.65,1.44"/><path class="cls-2" d="M219.95,34.83c-2.5,4.05-6.49,7.07-11.22,8.29"/><path class="cls-5" d="M207.93,43.3c-.51.11-1.03.19-1.55.26"/><polyline class="cls-4" points="217.24 26.94 204.1 25.35 194.32 25.42"/><rect class="cls-10" y="54.54" width="50" height="50" rx="5" ry="5"/><circle class="cls-6" cx="24.03" cy="79.54" r="18.66"/><polygon class="cls-12" points="42.55 85.16 38.3 77.79 46.81 77.79 42.55 85.16"/><path class="cls-5" d="M41.31,86.51c-.2.49-.41.97-.65,1.44"/><path class="cls-2" d="M39.87,89.36c-2.49,4.05-6.49,7.07-11.22,8.29"/><path class="cls-5" d="M27.86,97.84c-.51.11-1.03.19-1.55.26"/><polyline class="cls-4" points="24.03 91.04 24.03 79.88 14.24 80.01"/><rect class="cls-9" x="60.03" y="54.54" width="50" height="50" rx="5" ry="5"/><circle class="cls-6" cx="84.05" cy="79.54" r="18.66" transform="translate(-31.62 82.73) rotate(-45)"/><polygon class="cls-12" points="102.58 85.16 98.32 77.79 106.83 77.79 102.58 85.16"/><path class="cls-5" d="M101.33,86.51c-.2.49-.41.97-.65,1.44"/><path class="cls-2" d="M99.9,89.36c-2.5,4.05-6.49,7.07-11.22,8.29"/><path class="cls-5" d="M87.88,97.84c-.51.11-1.03.19-1.55.26"/><polyline class="cls-4" points="77.72 91.04 84.05 79.88 74.27 79.79"/><rect class="cls-8" x="120.05" y="54.54" width="50" height="50" rx="5" ry="5"/><circle class="cls-6" cx="144.08" cy="79.54" r="18.66"/><polygon class="cls-12" points="162.6 85.16 158.35 77.79 166.86 77.79 162.6 85.16"/><path class="cls-5" d="M161.36,86.51c-.2.49-.41.97-.65,1.44"/><path class="cls-2" d="M159.92,89.36c-2.5,4.05-6.49,7.07-11.22,8.29"/><path class="cls-5" d="M147.91,97.84c-.51.11-1.03.19-1.55.26"/><polyline class="cls-4" points="144.08 91.04 144.08 79.88 137.13 72.99"/><rect class="cls-11" x="180.08" y="54.54" width="50" height="50" rx="5" ry="5"/><circle class="cls-6" cx="204.1" cy="79.54" r="18.66" transform="translate(3.54 167.62) rotate(-45)"/><polygon class="cls-12" points="222.63 85.16 218.37 77.79 226.88 77.79 222.63 85.16"/><path class="cls-5" d="M221.38,86.51c-.2.49-.41.97-.65,1.44"/><path class="cls-2" d="M219.95,89.36c-2.5,4.05-6.49,7.07-11.22,8.29"/><path class="cls-5" d="M207.93,97.84c-.51.11-1.03.19-1.55.26"/><polyline class="cls-4" points="213.88 85.46 204.1 79.88 199.94 71"/><rect class="cls-8" y="109.08" width="50" height="50" rx="5" ry="5"/><circle class="cls-6" cx="24.03" cy="134.08" r="18.66"/><polygon class="cls-12" points="42.55 139.7 38.3 132.33 46.81 132.33 42.55 139.7"/><path class="cls-5" d="M41.31,141.05c-.2.49-.41.97-.65,1.44"/><path class="cls-2" d="M39.87,143.9c-2.49,4.05-6.49,7.07-11.22,8.29"/><path class="cls-5" d="M27.86,152.38c-.51.11-1.03.19-1.55.26"/><polyline class="cls-4" points="31.67 145.27 24.03 134.42 23.79 124.64"/><rect class="cls-1" x="60.03" y="109.08" width="50" height="50" rx="5" ry="5"/><circle class="cls-6" cx="84.05" cy="134.08" r="18.66" transform="translate(-44.91 42.37) rotate(-22.5)"/><polygon class="cls-12" points="102.58 139.7 98.32 132.33 106.83 132.33 102.58 139.7"/><path class="cls-5" d="M101.33,141.05c-.2.49-.41.97-.65,1.44"/><path class="cls-2" d="M99.9,143.9c-2.5,4.05-6.49,7.07-11.22,8.29"/><path class="cls-5" d="M87.88,152.38c-.51.11-1.03.19-1.55.26"/><polyline class="cls-4" points="73.49 142.45 84.05 134.42 93.82 133.83"/><rect class="cls-12" x="120.05" y="109.08" width="110.03" height="104.54" rx="5" ry="5"/><rect class="cls-11" y="163.62" width="50" height="50" rx="5" ry="5"/><circle class="cls-6" cx="24.03" cy="188.62" r="18.66"/><polygon class="cls-12" points="42.55 194.24 38.3 186.87 46.81 186.87 42.55 194.24"/><path class="cls-5" d="M41.31,195.59c-.2.49-.41.97-.65,1.44"/><path class="cls-2" d="M39.87,198.44c-2.49,4.05-6.49,7.07-11.22,8.29"/><path class="cls-5" d="M27.86,206.92c-.51.11-1.03.19-1.55.26"/><polyline class="cls-4" points="27.73 175.7 24.03 188.96 24.71 198.72"/><rect class="cls-10" x="60.03" y="163.62" width="50" height="50" rx="5" ry="5"/><circle class="cls-6" cx="84.05" cy="188.62" r="18.66" transform="translate(-65.78 46.52) rotate(-22.5)"/><polygon class="cls-12" points="102.58 194.24 98.32 186.87 106.83 186.87 102.58 194.24"/><path class="cls-5" d="M101.33,195.59c-.2.49-.41.97-.65,1.44"/><path class="cls-2" d="M99.9,198.44c-2.5,4.05-6.49,7.07-11.22,8.29"/><path class="cls-5" d="M87.88,206.92c-.51.11-1.03.19-1.55.26"/><polyline class="cls-4" points="93.83 180.58 84.05 188.96 83.75 198.74"/><g id="layer1"><path class="cls-7" d="M166.86,152.96l13.94,36.19,6.6-8.65,10.08,10.59,5.98-5.78-10.07-10.59,8.94-6.03-35.46-15.73Z"/></g><line class="cls-3" x1="183.36" y1="137.76" x2="173.28" y2="147.84"/><line class="cls-3" x1="162.18" y1="158.94" x2="152.1" y2="169.02"/><line class="cls-3" x1="159.88" y1="153.39" x2="145.63" y2="153.39"/><line class="cls-3" x1="167.73" y1="145.54" x2="167.73" y2="131.29"/><line class="cls-3" x1="162.18" y1="147.84" x2="152.1" y2="137.76"/></g></svg>