<?xml version="1.0" encoding="UTF-8"?>
<svg id="Layer_1" data-name="Layer 1" xmlns="http://www.w3.org/2000/svg" viewBox="0 0 90 90">
  <defs>
    <style>
      .cls-1 {
        fill: none;
        stroke: #71ffc5;
        stroke-linecap: round;
        stroke-linejoin: round;
        stroke-width: 6px;
      }
    </style>
  </defs>
  <polyline class="cls-1" points="36.35 45.03 41.82 50.5 52.95 39.37"/>
  <path class="cls-1" d="M59.03,72.37h-28.77c-3.61,0-6.53-2.92-6.53-6.53V24.03c0-3.61,2.92-6.53,6.53-6.53h23.56c4.58,4.58,7.15,7.15,11.74,11.74v36.6c0,3.61-2.92,6.53-6.53,6.53Z"/>
  <g>
    <path class="cls-1" d="M80.19,58.61v16.89c0,6.02-4.49,10.9-10.04,10.9H22.47"/>
    <polyline class="cls-1" points="73.76 64.42 79.99 57.66 86.01 64.2"/>
  </g>
  <g>
    <path class="cls-1" d="M9.47,31.39V14.5c0-6.02,4.49-10.9,10.04-10.9h47.68"/>
    <polyline class="cls-1" points="15.91 25.58 9.68 32.34 3.65 25.8"/>
  </g>
</svg>