<?xml version="1.0" encoding="UTF-8"?><svg id="Layer_2" xmlns="http://www.w3.org/2000/svg" xmlns:xlink="http://www.w3.org/1999/xlink" viewBox="0 0 197.39 160.2"><defs><style>.cls-1{fill:url(#linear-gradient-15);}.cls-2{fill:url(#linear-gradient-13);}.cls-3{fill:#fcd151;}.cls-4{stroke:url(#linear-gradient-5);}.cls-4,.cls-5,.cls-6,.cls-7,.cls-8,.cls-9,.cls-10,.cls-11,.cls-12,.cls-13,.cls-14{fill:none;stroke-miterlimit:10;}.cls-4,.cls-6,.cls-7,.cls-8,.cls-9,.cls-10,.cls-11,.cls-12,.cls-13,.cls-14{stroke-width:7.38px;}.cls-5{stroke:url(#linear-gradient);stroke-width:8.29px;}.cls-15{fill:#325aff;}.cls-6{stroke:url(#linear-gradient-6);}.cls-7{stroke:url(#linear-gradient-7);}.cls-16{fill:url(#linear-gradient-12);}.cls-8{stroke:url(#linear-gradient-8);}.cls-9{stroke:url(#linear-gradient-9);}.cls-10{stroke:url(#linear-gradient-2);}.cls-17{fill:url(#linear-gradient-14);}.cls-18{fill:#dd9442;}.cls-11{stroke:url(#linear-gradient-10);}.cls-12{stroke:url(#linear-gradient-11);}.cls-19{fill:url(#linear-gradient-17);}.cls-13{stroke:url(#linear-gradient-4);}.cls-20{fill:#ff681d;}.cls-14{stroke:url(#linear-gradient-3);}.cls-21{fill:#003edb;}.cls-22{fill:url(#linear-gradient-16);}.cls-23{fill:#008f9a;}</style><linearGradient id="linear-gradient" x1="181.55" y1="162.95" x2="15.84" y2="-2.75" gradientUnits="userSpaceOnUse"><stop offset="0" stop-color="#325aff"/><stop offset=".5" stop-color="#30bebc"/><stop offset="1" stop-color="#fcd151"/></linearGradient><linearGradient id="linear-gradient-2" x1="27.46" y1="82.38" x2="27.46" y2="99.65" gradientUnits="userSpaceOnUse"><stop offset="0" stop-color="#325aff"/><stop offset="1" stop-color="#e6ebff"/></linearGradient><linearGradient id="linear-gradient-3" x1="41.48" y1="59.15" x2="41.48" y2="99.65" gradientUnits="userSpaceOnUse"><stop offset="0" stop-color="#30bebc"/><stop offset="1" stop-color="#d5ffec"/></linearGradient><linearGradient id="linear-gradient-4" x1="55.49" y1="86.27" x2="55.49" xlink:href="#linear-gradient-2"/><linearGradient id="linear-gradient-5" x1="69.5" y1="68.37" x2="69.5" xlink:href="#linear-gradient-3"/><linearGradient id="linear-gradient-6" x1="83.51" y1="59.03" x2="83.51" xlink:href="#linear-gradient-2"/><linearGradient id="linear-gradient-7" x1="97.53" y1="53.19" x2="97.53" y2="99.65" gradientUnits="userSpaceOnUse"><stop offset="0" stop-color="#fcd151"/><stop offset="1" stop-color="#fbf4e5"/></linearGradient><linearGradient id="linear-gradient-8" x1="111.54" y1="75.11" x2="111.54" xlink:href="#linear-gradient-2"/><linearGradient id="linear-gradient-9" x1="125.55" y1="44.43" x2="125.55" xlink:href="#linear-gradient-3"/><linearGradient id="linear-gradient-10" x1="139.56" y1="40.34" x2="139.56" xlink:href="#linear-gradient-2"/><linearGradient id="linear-gradient-11" x1="153.58" y1="27.5" x2="153.58" xlink:href="#linear-gradient-3"/><linearGradient id="linear-gradient-12" x1="145.48" y1="127.24" x2="176.1" y2="127.24" xlink:href="#linear-gradient-7"/><linearGradient id="linear-gradient-13" x1="103.4" y1="127.24" x2="134.02" y2="127.24" xlink:href="#linear-gradient-2"/><linearGradient id="linear-gradient-14" x1="119.81" y1="119.04" x2="134.02" y2="119.04" xlink:href="#linear-gradient-7"/><linearGradient id="linear-gradient-15" x1="61.32" y1="127.24" x2="91.95" y2="127.24" xlink:href="#linear-gradient-3"/><linearGradient id="linear-gradient-16" x1="19.25" y1="127.24" x2="49.87" y2="127.24" xlink:href="#linear-gradient-7"/><linearGradient id="linear-gradient-17" x1="35.66" y1="127.24" x2="52.13" y2="127.24" xlink:href="#linear-gradient-3"/></defs><g id="Text__x2F__Blocks"><rect class="cls-5" x="4.14" y="4.14" width="189.1" height="151.91" rx="18.2" ry="18.2"/><line class="cls-10" x1="27.46" y1="99.65" x2="27.46" y2="82.38"/><line class="cls-14" x1="41.48" y1="99.65" x2="41.48" y2="59.15"/><line class="cls-13" x1="55.49" y1="99.65" x2="55.49" y2="86.27"/><line class="cls-4" x1="69.5" y1="99.65" x2="69.5" y2="68.37"/><line class="cls-6" x1="83.51" y1="99.65" x2="83.51" y2="59.03"/><line class="cls-7" x1="97.53" y1="99.65" x2="97.53" y2="53.19"/><line class="cls-8" x1="111.54" y1="99.65" x2="111.54" y2="75.11"/><line class="cls-9" x1="125.55" y1="99.65" x2="125.55" y2="44.43"/><line class="cls-11" x1="139.56" y1="99.65" x2="139.56" y2="40.34"/><line class="cls-12" x1="153.58" y1="99.65" x2="153.58" y2="27.5"/><circle class="cls-18" cx="97.53" cy="53.56" r="3.69"/><circle class="cls-23" cx="41.48" cy="59.01" r="3.69"/><circle class="cls-23" cx="153.58" cy="27.5" r="3.69"/><circle class="cls-23" cx="69.5" cy="68.37" r="3.69"/><circle class="cls-23" cx="125.55" cy="44.65" r="3.69"/><circle class="cls-21" cx="55.49" cy="86.64" r="3.69"/><circle class="cls-21" cx="27.46" cy="82.58" r="3.69"/><circle class="cls-21" cx="83.51" cy="59.15" r="3.69"/><circle class="cls-21" cx="111.54" cy="75.11" r="3.69"/><circle class="cls-21" cx="139.56" cy="40.34" r="3.69"/><path class="cls-16" d="M161.89,127.24l14.21,8.2c-4.53,7.85-14.57,10.54-22.41,6.01-7.85-4.53-10.54-14.57-6.01-22.41,3.02-5.23,8.17-8.2,14.21-8.2v16.41Z"/><path class="cls-3" d="M161.89,127.24l14.21-8.2c3.02,5.23,3.02,11.18,0,16.41l-14.21-8.2Z"/><path class="cls-15" d="M161.89,127.24v-16.41c6.04,0,11.19,2.98,14.21,8.2l-14.21,8.2Z"/><path class="cls-2" d="M119.81,127.24l14.21,8.2c-4.53,7.85-14.57,10.54-22.41,6.01-7.85-4.53-10.54-14.57-6.01-22.41,3.02-5.23,8.17-8.2,14.21-8.2v16.41Z"/><path class="cls-15" d="M119.81,127.24l14.21-8.2c3.02,5.23,3.02,11.18,0,16.41l-14.21-8.2Z"/><path class="cls-17" d="M119.81,127.24v-16.41c6.04,0,11.19,2.98,14.21,8.2l-14.21,8.2Z"/><path class="cls-1" d="M77.74,127.24l14.21,8.2c-4.53,7.85-14.57,10.54-22.41,6.01-7.85-4.53-10.54-14.57-6.01-22.41,3.02-5.23,8.17-8.2,14.21-8.2v16.41Z"/><path class="cls-15" d="M77.74,127.24l14.21-8.2c3.02,5.23,3.02,11.18,0,16.41l-14.21-8.2Z"/><path class="cls-20" d="M77.74,127.24v-16.41c6.04,0,11.19,2.98,14.21,8.2l-14.21,8.2Z"/><path class="cls-22" d="M35.66,127.24l14.21,8.2c-4.53,7.85-14.57,10.54-22.41,6.01-7.85-4.53-10.54-14.57-6.01-22.41,3.02-5.23,8.17-8.2,14.21-8.2v16.41Z"/><path class="cls-19" d="M35.66,127.24l14.21-8.2c3.02,5.23,3.02,11.18,0,16.41l-14.21-8.2Z"/><path class="cls-15" d="M35.66,127.24v-16.41c6.04,0,11.19,2.98,14.21,8.2l-14.21,8.2Z"/></g></svg>