<?xml version="1.0" encoding="UTF-8"?>
<svg id="Layer_1" data-name="Layer 1" xmlns="http://www.w3.org/2000/svg" viewBox="0 0 90 90">
  <defs>
    <style>
      .cls-1 {
        fill: none;
        stroke: #71ffc5;
        stroke-linecap: round;
        stroke-linejoin: round;
        stroke-width: 6px;
      }
    </style>
  </defs>
  <g>
    <line class="cls-1" x1="35.61" y1="14.8" x2="35.61" y2="29.7"/>
    <polyline class="cls-1" points="30.15 24.03 35.86 30.73 41.51 24.28"/>
  </g>
  <g>
    <line class="cls-1" x1="53.12" y1="30.73" x2="53.12" y2="15.83"/>
    <polyline class="cls-1" points="47.66 21.51 53.37 14.8 59.02 21.25"/>
  </g>
  <g>
    <polyline class="cls-1" points="71.4 28.95 83.49 28.95 83.49 77.19 6.51 77.19 6.51 28.95 18.35 28.95"/>
    <rect class="cls-1" x="30.08" y="77.19" width="25.89" height="8.57"/>
    <g>
      <path class="cls-1" d="M59.34,62.59h-28.69c-4.43,0-8.02-3.59-8.02-8.02V12.26c0-4.43,3.59-8.02,8.02-8.02h22.63c5.5,5.5,8.58,8.58,14.08,14.08v36.26c0,4.43-3.59,8.02-8.02,8.02Z"/>
      <line class="cls-1" x1="55.55" y1="47" x2="43.18" y2="47"/>
      <line class="cls-1" x1="35.28" y1="46.64" x2="33.03" y2="46.64"/>
      <line class="cls-1" x1="55.55" y1="40.28" x2="43.18" y2="40.28"/>
      <line class="cls-1" x1="35.28" y1="39.92" x2="33.03" y2="39.92"/>
      <line class="cls-1" x1="55.55" y1="54.27" x2="43.18" y2="54.27"/>
      <line class="cls-1" x1="35.28" y1="53.92" x2="33.03" y2="53.92"/>
    </g>
  </g>
</svg>